<svg width="72" height="72" viewBox="0 0 72 72" fill="none" xmlns="http://www.w3.org/2000/svg">
<g clip-path="url(#clip0)">
<path d="M71.1272 40.0916C70.7249 38.6345 70.3462 37.2572 70.3462 36.0005C70.3462 34.7437 70.7249 33.3664 71.1272 31.9093C71.7673 29.5898 72.4278 27.1906 71.6374 24.8586C70.8173 22.4327 68.7733 20.8472 66.7966 19.3166C65.6118 18.3979 64.4927 17.5308 63.7665 16.5761C63.0278 15.6026 62.5051 14.3036 61.9542 12.9278C61.0448 10.6679 60.1058 8.3296 58.0023 6.86154C55.9332 5.41539 53.3508 5.2761 50.8576 5.14307C49.3019 5.06012 47.8307 4.9803 46.599 4.59685C45.4471 4.23844 44.2545 3.49502 42.993 2.70778C40.9631 1.44005 38.6609 0.0032959 35.9986 0.0032959C33.3364 0.0032959 31.0342 1.44005 29.0042 2.70934C27.7428 3.49659 26.5533 4.24157 25.3998 4.59841C24.1665 4.98186 22.6953 5.06168 21.1396 5.14463C18.6449 5.27923 16.0656 5.41696 13.995 6.86311C11.8915 8.33116 10.9524 10.6679 10.0431 12.9278C9.48907 14.3036 8.96633 15.6042 8.2276 16.5776C7.5014 17.5355 6.38236 18.4025 5.19758 19.3228C3.22243 20.8551 1.18155 22.4374 0.361441 24.8601C-0.428932 27.1937 0.231538 29.5914 0.870096 31.9124C1.27233 33.3695 1.65108 34.7453 1.65108 36.002C1.65108 37.2588 1.27233 38.6361 0.870096 40.0932C0.231538 42.4127 -0.428932 44.812 0.361441 47.1471C1.18155 49.5698 3.224 51.1553 5.19915 52.6859C6.38392 53.6031 7.50297 54.4717 8.2276 55.4264C8.96789 56.3999 9.49063 57.6989 10.0431 59.0762C10.9524 61.3362 11.8931 63.6745 13.9981 65.1457C16.0656 66.5887 18.6464 66.7264 21.1396 66.8594C22.6953 66.9424 24.1665 67.0222 25.3983 67.4057C26.5502 67.7641 27.7412 68.5075 29.0011 69.2932C31.0326 70.5593 33.3348 71.9977 35.9986 71.9977C38.6624 71.9977 40.9662 70.5593 42.9993 69.2916C44.2592 68.5059 45.4487 67.7625 46.6021 67.4041C47.8339 67.0207 49.3051 66.9408 50.8608 66.8579C53.3555 66.7248 55.9348 66.5871 58.0023 65.1441C60.1105 63.6729 61.0495 61.3315 61.9589 59.07C62.5113 57.6958 63.0325 56.3968 63.7681 55.4264C64.4943 54.4717 65.6133 53.6031 66.7981 52.6859C68.7748 51.1537 70.8173 49.5698 71.639 47.1455C72.4293 44.8104 71.7673 42.4127 71.1272 40.0916ZM68.6729 46.1423C68.1549 47.673 66.5632 48.9062 64.8791 50.2115C63.5879 51.2132 62.2513 52.2493 61.2747 53.5327C60.284 54.8411 59.658 56.3968 59.0523 57.904C58.2807 59.8259 57.5513 61.6399 56.2101 62.5758C54.8735 63.5086 52.8435 63.6166 50.6931 63.7308C49.0138 63.82 47.2749 63.9124 45.6692 64.4132C44.1338 64.8937 42.7127 65.778 41.3401 66.6356C39.5011 67.7844 37.7654 68.8675 35.9984 68.8675C34.2314 68.8675 32.4973 67.7844 30.6583 66.6356C29.2873 65.7795 27.8678 64.8937 26.3309 64.4132C24.7251 63.9139 22.9862 63.82 21.3069 63.7308C19.1565 63.6166 17.125 63.507 15.7899 62.5758C14.4502 61.6399 13.7193 59.8259 12.9477 57.9055C12.342 56.3983 11.7144 54.8411 10.7222 53.5327C9.74712 52.2493 8.41052 51.2132 7.11776 50.21C5.43528 48.9047 3.84514 47.673 3.3271 46.1423C2.84348 44.7165 3.35214 42.8728 3.88897 40.9227C4.32719 39.3279 4.78107 37.6814 4.78107 35.9989C4.78107 34.3164 4.32719 32.6715 3.88897 31.0767C3.35057 29.1266 2.84348 27.2845 3.3271 25.8587C3.84514 24.328 5.43372 23.0963 7.11619 21.791C8.40896 20.7878 9.74712 19.7501 10.7206 18.4652C11.716 17.1567 12.342 15.5979 12.9493 14.0907C13.7193 12.1703 14.4487 10.358 15.7868 9.42517C17.1234 8.4908 19.1565 8.38281 21.3085 8.26856C22.9862 8.17779 24.7251 8.08544 26.3293 7.58461C27.8678 7.1057 29.2889 6.21829 30.663 5.36062C32.4989 4.21653 34.233 3.13349 35.9984 3.13349C37.7639 3.13349 39.4996 4.21653 41.337 5.36375C42.7111 6.22298 44.1307 7.10883 45.6692 7.58775C47.2734 8.08701 49.0106 8.17935 50.69 8.27013C52.842 8.38438 54.8735 8.4955 56.2101 9.4283C57.5498 10.3642 58.2791 12.1766 59.0491 14.0938C59.6564 15.6026 60.2809 17.1599 61.2763 18.4683C62.2513 19.7517 63.5879 20.7878 64.8791 21.7894C66.5632 23.0963 68.1549 24.3296 68.6729 25.8634C69.1565 27.286 68.6463 29.1281 68.1095 31.0783C67.6697 32.6731 67.2158 34.3196 67.2158 36.002C67.2158 37.6845 67.6681 39.331 68.1095 40.9243C68.6481 42.8744 69.1565 44.7165 68.6729 46.1423Z" fill="#F0750F"/>
<path d="M35.9989 12.5234C23.054 12.5234 12.5225 23.055 12.5225 35.9998C12.5225 48.9447 23.054 59.4763 35.9989 59.4763C48.9438 59.4763 59.4753 48.9447 59.4753 35.9998C59.4753 23.055 48.9438 12.5234 35.9989 12.5234ZM35.9989 56.3461C24.7803 56.3461 15.6526 47.2184 15.6526 35.9998C15.6526 24.7813 24.7803 15.6536 35.9989 15.6536C41.785 15.6536 47.0015 18.0936 50.7108 21.9844L35.7954 42.9739L27.7148 34.8933C27.1029 34.2814 26.1137 34.2814 25.5018 34.8933C24.8898 35.5053 24.8898 36.4944 25.5018 37.1064L34.8924 46.4969C35.1866 46.7927 35.5857 46.9555 35.9989 46.9555C36.0411 46.9555 36.0865 46.9539 36.1303 46.9492C36.5889 46.9117 37.0084 46.6722 37.2744 46.2966L52.7642 24.498C55.0179 27.7721 56.3451 31.7318 56.3451 35.9998C56.3451 47.2184 47.2175 56.3461 35.9989 56.3461Z" fill="#F0750F"/>
</g>
<defs>
<clipPath id="clip0">
<rect width="72" height="72" fill="white"/>
</clipPath>
</defs>
</svg>
