<svg width="82" height="82" viewBox="0 0 82 82" fill="none" xmlns="http://www.w3.org/2000/svg">
<path d="M37.1562 31.1875H39.7188V33.75H37.1562V31.1875Z" fill="#F0750F"/>
<path d="M42.2812 31.1875H44.8438V33.75H42.2812V31.1875Z" fill="#F0750F"/>
<path d="M57.6562 50.4062H50.3916L46.125 47.2031V43.6669C47.1305 42.9639 47.9812 42.0624 48.6247 41.0178C49.2681 39.9733 49.6907 38.808 49.8662 37.5938H51.25C51.929 37.5917 52.5796 37.3211 53.0597 36.841C53.5398 36.3608 53.8105 35.7102 53.8125 35.0312V33.75C53.8105 33.071 53.5398 32.4204 53.0597 31.9403C52.5796 31.4602 51.929 31.1895 51.25 31.1875H49.9688V30.8287C51.1509 30.0056 52.1174 28.9099 52.7864 27.6342C53.4555 26.3585 53.8074 24.9405 53.8125 23.5V18.375C53.8125 18.0352 53.6775 17.7093 53.4372 17.469C53.197 17.2287 52.8711 17.0938 52.5312 17.0938H37.1562C34.7784 17.0965 32.4988 18.0423 30.8174 19.7236C29.136 21.405 28.1902 23.6847 28.1875 26.0625V28.625C28.1901 29.1729 28.3104 29.7139 28.5403 30.2113C28.7702 30.7087 29.1043 31.1508 29.52 31.5078C29.1186 31.7293 28.7835 32.0538 28.5493 32.4479C28.315 32.8421 28.1902 33.2915 28.1875 33.75V35.0312C28.1895 35.7102 28.4602 36.3608 28.9403 36.841C29.4204 37.3211 30.071 37.5917 30.75 37.5938H32.1337C32.3093 38.808 32.7319 39.9733 33.3753 41.0178C34.0188 42.0624 34.8695 42.9639 35.875 43.6669V47.2031L31.6084 50.4062H24.3438C24.0039 50.4062 23.678 50.5412 23.4378 50.7815C23.1975 51.0218 23.0625 51.3477 23.0625 51.6875V63.2188C23.0625 63.5586 23.1975 63.8844 23.4378 64.1247C23.678 64.365 24.0039 64.5 24.3438 64.5H57.6562C57.9961 64.5 58.3219 64.365 58.5622 64.1247C58.8025 63.8844 58.9375 63.5586 58.9375 63.2188V51.6875C58.9375 51.3477 58.8025 51.0218 58.5622 50.7815C58.3219 50.5412 57.9961 50.4062 57.6562 50.4062ZM51.25 33.75V35.0312H49.9688V33.75H51.25ZM32.0312 35.0312H30.75V33.75H32.0312V35.0312ZM32.7359 27.4847C32.5225 27.5884 32.3429 27.7507 32.2181 27.9526C32.0933 28.1545 32.0285 28.3877 32.0312 28.625V29.9062C31.6914 29.9062 31.3655 29.7713 31.1253 29.531C30.885 29.2907 30.75 28.9648 30.75 28.625V26.0625C30.75 24.3635 31.4249 22.734 32.6263 21.5326C33.8278 20.3312 35.4572 19.6562 37.1562 19.6562H51.25V23.5C51.2469 25.0717 50.6628 26.5868 49.61 27.7537C49.4416 27.5775 49.2293 27.4493 48.995 27.3822L38.745 24.8197C38.4477 24.7445 38.1332 24.781 37.8609 24.9222L32.7359 27.4847ZM34.5938 36.3125V29.4194L38.5913 27.4206L47.4062 29.6244V36.3125C47.4062 38.0115 46.7313 39.641 45.5299 40.8424C44.3285 42.0438 42.699 42.7188 41 42.7188C39.301 42.7188 37.6715 42.0438 36.4701 40.8424C35.2687 39.641 34.5938 38.0115 34.5938 36.3125ZM37.925 48.8687C38.0831 48.7485 38.2115 48.5935 38.3004 48.4158C38.3892 48.2381 38.4361 48.0424 38.4375 47.8438V44.9097C40.1099 45.4051 41.8901 45.4051 43.5625 44.9097V47.8438C43.5639 48.0424 43.6108 48.2381 43.6996 48.4158C43.7885 48.5935 43.9169 48.7485 44.075 48.8687L47.6369 51.5466L41 55.3391L34.3631 51.5466L37.925 48.8687ZM56.375 61.9375H25.625V52.9688H31.6853L40.3594 57.9272C40.5559 58.0344 40.7762 58.0906 41 58.0906C41.2238 58.0906 41.4441 58.0344 41.6406 57.9272L50.3147 52.9688H56.375V61.9375Z" fill="#F0750F"/>
<path d="M41 13.25C42.0136 13.25 43.0045 12.9494 43.8473 12.3863C44.6901 11.8231 45.347 11.0227 45.7349 10.0863C46.1228 9.14978 46.2243 8.11932 46.0265 7.12516C45.8288 6.13101 45.3407 5.21782 44.6239 4.50108C43.9072 3.78434 42.994 3.29623 41.9998 3.09848C41.0057 2.90073 39.9752 3.00222 39.0388 3.39012C38.1023 3.77802 37.3019 4.4349 36.7387 5.2777C36.1756 6.12051 35.875 7.11137 35.875 8.125C35.875 9.48424 36.415 10.7878 37.3761 11.7489C38.3372 12.71 39.6408 13.25 41 13.25ZM41 5.5625C41.5068 5.5625 42.0023 5.71279 42.4237 5.99436C42.8451 6.27593 43.1735 6.67614 43.3675 7.14438C43.5614 7.61261 43.6122 8.12784 43.5133 8.62492C43.4144 9.122 43.1703 9.57859 42.812 9.93696C42.4536 10.2953 41.997 10.5394 41.4999 10.6383C41.0029 10.7371 40.4876 10.6864 40.0194 10.4924C39.5511 10.2985 39.1509 9.97005 38.8694 9.54865C38.5878 9.12725 38.4375 8.63182 38.4375 8.125C38.4375 7.44538 38.7075 6.7936 39.188 6.31304C39.6686 5.83248 40.3204 5.5625 41 5.5625Z" fill="#F0750F"/>
<path d="M12.8125 41.4375C12.8125 40.4239 12.5119 39.433 11.9488 38.5902C11.3856 37.7474 10.5852 37.0905 9.64876 36.7026C8.71228 36.3147 7.68182 36.2132 6.68766 36.411C5.69351 36.6087 4.78032 37.0968 4.06358 37.8136C3.34684 38.5303 2.85873 39.4435 2.66098 40.4377C2.46323 41.4318 2.56472 42.4623 2.95262 43.3988C3.34052 44.3352 3.9974 45.1357 4.8402 45.6988C5.68301 46.2619 6.67387 46.5625 7.6875 46.5625C9.04674 46.5625 10.3503 46.0226 11.3114 45.0614C12.2725 44.1003 12.8125 42.7967 12.8125 41.4375ZM7.6875 44C7.18069 44 6.68525 43.8497 6.26385 43.5682C5.84245 43.2866 5.51401 42.8864 5.32006 42.4181C5.12611 41.9499 5.07537 41.4347 5.17424 40.9376C5.27311 40.4405 5.51717 39.9839 5.87554 39.6255C6.23391 39.2672 6.69051 39.0231 7.18758 38.9242C7.68466 38.8254 8.19989 38.8761 8.66813 39.0701C9.13636 39.264 9.53657 39.5925 9.81814 40.0139C10.0997 40.4353 10.25 40.9307 10.25 41.4375C10.25 42.1171 9.98003 42.7689 9.49946 43.2495C9.0189 43.73 8.36712 44 7.6875 44Z" fill="#F0750F"/>
<path d="M41 69.625C39.9864 69.625 38.9955 69.9256 38.1527 70.4887C37.3099 71.0519 36.653 71.8523 36.2651 72.7888C35.8772 73.7252 35.7757 74.7557 35.9735 75.7499C36.1712 76.744 36.6593 77.6572 37.3761 78.3739C38.0928 79.0907 39.006 79.5788 40.0002 79.7766C40.9943 79.9743 42.0248 79.8728 42.9613 79.4849C43.8977 79.097 44.6982 78.4401 45.2613 77.5973C45.8244 76.7545 46.125 75.7636 46.125 74.75C46.125 73.3908 45.5851 72.0872 44.6239 71.1261C43.6628 70.165 42.3592 69.625 41 69.625ZM41 77.3125C40.4932 77.3125 39.9978 77.1622 39.5764 76.8807C39.155 76.5991 38.8265 76.1989 38.6326 75.7306C38.4386 75.2624 38.3879 74.7472 38.4867 74.2501C38.5856 73.753 38.8297 73.2964 39.188 72.938C39.5464 72.5797 40.003 72.3356 40.5001 72.2367C40.9972 72.1379 41.5124 72.1886 41.9806 72.3826C42.4489 72.5765 42.8491 72.905 43.1307 73.3264C43.4122 73.7478 43.5625 74.2432 43.5625 74.75C43.5625 75.4296 43.2925 76.0814 42.812 76.562C42.3314 77.0425 41.6796 77.3125 41 77.3125Z" fill="#F0750F"/>
<path d="M74.3125 36.3125C73.2989 36.3125 72.308 36.6131 71.4652 37.1762C70.6224 37.7394 69.9655 38.5398 69.5776 39.4763C69.1897 40.4127 69.0882 41.4432 69.286 42.4373C69.4837 43.4315 69.9718 44.3447 70.6886 45.0614C71.4053 45.7782 72.3185 46.2663 73.3127 46.464C74.3068 46.6618 75.3373 46.5603 76.2738 46.1724C77.2102 45.7845 78.0107 45.1276 78.5738 44.2848C79.137 43.442 79.4375 42.4511 79.4375 41.4375C79.4375 40.0783 78.8976 38.7747 77.9364 37.8136C76.9753 36.8525 75.6718 36.3125 74.3125 36.3125ZM74.3125 44C73.8057 44 73.3103 43.8497 72.8889 43.5682C72.4675 43.2866 72.139 42.8864 71.9451 42.4181C71.7511 41.9499 71.7004 41.4347 71.7992 40.9376C71.8981 40.4405 72.1422 39.9839 72.5005 39.6255C72.8589 39.2672 73.3155 39.0231 73.8126 38.9242C74.3097 38.8254 74.8249 38.8761 75.2931 39.0701C75.7614 39.264 76.1616 39.5925 76.4432 40.0139C76.7247 40.4353 76.875 40.9307 76.875 41.4375C76.875 42.1171 76.605 42.7689 76.1245 43.2495C75.6439 43.73 74.9921 44 74.3125 44Z" fill="#F0750F"/>
<path d="M47.373 10.9323L48.3701 8.57173L50.5076 9.47454L49.5105 11.8351L47.373 10.9323Z" fill="#F0750F"/>
<path d="M55.875 14.535L56.8693 12.1749L59.0051 13.0747L58.0109 15.4348L55.875 14.535Z" fill="#F0750F"/>
<path d="M51.6045 12.7321L52.5987 10.3721L54.7346 11.2719L53.7403 13.6319L51.6045 12.7321Z" fill="#F0750F"/>
<path d="M68.8271 54.2487L69.7295 52.1124L72.09 53.1094L71.1877 55.2457L68.8271 54.2487Z" fill="#F0750F"/>
<path d="M67.0273 58.5327L67.9302 56.3952L70.2907 57.3922L69.3879 59.5297L67.0273 58.5327Z" fill="#F0750F"/>
<path d="M70.6318 49.9736L71.5342 47.8373L73.8947 48.8343L72.9924 50.9707L70.6318 49.9736Z" fill="#F0750F"/>
<path d="M22.9424 69.8596L23.9394 67.499L26.0769 68.4018L25.0799 70.7624L22.9424 69.8596Z" fill="#F0750F"/>
<path d="M27.1914 71.6057L28.1857 69.2456L30.3215 70.1454L29.3273 72.5055L27.1914 71.6057Z" fill="#F0750F"/>
<path d="M31.4619 73.4098L32.4562 71.0497L34.592 71.9495L33.5978 74.3096L31.4619 73.4098Z" fill="#F0750F"/>
<path d="M9.90527 29.823L10.8076 27.6867L13.1682 28.6837L12.2659 30.82L9.90527 29.823Z" fill="#F0750F"/>
<path d="M11.6992 25.5323L12.599 23.3965L14.9591 24.3907L14.0593 26.5266L11.6992 25.5323Z" fill="#F0750F"/>
<path d="M8.10156 34.0992L9.00437 31.9617L11.365 32.9588L10.4621 35.0963L8.10156 34.0992Z" fill="#F0750F"/>
<path d="M11.6836 57.3179L14.0437 56.3236L14.9435 58.4595L12.5834 59.4537L11.6836 57.3179Z" fill="#F0750F"/>
<path d="M8.12207 48.7682L10.4826 47.7712L11.3855 49.9087L9.02488 50.9057L8.12207 48.7682Z" fill="#F0750F"/>
<path d="M9.92676 53.0411L12.2873 52.0441L13.1896 54.1804L10.8291 55.1774L9.92676 53.0411Z" fill="#F0750F"/>
<path d="M55.9072 68.3168L58.0436 67.4145L59.0406 69.7751L56.9043 70.6774L55.9072 68.3168Z" fill="#F0750F"/>
<path d="M47.3604 71.9242L49.4979 71.0214L50.4949 73.382L48.3574 74.2848L47.3604 71.9242Z" fill="#F0750F"/>
<path d="M51.6338 70.1203L53.7701 69.218L54.7671 71.5786L52.6308 72.4809L51.6338 70.1203Z" fill="#F0750F"/>
<path d="M70.6094 32.9082L72.97 31.9112L73.8723 34.0475L71.5117 35.0445L70.6094 32.9082Z" fill="#F0750F"/>
<path d="M68.8076 28.6358L71.1682 27.6388L72.0705 29.7751L69.7099 30.7721L68.8076 28.6358Z" fill="#F0750F"/>
<path d="M67.0039 24.3628L69.3645 23.3658L70.2673 25.5033L67.9067 26.5003L67.0039 24.3628Z" fill="#F0750F"/>
<path d="M22.9561 13.0406L25.0924 12.1383L26.0894 14.4989L23.9531 15.4012L22.9561 13.0406Z" fill="#F0750F"/>
<path d="M31.501 9.43689L33.6373 8.53458L34.6343 10.8952L32.498 11.7975L31.501 9.43689Z" fill="#F0750F"/>
<path d="M27.2295 11.2391L29.3658 10.3368L30.3629 12.6974L28.2265 13.5997L27.2295 11.2391Z" fill="#F0750F"/>
<path d="M16.6562 22.2188C17.6699 22.2188 18.6607 21.9182 19.5035 21.355C20.3463 20.7919 21.0032 19.9915 21.3911 19.055C21.779 18.1185 21.8805 17.0881 21.6828 16.0939C21.485 15.0998 20.9969 14.1866 20.2802 13.4698C19.5634 12.7531 18.6502 12.265 17.6561 12.0672C16.6619 11.8695 15.6315 11.971 14.695 12.3589C13.7585 12.7468 12.9581 13.4037 12.395 14.2465C11.8318 15.0893 11.5312 16.0801 11.5312 17.0938C11.5313 18.453 12.0712 19.7566 13.0323 20.7177C13.9935 21.6788 15.297 22.2188 16.6562 22.2188ZM16.6562 14.5313C17.1631 14.5313 17.6585 14.6815 18.0799 14.9631C18.5013 15.2447 18.8297 15.6449 19.0237 16.1131C19.2176 16.5814 19.2684 17.0966 19.1695 17.5937C19.0706 18.0907 18.8266 18.5473 18.4682 18.9057C18.1098 19.2641 17.6532 19.5081 17.1562 19.607C16.6591 19.7059 16.1439 19.6551 15.6756 19.4612C15.2074 19.2672 14.8072 18.9388 14.5256 18.5174C14.244 18.096 14.0937 17.6006 14.0937 17.0938C14.0937 16.4141 14.3637 15.7624 14.8443 15.2818C15.3249 14.8012 15.9766 14.5313 16.6562 14.5313Z" fill="#F0750F"/>
<path d="M16.6563 60.6562C15.6426 60.6562 14.6518 60.9568 13.809 61.52C12.9662 62.0831 12.3093 62.8835 11.9214 63.82C11.5335 64.7565 11.432 65.7869 11.6297 66.7811C11.8275 67.7753 12.3156 68.6884 13.0323 69.4052C13.7491 70.1219 14.6623 70.6101 15.6564 70.8078C16.6506 71.0056 17.681 70.9041 18.6175 70.5162C19.554 70.1283 20.3544 69.4714 20.9175 68.6286C21.4807 67.7858 21.7813 66.7949 21.7813 65.7813C21.7813 64.422 21.2413 63.1185 20.2802 62.1573C19.3191 61.1962 18.0155 60.6562 16.6563 60.6562ZM16.6563 68.3438C16.1494 68.3438 15.654 68.1935 15.2326 67.9119C14.8112 67.6303 14.4828 67.2301 14.2888 66.7619C14.0949 66.2937 14.0441 65.7784 14.143 65.2813C14.2419 64.7843 14.4859 64.3277 14.8443 63.9693C15.2027 63.6109 15.6593 63.3669 16.1563 63.268C16.6534 63.1691 17.1686 63.2199 17.6369 63.4138C18.1051 63.6078 18.5053 63.9362 18.7869 64.3576C19.0685 64.779 19.2188 65.2744 19.2188 65.7813C19.2188 66.4609 18.9488 67.1127 18.4682 67.5932C17.9877 68.0738 17.3359 68.3438 16.6563 68.3438Z" fill="#F0750F"/>
<path d="M65.3438 22.2188C66.3574 22.2188 67.3483 21.9182 68.1911 21.355C69.0339 20.7919 69.6908 19.9915 70.0787 19.055C70.4666 18.1185 70.5681 17.0881 70.3703 16.0939C70.1726 15.0998 69.6844 14.1866 68.9677 13.4698C68.2509 12.7531 67.3378 12.265 66.3436 12.0672C65.3494 11.8695 64.319 11.971 63.3825 12.3589C62.446 12.7468 61.6456 13.4037 61.0825 14.2465C60.5193 15.0893 60.2188 16.0801 60.2188 17.0938C60.2188 18.453 60.7587 19.7566 61.7198 20.7177C62.681 21.6788 63.9845 22.2188 65.3438 22.2188ZM65.3438 14.5313C65.8506 14.5313 66.346 14.6815 66.7674 14.9631C67.1888 15.2447 67.5173 15.6449 67.7112 16.1131C67.9052 16.5814 67.9559 17.0966 67.857 17.5937C67.7582 18.0907 67.5141 18.5473 67.1557 18.9057C66.7974 19.2641 66.3408 19.5081 65.8437 19.607C65.3466 19.7059 64.8314 19.6551 64.3631 19.4612C63.8949 19.2672 63.4947 18.9388 63.2131 18.5174C62.9315 18.096 62.7813 17.6006 62.7813 17.0938C62.7813 16.4141 63.0512 15.7624 63.5318 15.2818C64.0124 14.8012 64.6641 14.5313 65.3438 14.5313Z" fill="#F0750F"/>
<path d="M65.3438 60.6562C64.3301 60.6562 63.3393 60.9568 62.4965 61.52C61.6537 62.0831 60.9968 62.8835 60.6089 63.82C60.221 64.7565 60.1195 65.7869 60.3172 66.7811C60.515 67.7753 61.0031 68.6884 61.7198 69.4052C62.4366 70.1219 63.3498 70.6101 64.3439 70.8078C65.3381 71.0056 66.3685 70.9041 67.305 70.5162C68.2415 70.1283 69.0419 69.4714 69.6051 68.6286C70.1682 67.7858 70.4688 66.7949 70.4688 65.7813C70.4688 64.422 69.9288 63.1185 68.9677 62.1573C68.0066 61.1962 66.703 60.6562 65.3438 60.6562ZM65.3438 68.3438C64.8369 68.3438 64.3415 68.1935 63.9201 67.9119C63.4987 67.6303 63.1703 67.2301 62.9763 66.7619C62.7824 66.2937 62.7316 65.7784 62.8305 65.2813C62.9294 64.7843 63.1734 64.3277 63.5318 63.9693C63.8902 63.6109 64.3468 63.3669 64.8438 63.268C65.3409 63.1691 65.8562 63.2199 66.3244 63.4138C66.7926 63.6078 67.1928 63.9362 67.4744 64.3576C67.756 64.779 67.9063 65.2744 67.9063 65.7813C67.9063 66.4609 67.6363 67.1127 67.1557 67.5932C66.6752 68.0738 66.0234 68.3438 65.3438 68.3438Z" fill="#F0750F"/>
<path d="M26.945 38.4778C26.8613 38.221 26.6984 37.9971 26.4798 37.8383C26.2612 37.6796 25.998 37.594 25.7278 37.5938H23.6394L22.9988 35.6206C22.9179 35.361 22.7562 35.1341 22.5372 34.9729C22.3182 34.8118 22.0535 34.7249 21.7816 34.7249C21.5097 34.7249 21.2449 34.8118 21.0259 34.9729C20.807 35.1341 20.6452 35.361 20.5644 35.6206L19.9238 37.5938H17.8353C17.5652 37.594 17.3019 37.6796 17.0833 37.8383C16.8647 37.9971 16.7019 38.221 16.6182 38.4778C16.5359 38.7353 16.5361 39.0119 16.6188 39.2692C16.7015 39.5265 16.8626 39.7515 17.0794 39.9128L18.7707 41.13L18.13 43.1159C18.0454 43.3732 18.0444 43.6506 18.1273 43.9084C18.2102 44.1663 18.3726 44.3912 18.5913 44.5509C18.8124 44.7073 19.0765 44.7912 19.3472 44.7912C19.618 44.7912 19.8821 44.7073 20.1032 44.5509L21.7816 43.3209L23.46 44.5509C23.683 44.7038 23.9457 44.7884 24.216 44.7944C24.4866 44.7903 24.7498 44.7055 24.9719 44.5509C25.1906 44.3912 25.353 44.1663 25.4359 43.9084C25.5187 43.6506 25.5178 43.3732 25.4331 43.1159L24.7925 41.13L26.4838 39.9128C26.7006 39.7515 26.8616 39.5265 26.9443 39.2692C27.027 39.0119 27.0273 38.7353 26.945 38.4778ZM22.0122 40.4766C21.8589 40.4595 21.7042 40.4595 21.551 40.4766C21.525 40.3196 21.473 40.168 21.3972 40.0281C21.5424 39.9657 21.6733 39.8742 21.7816 39.7591C21.8899 39.8742 22.0208 39.9657 22.166 40.0281C22.0902 40.168 22.0382 40.3196 22.0122 40.4766Z" fill="#F0750F"/>
<path d="M65.3825 38.4778C65.2988 38.221 65.1359 37.9971 64.9173 37.8383C64.6987 37.6796 64.4355 37.594 64.1653 37.5938H62.0769L61.4363 35.6206C61.3554 35.361 61.1937 35.1341 60.9747 34.9729C60.7557 34.8118 60.491 34.7249 60.2191 34.7249C59.9472 34.7249 59.6824 34.8118 59.4634 34.9729C59.2445 35.1341 59.0827 35.361 59.0019 35.6206L58.3613 37.5938H56.2728C56.0026 37.594 55.7394 37.6796 55.5208 37.8383C55.3022 37.9971 55.1394 38.221 55.0557 38.4778C54.9734 38.7353 54.9736 39.0119 55.0563 39.2692C55.139 39.5265 55.3001 39.7515 55.5169 39.9128L57.2082 41.13L56.5675 43.1159C56.4829 43.3732 56.4819 43.6506 56.5648 43.9084C56.6477 44.1663 56.8101 44.3912 57.0288 44.5509C57.2499 44.7073 57.514 44.7912 57.7847 44.7912C58.0555 44.7912 58.3196 44.7073 58.5406 44.5509L60.2191 43.3209L61.8975 44.5509C62.1205 44.7038 62.3832 44.7884 62.6535 44.7944C62.9241 44.7903 63.1873 44.7055 63.4094 44.5509C63.6281 44.3912 63.7905 44.1663 63.8734 43.9084C63.9562 43.6506 63.9553 43.3732 63.8706 43.1159L63.23 41.13L64.9213 39.9128C65.1381 39.7515 65.2991 39.5265 65.3818 39.2692C65.4645 39.0119 65.4648 38.7353 65.3825 38.4778ZM60.4497 40.4766C60.2964 40.4595 60.1417 40.4595 59.9885 40.4766C59.9625 40.3196 59.9105 40.168 59.8347 40.0281C59.9799 39.9657 60.1108 39.8742 60.2191 39.7591C60.3274 39.8742 60.4582 39.9657 60.6035 40.0281C60.5277 40.168 60.4757 40.3196 60.4497 40.4766Z" fill="#F0750F"/>
</svg>
