<svg width="90" height="90" viewBox="0 0 90 90" fill="none" xmlns="http://www.w3.org/2000/svg">
<path d="M56.1253 20.7394C55.9631 20.2372 55.6456 19.7994 55.2186 19.4892C54.7917 19.179 54.2772 19.0124 53.7494 19.0134H48.8803L47.3756 14.3825C47.2125 13.8808 46.8948 13.4436 46.468 13.1335C46.0413 12.8235 45.5273 12.6565 44.9997 12.6565C44.4722 12.6565 43.9582 12.8235 43.5314 13.1335C43.1046 13.4436 42.7869 13.8808 42.6239 14.3825L41.1192 19.0134H36.25C35.7225 19.0135 35.2085 19.1805 34.7817 19.4906C34.3549 19.8007 34.0373 20.2379 33.8742 20.7396C33.7112 21.2413 33.7112 21.7818 33.8742 22.2835C34.0372 22.7852 34.3548 23.2225 34.7816 23.5326L38.7208 26.3945L37.2161 31.0254C37.0524 31.5273 37.052 32.0681 37.2148 32.5702C37.3777 33.0723 37.6954 33.5099 38.1225 33.8201C38.5495 34.1304 39.0639 34.2973 39.5918 34.297C40.1196 34.2967 40.6338 34.1291 41.0605 33.8183L44.9997 30.9564L48.939 33.8184C49.3658 34.1285 49.8798 34.2955 50.4074 34.2955C50.9349 34.2955 51.4489 34.1285 51.8757 33.8184C52.3025 33.5083 52.6202 33.0711 52.7833 32.5694C52.9463 32.0676 52.9463 31.5272 52.7833 31.0254L51.2786 26.3945L55.2179 23.5324C55.6455 23.223 55.9637 22.7858 56.1268 22.2838C56.2899 21.7818 56.2893 21.2411 56.1253 20.7394ZM48.7989 24.7196C48.5586 24.8942 48.3798 25.1404 48.288 25.4228C48.1963 25.7053 48.1963 26.0096 48.2881 26.292L49.8095 30.9745L45.8259 28.0806C45.5857 27.9062 45.2965 27.8123 44.9997 27.8123C44.7029 27.8123 44.4137 27.9062 44.1736 28.0806L40.1904 30.9745L41.7117 26.292C41.8035 26.0096 41.8036 25.7053 41.7118 25.4228C41.62 25.1404 41.4412 24.8942 41.2009 24.7196L37.2181 21.8259H42.1412C42.4382 21.826 42.7275 21.7319 42.9678 21.5574C43.2081 21.3828 43.3869 21.1367 43.4787 20.8542L44.9997 16.1719L46.5211 20.8544C46.6129 21.1369 46.7917 21.383 47.032 21.5576C47.2723 21.7321 47.5617 21.8261 47.8586 21.8261H52.7817L48.7989 24.7196Z" fill="#F0750F"/>
<path d="M27.551 40.7787C27.9094 40.7783 28.2626 40.6931 28.5819 40.5302C28.9012 40.3672 29.1774 40.1311 29.388 39.8411C29.5986 39.551 29.7376 39.2153 29.7937 38.8613C29.8499 38.5073 29.8215 38.145 29.711 37.8041L28.5846 34.3377L31.5335 32.1953C31.9215 31.9133 32.2103 31.5158 32.3585 31.0596C32.5067 30.6035 32.5067 30.1121 32.3585 29.6559C32.2102 29.1998 31.9214 28.8022 31.5334 28.5203C31.1454 28.2384 30.678 28.0866 30.1984 28.0865H26.5536L25.4272 24.6201C25.2789 24.164 24.9901 23.7665 24.6021 23.4845C24.214 23.2026 23.7467 23.0508 23.2671 23.0508C22.7875 23.0508 22.3201 23.2026 21.9321 23.4845C21.5441 23.7665 21.2552 24.164 21.107 24.6201L19.9806 28.0867H16.3356C15.8559 28.0865 15.3884 28.2383 15.0003 28.5201C14.6121 28.802 14.3231 29.1995 14.1748 29.6557C14.0265 30.1119 14.0264 30.6033 14.1746 31.0596C14.3227 31.5158 14.6116 31.9134 14.9997 32.1954L17.9486 34.3379L16.8225 37.8043C16.6743 38.2604 16.6743 38.7518 16.8225 39.2079C16.9707 39.664 17.2595 40.0616 17.6475 40.3435C18.0355 40.6254 18.5028 40.7773 18.9824 40.7774C19.462 40.7774 19.9293 40.6256 20.3174 40.3438L23.2663 38.2012L26.2152 40.3438C26.6032 40.6264 27.0709 40.7786 27.551 40.7787ZM22.4403 35.3252L20.0128 37.0899L20.9402 34.2359C21.032 33.9534 21.032 33.6491 20.9402 33.3666C20.8484 33.0841 20.6695 32.8379 20.4292 32.6634L18.0016 30.8997H21.0024C21.2993 30.8997 21.5887 30.8057 21.8289 30.6312C22.0691 30.4567 22.248 30.2106 22.3398 29.9282L23.267 27.0742L24.1944 29.9282C24.2862 30.2106 24.465 30.4567 24.7053 30.6312C24.9455 30.8057 25.2348 30.8997 25.5318 30.8997H28.5323L26.1048 32.6635C25.8645 32.8381 25.6857 33.0843 25.5939 33.3667C25.5022 33.6492 25.5022 33.9535 25.594 34.2359L26.5212 37.0899L24.0935 35.3259C23.8533 35.1513 23.5641 35.0572 23.2671 35.057C22.9702 35.0569 22.6808 35.1508 22.4405 35.3252H22.4403Z" fill="#F0750F"/>
<path d="M18.8206 46.3679H15.1756L14.0492 42.9015C13.901 42.4453 13.6122 42.0478 13.2242 41.7658C12.8361 41.4839 12.3688 41.332 11.8892 41.332C11.4095 41.332 10.9422 41.4839 10.5542 41.7658C10.1661 42.0478 9.87734 42.4453 9.72917 42.9015L8.60258 46.3681H4.95776C4.47812 46.3681 4.0108 46.5199 3.62277 46.8019C3.23474 47.0838 2.94592 47.4813 2.7977 47.9375C2.64948 48.3936 2.64947 48.885 2.79767 49.3412C2.94587 49.7973 3.23468 50.1949 3.6227 50.4768L6.57161 52.6192L5.4452 56.0858C5.29695 56.542 5.29692 57.0334 5.44512 57.4896C5.59332 57.9457 5.88213 58.3433 6.27017 58.6252C6.65821 58.9072 7.12555 59.0591 7.6052 59.0591C8.08486 59.0591 8.55221 58.9072 8.94026 58.6253L11.8892 56.4827L14.8381 58.6253C15.2261 58.9075 15.6936 59.0596 16.1734 59.0597C16.6533 59.0598 17.1208 58.9079 17.509 58.6259C17.8972 58.3438 18.1861 57.9461 18.3342 57.4897C18.4824 57.0333 18.4822 56.5417 18.3337 56.0855L17.2074 52.619L20.1563 50.4766C20.5444 50.1946 20.8333 49.797 20.9814 49.3408C21.1296 48.8845 21.1295 48.3931 20.9812 47.9369C20.8329 47.4807 20.5439 47.0832 20.1557 46.8013C19.7676 46.5194 19.3001 46.3677 18.8204 46.3679H18.8206ZM14.727 50.944C14.4866 51.1186 14.3077 51.3648 14.2159 51.6473C14.1241 51.9298 14.1242 52.2341 14.216 52.5166L15.1434 55.3713L12.7157 53.6066C12.4755 53.4322 12.1863 53.3383 11.8895 53.3383C11.5927 53.3383 11.3035 53.4322 11.0633 53.6066L8.63493 55.3713L9.56217 52.5166C9.65398 52.2341 9.654 51.9299 9.56223 51.6474C9.47047 51.3649 9.29163 51.1188 9.05135 50.9442L6.62381 49.1804H9.6244C9.92134 49.1804 10.2107 49.0864 10.4509 48.9119C10.6911 48.7374 10.87 48.4913 10.9617 48.2089L11.8892 45.3549L12.8164 48.2089C12.9082 48.4913 13.087 48.7374 13.3273 48.9119C13.5675 49.0864 13.8568 49.1804 14.1538 49.1804H17.1545L14.727 50.944Z" fill="#F0750F"/>
<path d="M84.9142 46.3679H81.2692L80.1428 42.9015C79.9946 42.4453 79.7058 42.0478 79.3178 41.7658C78.9298 41.4839 78.4625 41.332 77.9828 41.332C77.5032 41.332 77.0359 41.4839 76.6478 41.7658C76.2598 42.0478 75.971 42.4453 75.8228 42.9015L74.6962 46.3681H71.0514C70.5717 46.3679 70.1043 46.5196 69.7161 46.8015C69.3279 47.0833 69.0389 47.4809 68.8906 47.9371C68.7423 48.3933 68.7422 48.8847 68.8904 49.341C69.0386 49.7972 69.3274 50.1948 69.7155 50.4768L72.6644 52.6192L71.538 56.0858C71.3897 56.542 71.3897 57.0334 71.5379 57.4896C71.6861 57.9457 71.9749 58.3433 72.3629 58.6253C72.751 58.9072 73.2183 59.0591 73.698 59.0591C74.1776 59.0591 74.645 58.9072 75.033 58.6253L77.9819 56.4827L80.9309 58.6253C81.3189 58.9079 81.7865 59.0602 82.2665 59.0605C82.7466 59.0608 83.2143 58.909 83.6027 58.6269C83.9911 58.3447 84.2801 57.9468 84.4282 57.4902C84.5764 57.0337 84.5761 56.5419 84.4273 56.0855L83.3011 52.619L86.25 50.4766C86.6381 50.1946 86.9269 49.797 87.0751 49.3408C87.2233 48.8845 87.2232 48.3931 87.0749 47.9369C86.9265 47.4807 86.6376 47.0832 86.2494 46.8013C85.8612 46.5194 85.3938 46.3677 84.9141 46.3679H84.9142ZM80.8206 50.944C80.5803 51.1186 80.4014 51.3648 80.3096 51.6473C80.2178 51.9298 80.2178 52.2341 80.3096 52.5166L81.2371 55.3713L78.8093 53.6066C78.5692 53.4322 78.28 53.3383 77.9832 53.3383C77.6864 53.3383 77.3972 53.4322 77.157 53.6066L74.7286 55.3713L75.6558 52.5166C75.7476 52.2341 75.7477 51.9299 75.6559 51.6474C75.5641 51.3649 75.3853 51.1188 75.145 50.9442L72.7175 49.1804H75.7181C76.015 49.1804 76.3043 49.0864 76.5445 48.9119C76.7848 48.7374 76.9636 48.4913 77.0554 48.2089L77.9828 45.3549L78.9101 48.2089C79.0019 48.4913 79.1807 48.7374 79.4209 48.9119C79.6612 49.0864 79.9505 49.1804 80.2474 49.1804H83.2482L80.8206 50.944Z" fill="#F0750F"/>
<path d="M71.0166 40.7788C71.3751 40.7785 71.7285 40.6935 72.0478 40.5306C72.3672 40.3677 72.6435 40.1316 72.8542 39.8415C73.0649 39.5515 73.204 39.2157 73.2602 38.8616C73.3163 38.5076 73.2879 38.1452 73.1773 37.8042L72.0511 34.3378L75 32.1954C75.3881 31.9134 75.6769 31.5158 75.8251 31.0595C75.9733 30.6033 75.9732 30.1118 75.8249 29.6556C75.6765 29.1994 75.3876 28.8019 74.9994 28.5201C74.6112 28.2382 74.1438 28.0865 73.664 28.0867H70.0192L68.8928 24.6203C68.7446 24.1641 68.4558 23.7665 68.0678 23.4846C67.6798 23.2026 67.2125 23.0508 66.7328 23.0508C66.2532 23.0508 65.7858 23.2026 65.3978 23.4846C65.0098 23.7665 64.721 24.1641 64.5728 24.6203L63.4462 28.0868H59.8014C59.3217 28.0867 58.8543 28.2384 58.4661 28.5202C58.0779 28.8021 57.7889 29.1996 57.6406 29.6558C57.4923 30.112 57.4922 30.6035 57.6404 31.0597C57.7886 31.516 58.0774 31.9136 58.4655 32.1955L61.4144 34.338L60.288 37.8046C60.1397 38.2607 60.1397 38.7521 60.2879 39.2083C60.4361 39.6645 60.7249 40.062 61.1129 40.344C61.501 40.6259 61.9683 40.7778 62.448 40.7778C62.9276 40.7778 63.395 40.626 63.783 40.3441L66.7319 38.2015L69.6808 40.3441C70.0689 40.6266 70.5366 40.7788 71.0166 40.7788ZM65.9061 35.3253L63.4786 37.09L64.4058 34.2353C64.4976 33.9529 64.4976 33.6486 64.4059 33.3661C64.3141 33.0837 64.1353 32.8375 63.895 32.663L61.4675 30.8992H64.4681C64.765 30.8992 65.0543 30.8052 65.2945 30.6306C65.5348 30.4561 65.7136 30.21 65.8054 29.9276L66.7328 27.0736L67.6601 29.9276C67.7519 30.21 67.9307 30.4561 68.1709 30.6306C68.4112 30.8052 68.7005 30.8992 68.9974 30.8992H71.9982L69.5706 32.6628C69.3303 32.8373 69.1514 33.0835 69.0596 33.366C68.9678 33.6485 68.9678 33.9528 69.0596 34.2353L69.9871 37.09L67.5593 35.3253C67.3191 35.1508 67.0298 35.0568 66.7328 35.0568C66.4359 35.0568 66.1465 35.1508 65.9063 35.3253H65.9061Z" fill="#F0750F"/>
<path d="M61.875 53.5605H52.0313V46.5293C52.0295 45.038 51.4363 43.6082 50.3818 42.5537C49.3273 41.4992 47.8976 40.906 46.4063 40.9043H43.5938C43.2553 40.9043 42.9282 41.0264 42.6725 41.2482C42.4168 41.4699 42.2496 41.7765 42.2017 42.1116L41.6848 45.7298C41.4492 47.3728 40.831 48.9374 39.8799 50.2975C38.9288 51.6577 37.6714 52.7754 36.2092 53.5605H25.3125C24.9395 53.5605 24.5819 53.7087 24.3181 53.9724C24.0544 54.2362 23.9062 54.5938 23.9062 54.9668V74.6543C23.9062 75.0273 24.0544 75.3849 24.3181 75.6487C24.5819 75.9124 24.9395 76.0605 25.3125 76.0605H36.1368L37.0573 76.6744C39.2068 78.1103 41.7344 78.8756 44.3194 78.873H60.4688C61.2833 78.8735 62.0806 78.6379 62.7642 78.1949C63.4477 77.7519 63.9884 77.1204 64.3207 76.3767C64.653 75.633 64.7628 74.8089 64.6368 74.0042C64.5108 73.1994 64.1544 72.4483 63.6107 71.8418C64.304 71.0691 64.6875 70.0675 64.6875 69.0293C64.6875 67.9911 64.304 66.9895 63.6107 66.2168C64.199 65.561 64.5669 64.7373 64.6626 63.8615C64.7583 62.9857 64.5769 62.102 64.144 61.3346C64.9129 60.8435 65.5018 60.1164 65.8225 59.2623C66.1432 58.4082 66.1784 57.4731 65.9228 56.5973C65.6672 55.7215 65.1345 54.9522 64.4048 54.4047C63.675 53.8572 62.7873 53.561 61.875 53.5605ZM26.7188 56.373H35.1563V73.248H26.7188V56.373ZM61.875 59.1855H60.4688C60.0958 59.1855 59.7381 59.3337 59.4744 59.5974C59.2107 59.8611 59.0625 60.2188 59.0625 60.5918C59.0625 60.9648 59.2107 61.3224 59.4744 61.5862C59.7381 61.8499 60.0958 61.998 60.4688 61.998C60.8417 61.998 61.1994 62.1462 61.4631 62.4099C61.7268 62.6736 61.875 63.0313 61.875 63.4043C61.875 63.7773 61.7268 64.1349 61.4631 64.3987C61.1994 64.6624 60.8417 64.8105 60.4688 64.8105C60.0958 64.8105 59.7381 64.9587 59.4744 65.2224C59.2107 65.4861 59.0625 65.8438 59.0625 66.2168C59.0625 66.5898 59.2107 66.9474 59.4744 67.2112C59.7381 67.4749 60.0958 67.623 60.4688 67.623C60.8417 67.623 61.1994 67.7712 61.4631 68.0349C61.7268 68.2986 61.875 68.6563 61.875 69.0293C61.875 69.4023 61.7268 69.7599 61.4631 70.0237C61.1994 70.2874 60.8417 70.4355 60.4688 70.4355C60.0958 70.4355 59.7381 70.5837 59.4744 70.8474C59.2107 71.1111 59.0625 71.4688 59.0625 71.8418C59.0625 72.2148 59.2107 72.5724 59.4744 72.8362C59.7381 73.0999 60.0958 73.248 60.4688 73.248C60.8417 73.248 61.1994 73.3962 61.4631 73.6599C61.7268 73.9236 61.875 74.2813 61.875 74.6543C61.875 75.0273 61.7268 75.3849 61.4631 75.6487C61.1994 75.9124 60.8417 76.0605 60.4688 76.0605H44.3194C42.2897 76.0624 40.3052 75.4616 38.6174 74.3342L37.9688 73.9018V55.8025C39.7105 54.7828 41.1996 53.3831 42.3251 51.7078C43.4506 50.0325 44.1834 48.1247 44.469 46.1268L44.8133 43.7159H46.4063C47.1519 43.7168 47.8668 44.0134 48.394 44.5407C48.9213 45.0679 49.2179 45.7828 49.2188 46.5284V54.9659C49.2188 55.3389 49.3669 55.6966 49.6306 55.9603C49.8944 56.224 50.252 56.3722 50.625 56.3722H61.875C62.248 56.3722 62.6057 56.5203 62.8694 56.784C63.1331 57.0478 63.2813 57.4055 63.2813 57.7784C63.2813 58.1514 63.1331 58.5091 62.8694 58.7728C62.6057 59.0365 62.248 59.1847 61.875 59.1847V59.1855Z" fill="#F0750F"/>
</svg>
