<svg width="126" height="83" viewBox="0 0 126 83" fill="none" xmlns="http://www.w3.org/2000/svg">
<path d="M53.9031 43H28.0966C27.0295 43 26.1611 43.8684 26.1611 44.9355V80.4194H27.5927L28.2379 83H53.7618L54.4069 80.4194H55.8386V44.9355C55.8386 43.8684 54.9702 43 53.9031 43ZM27.4515 79.129V46.871H40.3547V79.129H27.4515ZM52.754 81.7097H29.2456L28.9231 80.4194H53.0766L52.754 81.7097ZM54.5482 79.129H41.645V73.9677H54.5482V79.129ZM54.5482 72.6774H41.645V46.871H54.5482V72.6774ZM54.5482 45.5806H27.4515V44.9355C27.4515 44.58 27.7411 44.2903 28.0966 44.2903H53.9031C54.2586 44.2903 54.5482 44.58 54.5482 44.9355V45.5806Z" fill="#F0750F"/>
<path d="M28.7422 48.1613V77.8387H39.0648V48.1613H28.7422ZM37.7744 76.5484H30.0325V49.4516H37.7744V76.5484Z" fill="#F0750F"/>
<path d="M50.6779 75.2581H45.5166V76.5484H50.6779V75.2581Z" fill="#F0750F"/>
<path d="M42.9355 48.1613V71.3871H53.2581V48.1613H42.9355ZM44.2259 57.8387H44.871C45.2265 57.8387 45.5162 58.1284 45.5162 58.4839V61.0645C45.5162 61.42 45.2265 61.7097 44.871 61.7097H44.2259V57.8387ZM51.9678 70.0968H44.2259V63H44.871C45.9381 63 46.8065 62.1316 46.8065 61.0645V58.4839C46.8065 57.4168 45.9381 56.5484 44.871 56.5484H44.2259V49.4516H51.9678V70.0968Z" fill="#F0750F"/>
<path d="M34.1763 54.718L30.8662 58.0281L31.7786 58.9405L35.0887 55.6304L34.1763 54.718Z" fill="#F0750F"/>
<path d="M36.0256 52.8678L35.0703 53.8231L35.9827 54.7354L36.938 53.7802L36.0256 52.8678Z" fill="#F0750F"/>
<path d="M36.0285 58.6727L30.8672 63.834L31.7796 64.7464L36.9409 59.5851L36.0285 58.6727Z" fill="#F0750F"/>
<path d="M36.0275 64.4778L30.8662 69.6392L31.7786 70.5516L36.9399 65.3902L36.0275 64.4778Z" fill="#F0750F"/>
<g clip-path="url(#clip0)">
<path d="M94.0897 57.0123H92.1666V55.0853L94.0808 52.6379C94.2107 52.4718 94.2345 52.2462 94.1421 52.0567C94.0498 51.8672 93.8574 51.7469 93.6465 51.7469H89.584C89.3732 51.7469 89.1808 51.8672 89.0884 52.0567C88.996 52.2462 89.0198 52.4718 89.1497 52.6379L91.0639 55.0853V57.0123H87.1299C86.8254 57.0123 86.5785 57.2591 86.5785 57.5637C86.5785 57.8683 86.8254 58.1151 87.1299 58.1151H94.0897C94.5032 58.1151 94.8396 58.4515 94.8396 58.865C94.8396 59.2785 94.5032 59.6149 94.0897 59.6149H88.3844H85.5424H79.837C79.4235 59.6149 79.0871 59.2785 79.0871 58.865C79.0871 58.4515 79.4235 58.1151 79.837 58.1151H84.5682C84.8727 58.1151 85.1195 57.8683 85.1195 57.5637C85.1195 57.2591 84.8727 57.0123 84.5682 57.0123H82.9363V55.0853L84.8505 52.6379C84.9804 52.4718 85.0042 52.2462 84.9118 52.0567C84.8195 51.8672 84.627 51.7469 84.4161 51.7469H80.3537C80.1428 51.7469 79.9505 51.8672 79.8581 52.0567C79.7657 52.2462 79.7894 52.4718 79.9194 52.6379L81.8336 55.0853V57.0123H79.837C78.8155 57.0123 77.9844 57.8434 77.9844 58.8649C77.9844 59.8864 78.8155 60.7175 79.837 60.7175H84.9909V74.7715H84.764C83.1482 74.7715 81.8335 76.086 81.8335 77.702C81.8335 78.0066 82.0804 78.2534 82.3849 78.2534H91.5416C91.8461 78.2534 92.093 78.0066 92.093 77.702C92.093 76.0861 90.7784 74.7715 89.1624 74.7715H88.9355V60.7174H94.0896C95.1111 60.7174 95.9422 59.8863 95.9422 58.8648C95.9422 57.8433 95.1112 57.0123 94.0897 57.0123ZM90.7152 52.8496H92.5152L91.6152 54.0004L90.7152 52.8496ZM81.485 52.8496H83.285L82.385 54.0004L81.485 52.8496ZM86.0937 60.7174H87.8329V74.7714H86.0937V60.7174ZM89.1626 75.8741C89.9784 75.8741 90.6711 76.4113 90.9054 77.1505H83.0213C83.2556 76.4112 83.9483 75.8741 84.7641 75.8741H85.5423H88.3843H89.1626Z" fill="#F0750F"/>
<path d="M78.0798 75.2878V64.8079H79.4613C80.4747 64.8079 81.2992 63.9834 81.2992 62.97C81.2992 61.9565 80.4747 61.1321 79.4613 61.1321H78.307C78.0025 61.1321 77.7556 61.3789 77.7556 61.6834C77.7556 61.988 78.0025 62.2348 78.307 62.2348H79.4613C79.8666 62.2348 80.1964 62.5646 80.1964 62.97C80.1964 63.3754 79.8666 63.7052 79.4613 63.7052H77.5285H75.4923H74.3501C73.4511 63.7052 72.6393 63.1722 72.2822 62.3471L70.1632 57.4533C70.0021 57.0814 70.1738 56.6477 70.5457 56.4866C70.7259 56.4085 70.9256 56.4054 71.1083 56.4776C71.2909 56.5499 71.4344 56.6889 71.5125 56.8692L73.6315 61.7629C73.7556 62.0496 74.0377 62.2348 74.3501 62.2348H75.7389C76.0434 62.2348 76.2903 61.988 76.2903 61.6834C76.2903 61.3788 76.0434 61.132 75.7389 61.132H74.56L72.5244 56.4307C72.3293 55.9803 71.9705 55.6327 71.5141 55.4521C71.0576 55.2715 70.5581 55.2795 70.1076 55.4745C69.1777 55.8772 68.7486 56.9613 69.1513 57.8913L71.2703 62.7851C71.8023 64.0137 73.0112 64.8077 74.3501 64.8077H74.941V75.2877C73.1955 75.3232 72.1158 76.2409 72.1158 77.7018C72.1158 78.0064 72.3627 78.2532 72.6672 78.2532H80.3536C80.6581 78.2532 80.905 78.0064 80.905 77.7018C80.9049 76.241 79.8253 75.3234 78.0798 75.2878ZM76.0437 64.8079H76.977V75.2861H76.0437V64.8079ZM73.3293 77.1506C73.5188 76.7367 73.9917 76.3888 75.0462 76.3888H75.4923H77.5285H77.9745C79.0289 76.3888 79.5019 76.7367 79.6913 77.1506H73.3293Z" fill="#F0750F"/>
<path d="M103.893 55.4744C103.442 55.2792 102.943 55.2713 102.486 55.4519C102.03 55.6326 101.671 55.9802 101.476 56.4305L100.973 57.5919C100.852 57.8714 100.981 58.196 101.26 58.317C101.54 58.438 101.864 58.3094 101.985 58.0301L102.488 56.8687C102.566 56.6885 102.71 56.5494 102.892 56.4772C103.075 56.405 103.275 56.4081 103.455 56.4862C103.827 56.6472 103.998 57.0809 103.837 57.4529L101.718 62.3467C101.361 63.1718 100.549 63.7048 99.6504 63.7048H98.5081H96.472H94.5391C94.1338 63.7048 93.804 63.375 93.804 62.9696C93.804 62.5643 94.1338 62.2345 94.5391 62.2345H99.6503C99.9628 62.2345 100.245 62.0492 100.369 61.7626L100.991 60.3256C101.112 60.0462 100.984 59.7216 100.704 59.6006C100.425 59.4796 100.1 59.608 99.9792 59.8875L99.4404 61.1318H94.5391C93.5257 61.1318 92.7012 61.9563 92.7012 62.9697C92.7012 63.9832 93.5257 64.8076 94.5391 64.8076H95.9206V75.2876C94.175 75.3231 93.0954 76.2409 93.0954 77.7018C93.0954 78.0064 93.3423 78.2532 93.6468 78.2532H101.333C101.334 78.2531 101.334 78.2531 101.335 78.2532C101.639 78.2532 101.886 78.0064 101.886 77.7018C101.886 77.6866 101.886 77.6715 101.884 77.6567C101.862 76.222 100.787 75.3227 99.0595 75.2876V64.8077H99.6503C100.989 64.8077 102.198 64.0137 102.73 62.7851L104.849 57.8913C105.252 56.9613 104.823 55.877 103.893 55.4744ZM97.0234 64.8077H97.9567V75.286H97.0234V64.8077ZM100.671 77.1504H94.3091C94.4986 76.7366 94.9715 76.3887 96.026 76.3887H96.472H98.5081H98.9541C100.009 76.3887 100.482 76.7367 100.671 77.1504Z" fill="#F0750F"/>
</g>
<path d="M81.5547 33.6758H47.4453C46.6484 33.6758 46 33.0274 46 32.2305V30.4238C46 29.8903 46.2914 29.4245 46.7227 29.1741V8.02148C46.7227 7.48795 47.014 7.02212 47.4453 6.77172V4.04688C47.4453 3.64775 47.7688 3.32422 48.168 3.32422H80.832C81.2311 3.32422 81.5547 3.64775 81.5547 4.04688V6.77172C81.9859 7.02212 82.2773 7.48787 82.2773 8.02141V29.1741C82.7085 29.4245 82.9999 29.8903 82.9999 30.4238V32.2305C83 33.0275 82.3516 33.6758 81.5547 33.6758ZM81.5547 32.2305V30.4239H47.4453L47.4452 32.2305H81.5547ZM80.832 8.02148H65.2227V13.0799C65.2227 13.4791 64.899 13.8026 64.5 13.8026C64.1009 13.8026 63.7773 13.4791 63.7773 13.0799V8.02148H48.1687C48.1685 8.02148 48.1683 8.02148 48.168 8.02148V28.9785H63.7773V19.5839C63.7773 19.1848 64.1009 18.8613 64.5 18.8613C64.8991 18.8613 65.2227 19.1848 65.2227 19.5839V28.9785H80.832V8.02148ZM48.8906 4.76953V6.57617H80.1094V4.76953H48.8906Z" fill="#F0750F"/>
<path d="M67.3906 18.8612H70.2812C70.6803 18.8612 71.0039 19.1847 71.0039 19.5839V26.8104C71.0039 27.2095 70.6803 27.5331 70.2812 27.5331H67.3906C66.9916 27.5331 66.668 27.2095 66.668 26.8104V19.5839C66.668 19.1847 66.9916 18.8612 67.3906 18.8612ZM68.1133 26.0878H69.5586V20.3066H68.1133V26.0878Z" fill="#F0750F"/>
<path d="M61.6094 27.5331H58.7187C58.3196 27.5331 57.9961 27.2096 57.9961 26.8105V19.5839C57.9961 19.1848 58.3196 18.8613 58.7187 18.8613H61.6094C62.0085 18.8613 62.332 19.1848 62.332 19.5839V26.8105C62.332 27.2096 62.0084 27.5331 61.6094 27.5331ZM60.8867 20.3065H59.4414V26.0878H60.8867V20.3065Z" fill="#F0750F"/>
<path d="M64.5 17.0546C64.1009 17.0546 63.7773 16.7308 63.7773 16.3317C63.7773 15.9326 64.1009 15.609 64.5 15.609C64.8991 15.609 65.2227 15.9326 65.2227 16.3317V16.3322C65.2227 16.7313 64.8991 17.0546 64.5 17.0546Z" fill="#F0750F"/>
<g clip-path="url(#clip1)">
<path d="M36.9399 24.9302C36.9969 24.7776 37.017 24.6095 36.9645 24.4399L33.9166 14.5347V5.39577C33.9166 3.27138 32.1884 1.54163 30.0625 1.54163H6.9375C4.81152 1.54163 3.08336 3.27138 3.08336 5.39577V14.5348L0.0354824 24.4399C-0.0169102 24.6079 0.00310742 24.776 0.060125 24.9302C0.023125 25.0936 0 25.2617 0 25.4374V31.6041V34.6874C0 35.1129 0.345357 35.4583 0.770857 35.4583H3.85421C4.27964 35.4583 4.625 35.1129 4.625 34.6874V32.3749H32.375V34.6874C32.375 35.1129 32.7204 35.4583 33.1459 35.4583H36.2292C36.6547 35.4583 37.0001 35.1129 37.0001 34.6874V31.6041V25.4374C37 25.2617 36.9769 25.0936 36.9399 24.9302ZM4.625 5.39577C4.625 4.12079 5.66252 3.08327 6.9375 3.08327H30.0625C31.3375 3.08327 32.375 4.12079 32.375 5.39577V13.8749H30.2799L29.5615 11.0013C29.3025 9.96989 28.379 9.24991 27.3168 9.24991H22.3541C21.0792 9.24991 20.0416 10.2874 20.0416 11.5624V13.8749H16.9583V11.5639C16.9583 10.2889 15.9208 9.25143 14.6458 9.25143H9.68316C8.62093 9.25143 7.69752 9.97293 7.43852 11.0028L6.72012 13.8749H4.625V5.39577ZM28.6966 15.1206C28.5486 15.3087 28.3266 15.4166 28.0876 15.4166H22.3541C21.9302 15.4166 21.5833 15.0712 21.5833 14.6457V11.5624C21.5833 11.1369 21.9302 10.7916 22.3541 10.7916H27.3183C27.6729 10.7916 27.9797 11.0305 28.066 11.3743L28.8369 14.4577C28.8955 14.6904 28.8446 14.9309 28.6966 15.1206ZM15.4182 11.5624V14.638C15.4182 14.6411 15.4167 14.6427 15.4167 14.6458C15.4167 14.6473 15.4167 14.6489 15.4167 14.6489C15.4152 15.0729 15.0698 15.4166 14.6474 15.4166H8.91396C8.67346 15.4166 8.45298 15.3087 8.30498 15.1206C8.15698 14.931 8.10611 14.689 8.16471 14.4577L8.93557 11.3744C9.02193 11.0321 9.3287 10.7916 9.68482 10.7916H14.6474C15.0714 10.7916 15.4182 11.1369 15.4182 11.5624ZM4.42302 15.4166H6.74325C6.82498 15.6478 6.93136 15.8698 7.08702 16.0702C7.53102 16.6344 8.1955 16.9582 8.91238 16.9582H14.6459C15.6495 16.9582 16.4974 16.3107 16.8165 15.4166H20.1835C20.5026 16.3123 21.3505 16.9582 22.3541 16.9582H28.0876C28.8045 16.9582 29.4674 16.6344 29.9114 16.0702C30.0671 15.8713 30.1735 15.6478 30.2552 15.4166H32.5769L34.9573 23.1527C34.8679 23.1419 34.78 23.1249 34.6875 23.1249H2.3125C2.22 23.1249 2.13212 23.1419 2.04425 23.1527L4.42302 15.4166ZM3.08336 33.9166H1.54164V32.3749H3.08329V33.9166H3.08336ZM35.4584 33.9166H33.9167V32.3749H35.4584V33.9166ZM35.4584 30.8333H1.54164V25.4374C1.54164 25.0119 1.88852 24.6666 2.3125 24.6666H34.6875C35.1115 24.6666 35.4584 25.0119 35.4584 25.4374V30.8333Z" fill="#F0750F"/>
</g>
<path d="M124.406 23.7188H122.281V22.6562H123.875C124.016 22.6562 124.151 22.6003 124.251 22.5007C124.35 22.401 124.406 22.2659 124.406 22.125V5.125C124.406 4.9841 124.35 4.84898 124.251 4.74935C124.151 4.64972 124.016 4.59375 123.875 4.59375H94.125C93.9841 4.59375 93.849 4.64972 93.7493 4.74935C93.6497 4.84898 93.5938 4.9841 93.5938 5.125V22.125C93.5938 22.2659 93.6497 22.401 93.7493 22.5007C93.849 22.6003 93.9841 22.6562 94.125 22.6562H95.7188V23.7188H93.5938C93.3121 23.7191 93.042 23.8312 92.8429 24.0304C92.6437 24.2295 92.5316 24.4996 92.5312 24.7812V32.2188C92.5316 32.5004 92.6437 32.7705 92.8429 32.9696C93.042 33.1688 93.3121 33.2809 93.5938 33.2812H94.125V34.875C94.125 35.0159 94.181 35.151 94.2806 35.2507C94.3802 35.3503 94.5154 35.4062 94.6562 35.4062H96.25C96.3685 35.4062 96.4835 35.3666 96.5769 35.2937C96.6703 35.2208 96.7366 35.1188 96.7653 35.0038L97.1963 33.2812H120.804L121.235 35.0038C121.263 35.1188 121.33 35.2208 121.423 35.2937C121.516 35.3666 121.632 35.4062 121.75 35.4062H123.344C123.485 35.4062 123.62 35.3503 123.719 35.2507C123.819 35.151 123.875 35.0159 123.875 34.875V33.2812H124.406C124.688 33.2809 124.958 33.1688 125.157 32.9696C125.356 32.7705 125.468 32.5004 125.469 32.2188V24.7812C125.468 24.4996 125.356 24.2295 125.157 24.0304C124.958 23.8312 124.688 23.7191 124.406 23.7188ZM94.6562 21.5938V5.65625H123.344V21.5938H94.6562ZM121.219 22.6562V23.7188H96.7812V22.6562H121.219ZM95.835 34.3438H95.1875V33.2812H96.1006L95.835 34.3438ZM122.812 34.3438H122.165L121.899 33.2812H122.812V34.3438ZM124.406 32.2188H93.5938V24.7812H124.406L124.407 32.2188H124.406Z" fill="#F0750F"/>
<path d="M123.344 25.3125H94.6562C94.5154 25.3125 94.3802 25.3685 94.2806 25.4681C94.181 25.5677 94.125 25.7029 94.125 25.8438V31.1562C94.125 31.2971 94.181 31.4323 94.2806 31.5319C94.3802 31.6315 94.5154 31.6875 94.6562 31.6875H123.344C123.485 31.6875 123.62 31.6315 123.719 31.5319C123.819 31.4323 123.875 31.2971 123.875 31.1562V25.8438C123.875 25.7029 123.819 25.5677 123.719 25.4681C123.62 25.3685 123.485 25.3125 123.344 25.3125ZM122.812 30.625H95.1875V26.375H122.812V30.625Z" fill="#F0750F"/>
<path d="M106.875 28.5H111.125C111.266 28.5 111.401 28.444 111.501 28.3444C111.6 28.2448 111.656 28.1096 111.656 27.9688C111.656 27.8279 111.6 27.6927 111.501 27.5931C111.401 27.4935 111.266 27.4375 111.125 27.4375H106.875C106.734 27.4375 106.599 27.4935 106.499 27.5931C106.4 27.6927 106.344 27.8279 106.344 27.9688C106.344 28.1096 106.4 28.2448 106.499 28.3444C106.599 28.444 106.734 28.5 106.875 28.5Z" fill="#F0750F"/>
<path d="M122.812 20.5312V6.71875C122.812 6.57785 122.757 6.44273 122.657 6.3431C122.557 6.24347 122.422 6.1875 122.281 6.1875H95.7188C95.5779 6.1875 95.4427 6.24347 95.3431 6.3431C95.2435 6.44273 95.1875 6.57785 95.1875 6.71875V20.5312C95.1875 20.6721 95.2435 20.8073 95.3431 20.9069C95.4427 21.0065 95.5779 21.0625 95.7188 21.0625H122.281C122.422 21.0625 122.557 21.0065 122.657 20.9069C122.757 20.8073 122.812 20.6721 122.812 20.5312ZM121.75 20H96.25V7.25H121.75V20Z" fill="#F0750F"/>
<path d="M106.344 17.3438C106.414 17.3439 106.483 17.3302 106.547 17.3035C106.612 17.2768 106.67 17.2376 106.719 17.1882L112.032 11.8757C112.081 11.8263 112.12 11.7678 112.147 11.7033C112.174 11.6389 112.188 11.5698 112.188 11.5C112.188 11.4302 112.174 11.3612 112.147 11.2967C112.12 11.2323 112.081 11.1737 112.032 11.1244C111.983 11.075 111.924 11.0359 111.86 11.0092C111.795 10.9825 111.726 10.9688 111.656 10.9688C111.587 10.9688 111.517 10.9825 111.453 11.0092C111.389 11.0359 111.33 11.075 111.281 11.1244L105.968 16.4369C105.894 16.5112 105.843 16.6058 105.823 16.7089C105.802 16.8119 105.813 16.9187 105.853 17.0158C105.893 17.1129 105.961 17.1959 106.049 17.2542C106.136 17.3126 106.239 17.3438 106.344 17.3438Z" fill="#F0750F"/>
<path d="M106.344 14.1563C106.414 14.1564 106.483 14.1427 106.547 14.116C106.612 14.0893 106.67 14.0501 106.719 14.0007L108.844 11.8757C108.894 11.8263 108.933 11.7678 108.96 11.7033C108.986 11.6389 109 11.5698 109 11.5C109 11.4302 108.986 11.3612 108.96 11.2967C108.933 11.2323 108.894 11.1737 108.844 11.1244C108.795 11.075 108.737 11.0359 108.672 11.0092C108.608 10.9825 108.539 10.9687 108.469 10.9688C108.399 10.9688 108.33 10.9825 108.265 11.0092C108.201 11.0359 108.142 11.075 108.093 11.1244L105.968 13.2494C105.894 13.3237 105.843 13.4183 105.823 13.5214C105.802 13.6244 105.813 13.7312 105.853 13.8283C105.893 13.9254 105.961 14.0084 106.049 14.0667C106.136 14.1251 106.239 14.1563 106.344 14.1563Z" fill="#F0750F"/>
<path d="M111.546 14.0462L108.89 16.7025C108.79 16.8021 108.734 16.9372 108.734 17.0781C108.734 17.219 108.79 17.3542 108.89 17.4538C108.99 17.5534 109.125 17.6094 109.266 17.6094C109.407 17.6094 109.542 17.5534 109.641 17.4538L112.298 14.7975C112.347 14.7482 112.386 14.6897 112.413 14.6252C112.439 14.5607 112.453 14.4917 112.453 14.4219C112.453 14.3521 112.439 14.283 112.413 14.2186C112.386 14.1541 112.347 14.0956 112.298 14.0462C112.248 13.9969 112.19 13.9578 112.125 13.9311C112.061 13.9044 111.992 13.8906 111.922 13.8906C111.852 13.8906 111.783 13.9044 111.719 13.9311C111.654 13.9578 111.596 13.9969 111.546 14.0462Z" fill="#F0750F"/>
<defs>
<clipPath id="clip0">
<rect width="36" height="36" fill="white" transform="translate(69 47)"/>
</clipPath>
<clipPath id="clip1">
<rect width="37" height="37" fill="white"/>
</clipPath>
</defs>
</svg>
