<svg width="82" height="82" viewBox="0 0 82 82" fill="none" xmlns="http://www.w3.org/2000/svg">
<g clip-path="url(#clip0)">
<path d="M62.9337 60.9616C63.5972 60.9616 64.1348 60.424 64.1348 59.7604V53.9407C64.1348 53.2771 63.5972 52.7395 62.9337 52.7395H21.7383C21.0748 52.7395 20.5371 53.2771 20.5371 53.9407V59.7604C20.5371 60.424 21.0748 60.9616 21.7383 60.9616H62.9337ZM47.9603 58.5593H43.5373V55.1418H47.9603V58.5593ZM50.3627 55.1418H54.7859V58.5593H50.3627V55.1418ZM41.135 58.5593H36.7118V55.1418H41.135V58.5593ZM34.3094 58.5593H29.8864V55.1418H34.3094V58.5593ZM61.7325 58.5593H57.1882V55.1418H61.7325V58.5593ZM22.9395 55.1418H27.4839V58.5593H22.9395V55.1418Z" fill="#F0750F"/>
<path d="M80.7988 74.2549H77.3375V28.6074H77.8423C78.5059 28.6074 79.0435 28.0698 79.0435 27.4063C79.0435 26.7428 78.5059 26.2051 77.8423 26.2051H77.3375V21.9539H77.8423C78.5059 21.9539 79.0435 21.4163 79.0435 20.7527C79.0435 20.0892 78.5059 19.5516 77.8423 19.5516C75.8689 19.5516 64.8296 19.5516 62.5884 19.5516C61.9249 19.5516 61.3872 20.0892 61.3872 20.7527C61.3872 21.4163 61.9249 21.9539 62.5884 21.9539H63.0932V26.2051H62.5884C61.9249 26.2051 61.3872 26.7428 61.3872 27.4063C61.3872 28.0698 61.9249 28.6074 62.5884 28.6074H63.0932V33.8372L54.8258 25.5698C54.0697 24.8133 53.0642 24.3969 51.9946 24.3969H46.7147V14.8021H47.4122C48.0757 14.8021 48.6133 14.2645 48.6133 13.601C48.6133 12.9374 48.0757 12.3998 47.4122 12.3998H46.7147V7.74518H47.4122C48.0757 7.74518 48.6133 7.20753 48.6133 6.54401C48.6133 5.88048 48.0757 5.34283 47.4122 5.34283C44.3763 5.34283 28.0919 5.34283 24.7111 5.34283C24.0476 5.34283 23.51 5.88048 23.51 6.54401C23.51 7.20753 24.0476 7.74518 24.7111 7.74518H25.4088V12.3996H24.7111C24.0476 12.3996 23.51 12.9373 23.51 13.6008C23.51 14.2643 24.0476 14.802 24.7111 14.802H25.4088V20.1914C25.4088 20.8549 25.9464 21.3926 26.61 21.3926C27.2735 21.3926 27.8111 20.8549 27.8111 20.1914V14.8021H44.3122V47.3432H27.8113V24.9942C27.8113 24.3306 27.2736 23.793 26.6101 23.793C25.9466 23.793 25.4089 24.3306 25.4089 24.9942V47.3432H20.8045V41.9124H21.3831C22.0466 41.9124 22.5843 41.3748 22.5843 40.7113C22.5843 40.0477 22.0466 39.5101 21.3831 39.5101H20.8045V39.1014C20.8045 38.4378 20.2668 37.9002 19.6033 37.9002C18.9398 37.9002 18.4021 38.4378 18.4021 39.1014V39.5101H17.8236C17.1601 39.5101 16.6225 40.0477 16.6225 40.7113C16.6225 41.3748 17.1601 41.9124 17.8236 41.9124H18.4021V47.3432H15.805C14.6115 47.3432 13.6403 48.3142 13.6403 49.5078V57.3733H11.267C8.80635 57.3733 6.48489 58.4588 4.8979 60.3519C4.47172 60.8602 4.53835 61.6177 5.04668 62.0439C5.55502 62.4702 6.31256 62.4035 6.73873 61.8951C7.86816 60.5482 9.51841 59.7756 11.2668 59.7756H13.6402V62.9787H11.267C9.77562 62.9787 8.56211 64.1921 8.56211 65.6836V74.255H5.35899V65.7104C5.35899 65.0468 4.82134 64.5092 4.15782 64.5092C3.49429 64.5092 2.95664 65.0468 2.95664 65.7104V74.255H1.20117C0.537645 74.255 0 74.7927 0 75.4562C0 76.1197 0.537645 76.6574 1.20117 76.6574H80.7988C81.4624 76.6574 82 76.1197 82 75.4562C82 74.7927 81.4624 74.2549 80.7988 74.2549ZM27.8113 12.3998V7.74518H44.3124V12.3996H27.8113V12.3998ZM65.4956 21.9539H74.935V26.2051H65.4956V21.9539ZM51.9946 26.7993C52.4223 26.7993 52.8245 26.9658 53.1269 27.2685L63.0932 37.2349V41.7646L51.6831 30.3543C51.4577 30.1291 51.1523 30.0026 50.8336 30.0026H46.7147V26.7994H51.9946V26.7993ZM10.9645 65.6835C10.9645 65.5167 11.1003 65.3809 11.267 65.3809H13.6403V74.2547H10.9645V65.6835ZM16.0427 49.7453H52.4784C53.1419 49.7453 53.6796 49.2077 53.6796 48.5442C53.6796 47.8806 53.1419 47.343 52.4784 47.343H46.7149V32.4048H50.3362L63.0932 45.162V47.343H57.281C56.6175 47.343 56.0798 47.8806 56.0798 48.5442C56.0798 49.2077 56.6175 49.7453 57.281 49.7453H68.6292V74.2549H52.3948V65.9168C52.3948 65.2533 51.8572 64.7156 51.1936 64.7156H33.4781C32.8146 64.7156 32.2769 65.2533 32.2769 65.9168V74.2549H16.0427C16.0427 73.1988 16.0427 50.8166 16.0427 49.7453ZM34.6793 74.2549V67.118H49.9925V74.2549H34.6793ZM71.0317 74.2549V49.5077C71.0317 48.3142 70.0607 47.343 68.867 47.343H65.4956C65.4956 43.6074 65.4956 32.4943 65.4956 28.6074H74.935V74.2549H71.0317Z" fill="#F0750F"/>
</g>
<defs>
<clipPath id="clip0">
<rect width="82" height="82" fill="white"/>
</clipPath>
</defs>
</svg>
