<svg width="76" height="76" viewBox="0 0 76 76" fill="none" xmlns="http://www.w3.org/2000/svg">
<path d="M38.4976 3.67185L38 3.44385L37.5024 3.67422C27.4825 8.27991 16.5876 10.672 5.55988 10.6876H2.375V18.0738C2.38486 29.5414 5.70616 40.7622 11.9397 50.3876C18.1733 60.013 27.054 67.6334 37.5143 72.3331L38 72.5563L38.4857 72.3378C48.9468 67.6379 57.8279 60.0167 64.0615 50.3904C70.2952 40.764 73.6161 29.5422 73.625 18.0738V10.6876H70.4401C59.4122 10.6713 48.5173 8.27836 38.4976 3.67185ZM71.25 18.0738C71.2399 28.9923 68.1032 39.6795 62.2108 48.8716C56.3185 58.0636 47.917 65.376 38 69.9438C28.083 65.376 19.6815 58.0636 13.7892 48.8716C7.89682 39.6795 4.76012 28.9923 4.75 18.0738V13.0626H5.55988C16.7468 13.0458 27.8032 10.6579 38 6.05635C48.1968 10.6579 59.2532 13.0458 70.4401 13.0626H71.25V18.0738Z" fill="#F0750F"/>
<path d="M46.3125 21.375V19H13.0625V45.125H17.9811C18.2403 46.1434 18.8314 47.0464 19.6611 47.6913C20.4908 48.3363 21.5117 48.6864 22.5625 48.6864C23.6133 48.6864 24.6342 48.3363 25.4639 47.6913C26.2936 47.0464 26.8847 46.1434 27.1439 45.125H48.8561C49.1153 46.1434 49.7064 47.0464 50.5361 47.6913C51.3658 48.3363 52.3867 48.6864 53.4375 48.6864C54.4883 48.6864 55.5092 48.3363 56.3389 47.6913C57.1686 47.0464 57.7597 46.1434 58.0189 45.125H59.375C60.3198 45.125 61.226 44.7497 61.8941 44.0816C62.5622 43.4135 62.9375 42.5073 62.9375 41.5625V31.6671L55.2188 21.375H46.3125ZM59.375 30.875H51.0625V23.75H54.0312L59.375 30.875ZM22.5625 46.3125C22.0928 46.3125 21.6336 46.1732 21.243 45.9122C20.8525 45.6513 20.548 45.2803 20.3683 44.8464C20.1885 44.4124 20.1415 43.9349 20.2331 43.4742C20.3248 43.0135 20.551 42.5903 20.8831 42.2581C21.2153 41.926 21.6385 41.6998 22.0992 41.6081C22.5599 41.5165 23.0374 41.5635 23.4714 41.7433C23.9053 41.923 24.2763 42.2275 24.5372 42.618C24.7982 43.0086 24.9375 43.4678 24.9375 43.9375C24.9375 44.5674 24.6873 45.1715 24.2419 45.6169C23.7965 46.0623 23.1924 46.3125 22.5625 46.3125ZM43.9375 42.75H27.1439C26.8847 41.7316 26.2936 40.8286 25.4639 40.1837C24.6342 39.5387 23.6133 39.1886 22.5625 39.1886C21.5117 39.1886 20.4908 39.5387 19.6611 40.1837C18.8314 40.8286 18.2403 41.7316 17.9811 42.75H15.4375V21.375H43.9375V42.75ZM53.4375 46.3125C52.9678 46.3125 52.5086 46.1732 52.118 45.9122C51.7275 45.6513 51.423 45.2803 51.2433 44.8464C51.0635 44.4124 51.0165 43.9349 51.1081 43.4742C51.1998 43.0135 51.426 42.5903 51.7581 42.2581C52.0903 41.926 52.5135 41.6998 52.9742 41.6081C53.4349 41.5165 53.9124 41.5635 54.3464 41.7433C54.7803 41.923 55.1513 42.2275 55.4122 42.618C55.6732 43.0086 55.8125 43.4678 55.8125 43.9375C55.8125 44.5674 55.5623 45.1715 55.1169 45.6169C54.6715 46.0623 54.0674 46.3125 53.4375 46.3125ZM59.375 42.75H58.0189C57.7597 41.7316 57.1686 40.8286 56.3389 40.1837C55.5092 39.5387 54.4883 39.1886 53.4375 39.1886C52.3867 39.1886 51.3658 39.5387 50.5361 40.1837C49.7064 40.8286 49.1153 41.7316 48.8561 42.75H46.3125V23.75H48.6875V33.25H60.5625V41.5625C60.5625 41.8774 60.4374 42.1795 60.2147 42.4022C59.992 42.6249 59.6899 42.75 59.375 42.75Z" fill="#F0750F"/>
<path d="M39.679 28.5L34.4374 23.2584L28.4999 29.1959L26.1249 26.8209L20.8833 32.0625L28.4999 39.6792L39.679 28.5ZM26.1249 30.1792L28.4999 32.5542L34.4374 26.6167L36.3208 28.5L28.4999 36.3209L24.2415 32.0625L26.1249 30.1792Z" fill="#F0750F"/>
</svg>
