<svg width="98" height="102" viewBox="0 0 98 102" fill="none" xmlns="http://www.w3.org/2000/svg">
<g clip-path="url(#clip0)">
<path d="M0.409908 0.719741L0.409912 100.82L35.4699 100.82L35.4699 81.7498L19.4799 81.7498L19.4799 19.7797L50.0699 19.7797L50.0699 0.719739L0.409908 0.719741Z" stroke="#F0750F" stroke-width="1.5" stroke-miterlimit="10" stroke-linecap="round" stroke-linejoin="round"/>
<path d="M50.0698 2.29974L50.0698 20.1797L78.2698 20.1797L78.2698 2.29973L50.0698 2.29974Z" stroke="#F0750F" stroke-width="1.5" stroke-miterlimit="10" stroke-linecap="round" stroke-linejoin="round"/>
<path d="M64.1699 20.1797L64.1699 21.3698L78.2699 21.3698L78.2699 20.1797L64.1699 20.1797Z" stroke="#F0750F" stroke-width="1.5" stroke-miterlimit="10" stroke-linecap="round" stroke-linejoin="round"/>
<path d="M50.0698 20.1797L50.0698 21.3698L64.1698 21.3698L64.1698 20.1797L50.0698 20.1797Z" stroke="#F0750F" stroke-width="1.5" stroke-miterlimit="10" stroke-linecap="round" stroke-linejoin="round"/>
<path d="M50.0698 86.7197C50.0698 85.9897 50.2998 85.2597 50.7198 84.6597C51.1398 84.0597 51.7498 83.5997 52.4398 83.3497C53.1298 83.0997 53.8898 83.0697 54.5998 83.2697C55.3098 83.4697 55.9498 83.8797 56.4098 84.4497C56.8698 85.0097 57.1598 85.7197 57.2098 86.4497C57.2698 87.1797 57.0898 87.9297 56.7098 88.5597C56.3298 89.1898 55.7598 89.6898 55.0898 89.9898C54.4198 90.2898 53.6698 90.3698 52.9498 90.2298C52.2298 90.0898 51.5598 89.7198 51.0598 89.1898C50.5498 88.6598 50.2198 87.9797 50.1098 87.2597C50.0798 87.0797 50.0698 86.8997 50.0698 86.7197Z" stroke="#F0750F" stroke-width="1.5" stroke-miterlimit="10" stroke-linecap="round" stroke-linejoin="round"/>
<path d="M44.5998 86.7197C44.5998 85.9897 44.3698 85.2597 43.9498 84.6597C43.5298 84.0597 42.9198 83.5997 42.2298 83.3497C41.5398 83.0997 40.7798 83.0697 40.0698 83.2697C39.3598 83.4697 38.7198 83.8797 38.2598 84.4497C37.7998 85.0097 37.5098 85.7197 37.4598 86.4498C37.3998 87.1798 37.5798 87.9298 37.9598 88.5598C38.3398 89.1898 38.9098 89.6898 39.5798 89.9898C40.2498 90.2898 40.9998 90.3698 41.7198 90.2298C42.4398 90.0898 43.1098 89.7198 43.6098 89.1898C44.1198 88.6598 44.4498 87.9797 44.5598 87.2597C44.5898 87.0797 44.5998 86.8997 44.5998 86.7197Z" stroke="#F0750F" stroke-width="1.5" stroke-miterlimit="10" stroke-linecap="round" stroke-linejoin="round"/>
<path d="M35.47 81.7498L35.47 100.82L59.2 100.82L59.2 81.7498L35.47 81.7498Z" stroke="#F0750F" stroke-width="1.5" stroke-miterlimit="10" stroke-linecap="round" stroke-linejoin="round"/>
<path d="M51.46 0.709755L51.46 2.29974L76.88 2.29974L76.88 0.709754L51.46 0.709755Z" stroke="#F0750F" stroke-width="1.5" stroke-miterlimit="10" stroke-linecap="round" stroke-linejoin="round"/>
<path d="M78.27 0.70977L78.27 19.7798L97.34 19.7798L97.34 0.709769L78.27 0.70977Z" stroke="#F0750F" stroke-width="1.5" stroke-miterlimit="10" stroke-linecap="round" stroke-linejoin="round"/>
<path d="M42.23 94.5598C42.23 93.5598 41.59 92.6498 40.65 92.3198C39.71 91.9798 38.64 92.2798 38 93.0498C37.37 93.8198 37.29 94.9298 37.8 95.7898C38.31 96.6498 39.33 97.0998 40.31 96.8998C41.28 96.7098 42.05 95.8998 42.2 94.9198C42.22 94.7998 42.23 94.6798 42.23 94.5598Z" stroke="#F0750F" stroke-width="1.5" stroke-miterlimit="10" stroke-linecap="round" stroke-linejoin="round"/>
<path d="M52.4399 94.5598C52.4399 93.5598 53.0799 92.6498 54.0199 92.3198C54.9599 91.9798 56.0299 92.2798 56.6699 93.0498C57.2999 93.8198 57.3799 94.9298 56.8699 95.7898C56.3599 96.6498 55.3399 97.0998 54.3599 96.8998C53.3899 96.7098 52.6199 95.8998 52.4699 94.9198C52.4499 94.7998 52.4399 94.6798 52.4399 94.5598Z" stroke="#F0750F" stroke-width="1.5" stroke-miterlimit="10" stroke-linecap="round" stroke-linejoin="round"/>
<path d="M50.5099 94.5598C50.5099 93.2298 49.6599 92.0198 48.3999 91.5698C47.1499 91.1198 45.7199 91.5198 44.8699 92.5498C44.0299 93.5798 43.9199 95.0598 44.5999 96.1998C45.2799 97.3398 46.6399 97.9398 47.9399 97.6798C49.2399 97.4198 50.2599 96.3498 50.4599 95.0398C50.4999 94.8798 50.5099 94.7198 50.5099 94.5598Z" stroke="#F0750F" stroke-width="1.5" stroke-miterlimit="10" stroke-linecap="round" stroke-linejoin="round"/>
<path d="M35.47 99.2298L35.47 100.82L59.2 100.82L59.2 99.2298L35.47 99.2298Z" stroke="#F0750F" stroke-width="1.5" stroke-miterlimit="10" stroke-linecap="round" stroke-linejoin="round"/>
<path d="M1.98999 56.3297C1.98999 55.7598 2.73999 55.4898 3.08999 55.9498C3.42999 56.3798 3.04999 57.0297 2.50999 56.9497C2.20999 56.8897 1.98999 56.6297 1.98999 56.3297Z" stroke="#F0750F" stroke-width="0.5" stroke-miterlimit="10" stroke-linecap="round" stroke-linejoin="round"/>
<path d="M18.09 68.4398C18.09 68.8498 17.87 69.2498 17.51 69.4598C17.21 69.6398 16.88 69.6298 16.54 69.6298C15.47 69.6298 14.4 69.6298 13.33 69.6298C11.93 69.6298 10.54 69.6298 9.14003 69.6298C8.42003 69.6298 7.69003 69.6498 6.97003 69.6298C6.57003 69.6198 6.19003 69.4298 5.97003 69.0898C5.78003 68.7998 5.78003 68.4898 5.78003 68.1598C5.78003 67.1498 5.78003 66.1398 5.78003 65.1398C5.78003 63.7298 5.78003 62.3098 5.78003 60.8998C5.78003 59.9898 5.78003 59.0698 5.78003 58.1598C5.78003 57.8298 5.84003 57.5298 6.05003 57.2598C6.30003 56.9598 6.64003 56.8298 7.02003 56.8298C7.87003 56.8298 8.72003 56.8298 9.57003 56.8298C10.97 56.8298 12.38 56.8298 13.78 56.8298C14.76 56.8298 15.74 56.8298 16.72 56.8298C17.05 56.8298 17.35 56.8598 17.62 57.0698C17.94 57.3098 18.09 57.6698 18.1 58.0498C18.11 58.8298 18.1 59.6198 18.1 60.3998C18.1 61.7898 18.1 63.1798 18.1 64.5798C18.1 65.6998 18.1 66.8198 18.1 67.9298C18.09 68.0998 18.09 68.2698 18.09 68.4398Z" stroke="#F0750F" stroke-miterlimit="10" stroke-linecap="round" stroke-linejoin="round"/>
<path d="M11.53 48.0398C10.95 48.0398 10.42 48.4098 10.22 48.9598C10.02 49.5098 10.2 50.1298 10.65 50.4998C11.1 50.8698 11.75 50.9198 12.25 50.6198C12.75 50.3198 13.01 49.7298 12.9 49.1598C12.79 48.5898 12.32 48.1398 11.75 48.0598C11.68 48.0398 11.61 48.0398 11.53 48.0398Z" stroke="#F0750F" stroke-miterlimit="10" stroke-linecap="round" stroke-linejoin="round"/>
<path d="M11.53 61.8398C10.95 61.8398 10.42 62.2098 10.22 62.7598C10.02 63.3098 10.2 63.9298 10.65 64.2998C11.1 64.6698 11.75 64.7198 12.25 64.4198C12.75 64.1198 13.01 63.5298 12.9 62.9598C12.79 62.3898 12.32 61.9398 11.75 61.8598C11.68 61.8498 11.61 61.8398 11.53 61.8398Z" stroke="#F0750F" stroke-miterlimit="10" stroke-linecap="round" stroke-linejoin="round"/>
<path d="M18.09 44.2097C18.09 43.7997 17.87 43.3997 17.51 43.1897C17.21 43.0097 16.88 43.0197 16.54 43.0197C15.47 43.0197 14.4 43.0197 13.33 43.0197C11.93 43.0197 10.54 43.0198 9.14003 43.0198C8.42003 43.0198 7.69003 42.9998 6.97003 43.0198C6.57003 43.0298 6.19003 43.2198 5.97003 43.5598C5.78003 43.8498 5.78003 44.1597 5.78003 44.4897C5.78003 45.4998 5.78003 46.5098 5.78003 47.5098C5.78003 48.9198 5.78003 50.3398 5.78003 51.7498C5.78003 52.6598 5.78003 53.5798 5.78003 54.4898C5.78003 54.8198 5.84003 55.1198 6.05003 55.3898C6.30003 55.6898 6.64003 55.8198 7.02003 55.8198C7.87003 55.8198 8.72003 55.8198 9.57003 55.8198C10.97 55.8198 12.38 55.8198 13.78 55.8198C14.76 55.8198 15.74 55.8198 16.72 55.8198C17.05 55.8198 17.35 55.7898 17.62 55.5798C17.94 55.3398 18.09 54.9798 18.1 54.5998C18.11 53.8198 18.1 53.0298 18.1 52.2498C18.1 50.8598 18.1 49.4698 18.1 48.0698C18.1 46.9498 18.1 45.8298 18.1 44.7198C18.09 44.5598 18.09 44.3897 18.09 44.2097Z" stroke="#F0750F" stroke-miterlimit="10" stroke-linecap="round" stroke-linejoin="round"/>
<path d="M18.29 71.0297C18.95 71.0297 19.47 70.4897 19.48 69.8397C19.5 69.0597 19.48 68.2697 19.48 67.4897C19.48 65.6197 19.48 63.7497 19.48 61.8797C19.48 59.5297 19.48 57.1797 19.48 54.8397C19.48 52.6197 19.48 50.4097 19.48 48.1897C19.48 46.6997 19.48 45.2097 19.48 43.7197C19.48 43.2297 19.57 42.6297 19.29 42.1897C18.87 41.5397 18.13 41.6397 17.46 41.6397C15.41 41.6397 13.36 41.6397 11.32 41.6397C9.50002 41.6397 7.69002 41.6397 5.87002 41.6397C5.62002 41.6397 5.37002 41.6297 5.13002 41.7197C4.81002 41.8497 4.55002 42.1197 4.44002 42.4497C4.38002 42.6397 4.38002 42.8197 4.38002 43.0197C4.38002 43.4197 4.38002 43.8297 4.38002 44.2297C4.38002 45.8897 4.38002 47.5397 4.38002 49.1997C4.38002 51.4897 4.38002 53.7697 4.38002 56.0597C4.38002 58.3697 4.38002 60.6797 4.38002 62.9897C4.38002 64.7197 4.38002 66.4397 4.38002 68.1697C4.38002 68.6197 4.38002 69.0797 4.38002 69.5297C4.38002 69.7197 4.37002 69.9097 4.41002 70.0897C4.55002 70.7297 5.11002 71.0297 5.72002 71.0297C7.41002 71.0297 9.10002 71.0297 10.8 71.0297C12.93 71.0297 15.05 71.0297 17.18 71.0297C17.55 71.0297 17.92 71.0297 18.29 71.0297Z" stroke="#F0750F" stroke-width="1.5" stroke-miterlimit="10" stroke-linecap="round" stroke-linejoin="round"/>
<path d="M59.2 81.7498L59.2 100.82L97.33 100.82L97.33 81.7498L59.2 81.7498Z" stroke="#F0750F" stroke-width="1.5" stroke-miterlimit="10" stroke-linecap="round" stroke-linejoin="round"/>
<path d="M50.0699 0.719739L0.409908 0.719741L0.409912 100.82L35.4699 100.82L97.3399 100.82L97.3399 81.7498L59.1999 81.7498L19.4799 81.7498L19.4799 19.7797L50.0699 19.7797L50.0699 20.1797L50.0699 21.3697L64.1699 21.3697L78.2699 21.3697L78.2699 20.1797L78.2699 19.7797L97.3399 19.7797L97.3399 0.719737L78.2699 0.719737L50.0699 0.719739Z" stroke="#F0750F" stroke-width="1.5" stroke-miterlimit="10" stroke-linecap="round" stroke-linejoin="round"/>
</g>
<defs>
<clipPath id="clip0">
<rect width="100.93" height="97.75" fill="white" transform="translate(0 101.23) rotate(-90)"/>
</clipPath>
</defs>
</svg>
