<svg width="101" height="108" viewBox="0 0 101 108" fill="none" xmlns="http://www.w3.org/2000/svg">
<g clip-path="url(#clip0)">
<path d="M39.6173 102.53C39.6173 103.657 40.0095 104.759 40.7191 105.636C41.4475 106.539 42.4933 107.161 43.6326 107.379C44.6971 107.585 45.8176 107.423 46.7888 106.937C47.8408 106.408 48.6812 105.493 49.1295 104.404C49.6212 103.208 49.4967 101.914 49.4967 100.65C49.4967 100.171 49.5652 99.6351 49.4469 99.162C49.3598 98.8134 49.1606 98.4959 48.8991 98.2469C48.3264 97.7053 47.598 97.5808 46.8386 97.5808C45.2138 97.5808 43.589 97.5621 41.9642 97.5808C41.2109 97.587 40.439 97.8983 39.9846 98.5208C39.7791 98.801 39.6546 99.1309 39.6297 99.4733C39.5861 100.202 39.6297 100.942 39.6297 101.671C39.6173 101.957 39.6173 102.244 39.6173 102.53Z" stroke="#F0750F" stroke-width="1.5" stroke-miterlimit="10" stroke-linecap="round" stroke-linejoin="round"/>
<path d="M20.4498 102.53C20.4498 103.657 20.842 104.759 21.5517 105.636C22.28 106.539 23.3259 107.161 24.4651 107.379C25.5296 107.585 26.6501 107.423 27.6213 106.937C28.6733 106.408 29.5137 105.493 29.962 104.404C30.4538 103.208 30.3293 101.914 30.3293 100.65C30.3293 100.171 30.3977 99.6351 30.2795 99.162C30.1923 98.8134 29.9931 98.4959 29.7316 98.2469C29.1589 97.7053 28.4306 97.5808 27.6711 97.5808C26.0463 97.5808 24.4215 97.5621 22.7967 97.5808C22.0435 97.587 21.2715 97.8983 20.8171 98.5208C20.6116 98.801 20.4871 99.1309 20.4622 99.4733C20.4187 100.202 20.4622 100.942 20.4622 101.671C20.4498 101.957 20.4498 102.244 20.4498 102.53Z" stroke="#F0750F" stroke-width="1.5" stroke-miterlimit="10" stroke-linecap="round" stroke-linejoin="round"/>
<path d="M0.466797 95.0222V0.466919H100.133V41.6781H84.8002V15.7997H15.7996V69.4676H54.1347V95.0222H0.466797Z" stroke="#F0750F" stroke-width="1.5" stroke-miterlimit="10" stroke-linecap="round" stroke-linejoin="round"/>
<path d="M60.0423 14.6854C60.6586 14.6854 61.001 14.1625 61.001 13.6022C61.001 11.6163 61.001 9.63048 61.001 7.64462C61.001 7.01587 61.0135 6.3809 61.001 5.74592C60.9948 5.44711 60.864 5.16697 60.6213 4.98021C60.4221 4.83081 60.1979 4.78723 59.9614 4.78723C59.2081 4.78723 58.4486 4.78723 57.6954 4.78723C55.722 4.78723 53.7486 4.78723 51.7814 4.78723C51.2087 4.78723 50.7169 5.13585 50.7044 5.74592C50.6608 7.50144 50.7044 9.26319 50.7044 11.0187C50.7044 11.8653 50.7044 12.712 50.7044 13.5586C50.7044 13.8076 50.7169 14.0442 50.8601 14.2558C51.0344 14.5173 51.3207 14.6729 51.6258 14.6854C52.1611 14.7103 52.7027 14.6854 53.2381 14.6854C55.3547 14.6854 57.4651 14.6854 59.5816 14.6854C59.7373 14.6854 59.8929 14.6854 60.0423 14.6854Z" stroke="#F0750F" stroke-width="1.5" stroke-miterlimit="10" stroke-linecap="round" stroke-linejoin="round"/>
<path d="M40.5575 14.6854C39.9412 14.6854 39.5988 14.1625 39.5988 13.6022C39.5988 11.6163 39.5988 9.63048 39.5988 7.64462C39.5988 7.01587 39.5863 6.3809 39.5988 5.74592C39.605 5.44711 39.7358 5.16697 39.9785 4.98021C40.1777 4.83081 40.4019 4.78723 40.6384 4.78723C41.3917 4.78723 42.1511 4.78723 42.9044 4.78723C44.8778 4.78723 46.8512 4.78723 48.8184 4.78723C49.3911 4.78723 49.8829 5.13585 49.8954 5.74592C49.9389 7.50144 49.8954 9.26319 49.8954 11.0187C49.8954 11.8653 49.8954 12.712 49.8954 13.5586C49.8954 13.8076 49.8829 14.0442 49.7397 14.2558C49.5654 14.5173 49.2791 14.6729 48.974 14.6854C48.4386 14.7103 47.8971 14.6854 47.3617 14.6854C45.2451 14.6854 43.1347 14.6854 41.0182 14.6854C40.8625 14.6854 40.7131 14.6854 40.5575 14.6854Z" stroke="#F0750F" stroke-width="1.5" stroke-miterlimit="10" stroke-linecap="round" stroke-linejoin="round"/>
<path d="M45.8676 9.41263C45.8676 8.94573 45.5688 8.51619 45.1268 8.36056C44.6848 8.20493 44.1806 8.34188 43.888 8.70295C43.5892 9.06401 43.5518 9.58693 43.7946 9.98535C44.0374 10.3838 44.5105 10.6016 44.9712 10.5083C45.4256 10.4149 45.7867 10.0414 45.8614 9.58071C45.8676 9.52468 45.8676 9.46865 45.8676 9.41263Z" stroke="#F0750F" stroke-width="1.5" stroke-miterlimit="10" stroke-linecap="round" stroke-linejoin="round"/>
<path d="M56.9672 9.41263C56.9672 8.94573 56.6684 8.51619 56.2264 8.36056C55.7844 8.20493 55.2802 8.34188 54.9876 8.70295C54.6888 9.06401 54.6514 9.58693 54.8942 9.98535C55.137 10.3838 55.6101 10.6016 56.0708 10.5083C56.5252 10.4149 56.8863 10.0414 56.961 9.58071C56.9672 9.52468 56.9672 9.46865 56.9672 9.41263Z" stroke="#F0750F" stroke-width="1.5" stroke-miterlimit="10" stroke-linecap="round" stroke-linejoin="round"/>
<path d="M38.4843 14.841C38.4843 15.3204 38.8578 15.7374 39.3372 15.7935C39.4866 15.8121 39.6484 15.7997 39.7978 15.7997C40.2149 15.7997 40.6382 15.7997 41.0553 15.7997C42.5494 15.7997 44.0434 15.7997 45.5375 15.7997C47.4673 15.7997 49.3971 15.7997 51.327 15.7997C53.1634 15.7997 55.0061 15.7997 56.8425 15.7997C58.0627 15.7997 59.2828 15.7997 60.503 15.7997C60.8827 15.7997 61.3309 15.8682 61.6671 15.6503C62.1464 15.3453 62.1091 14.8472 62.1091 14.3492C62.1091 12.712 62.1091 11.0747 62.1091 9.44372C62.1091 7.91853 62.1091 6.39957 62.1091 4.87438C62.1091 4.40749 62.0282 3.97172 61.5488 3.75384C61.1753 3.57953 60.6399 3.66669 60.2477 3.66669C58.9342 3.66669 57.6269 3.66669 56.3134 3.66669C54.4396 3.66669 52.5658 3.66669 50.692 3.66669C48.7808 3.66669 46.8697 3.66669 44.9648 3.66669C43.5516 3.66669 42.1323 3.66669 40.7192 3.66669C40.3581 3.66669 39.9908 3.66669 39.6297 3.66669C39.4803 3.66669 39.3372 3.66046 39.194 3.69781C38.7395 3.80987 38.4718 4.22073 38.4718 4.66895C38.4594 5.97625 38.4718 7.28978 38.4718 8.60331C38.4718 10.3713 38.4718 12.1393 38.4718 13.9072C38.4843 14.2123 38.4843 14.5297 38.4843 14.841Z" stroke="#F0750F" stroke-width="1.5" stroke-miterlimit="10" stroke-linecap="round" stroke-linejoin="round"/>
<path d="M50.2999 1.73688C49.8393 1.7431 49.6276 2.3345 49.9887 2.62709C50.3373 2.901 50.8602 2.59596 50.7917 2.16019C50.7544 1.91118 50.5427 1.73688 50.2999 1.73688Z" stroke="#F0750F" stroke-width="1.5" stroke-miterlimit="10" stroke-linecap="round" stroke-linejoin="round"/>
<path d="M100.133 42.7924H98.8569V63.2361H100.133V42.7924Z" stroke="#F0750F" stroke-width="1.5" stroke-miterlimit="10" stroke-linecap="round" stroke-linejoin="round"/>
<path d="M84.4828 41.678H83.5242V53.0205H84.4828V41.678Z" stroke="#F0750F" stroke-width="1.5" stroke-miterlimit="10" stroke-linecap="round" stroke-linejoin="round"/>
<path d="M84.4828 53.0143H83.5242V64.3567H84.4828V53.0143Z" stroke="#F0750F" stroke-width="1.5" stroke-miterlimit="10" stroke-linecap="round" stroke-linejoin="round"/>
<path d="M98.8568 41.678H84.4827V64.3566H98.8568V41.678Z" stroke="#F0750F" stroke-width="1.5" stroke-miterlimit="10" stroke-linecap="round" stroke-linejoin="round"/>
<path d="M11.8091 46.0669C13.0106 46.0731 14.1124 46.8388 14.5171 47.9718C14.9217 49.1048 14.5606 50.3997 13.6331 51.1654C12.7055 51.9248 11.3609 52.0244 10.3337 51.4082C9.3003 50.7919 8.75871 49.5593 8.98904 48.3827C9.21937 47.2061 10.1905 46.2848 11.3733 46.098C11.5165 46.0793 11.6597 46.0669 11.8091 46.0669Z" stroke="#F0750F" stroke-width="1.5" stroke-miterlimit="10" stroke-linecap="round" stroke-linejoin="round"/>
<path d="M11.8091 41.6781C13.0106 41.6719 14.1124 40.9062 14.5171 39.7732C14.9217 38.6402 14.5606 37.3453 13.6331 36.5796C12.7055 35.8201 11.3609 35.7205 10.3337 36.3368C9.3003 36.9531 8.75871 38.1857 8.98904 39.3623C9.21937 40.5389 10.1905 41.4602 11.3733 41.647C11.5165 41.6656 11.6597 41.6781 11.8091 41.6781Z" stroke="#F0750F" stroke-width="1.5" stroke-miterlimit="10" stroke-linecap="round" stroke-linejoin="round"/>
<path d="M15.7996 34.3323H0.466797V53.4189H15.7996V34.3323Z" stroke="#F0750F" stroke-width="1.5" stroke-miterlimit="10" stroke-linecap="round" stroke-linejoin="round"/>
<path d="M5.503 39.7669C6.30605 39.7669 7.03441 39.2502 7.30832 38.497C7.576 37.7437 7.33944 36.8784 6.72314 36.3679C6.10062 35.8575 5.20418 35.7952 4.51318 36.2061C3.8284 36.6169 3.46112 37.4387 3.61675 38.2231C3.77238 39.0074 4.4198 39.6237 5.20418 39.742C5.30379 39.7607 5.40339 39.7669 5.503 39.7669Z" stroke="#F0750F" stroke-width="1.5" stroke-miterlimit="10" stroke-linecap="round" stroke-linejoin="round"/>
<path d="M5.50312 47.978C6.30618 47.978 7.03453 48.4947 7.30844 49.248C7.57613 50.0012 7.33957 50.8665 6.72327 51.377C6.10697 51.8875 5.21053 51.9497 4.51953 51.5389C3.83475 51.128 3.46746 50.3063 3.62309 49.5219C3.77873 48.7375 4.42615 48.1212 5.21053 48.0029C5.30391 47.9905 5.40352 47.978 5.50312 47.978Z" stroke="#F0750F" stroke-width="1.5" stroke-miterlimit="10" stroke-linecap="round" stroke-linejoin="round"/>
<path d="M5.50311 46.4279C6.57385 46.4279 7.55121 45.7369 7.91228 44.7346C8.27334 43.7324 7.95586 42.5745 7.1279 41.8959C6.29994 41.2174 5.11092 41.1302 4.19581 41.6781C3.2807 42.2259 2.79513 43.3215 3.00056 44.3674C3.20599 45.4132 4.0713 46.2349 5.11714 46.3968C5.24165 46.4217 5.37238 46.4279 5.50311 46.4279Z" stroke="#F0750F" stroke-width="1.5" stroke-miterlimit="10" stroke-linecap="round" stroke-linejoin="round"/>
<path d="M1.74297 34.3323H0.466797V53.4189H1.74297V34.3323Z" stroke="#F0750F" stroke-width="1.5" stroke-miterlimit="10" stroke-linecap="round" stroke-linejoin="round"/>
<path d="M100.133 41.6781V0.466919H0.466797V95.0222H54.1347V69.4676H15.7996V15.7997H84.8002V41.6781H84.4828H83.5241V53.0142V64.3566H84.4828H98.8569H100.133V41.6781Z" stroke="#F0750F" stroke-width="1.5" stroke-miterlimit="10" stroke-linecap="round" stroke-linejoin="round"/>
</g>
<defs>
<clipPath id="clip0">
<rect width="100.6" height="107.933" fill="white"/>
</clipPath>
</defs>
</svg>
