<svg width="110" height="110" viewBox="0 0 110 110" fill="none" xmlns="http://www.w3.org/2000/svg">
<g clip-path="url(#clip0)">
<path d="M87.8792 104.186C87.8792 105.502 88.3565 106.799 89.2071 107.803C90.0822 108.831 91.3245 109.517 92.6586 109.712C93.9253 109.896 95.241 109.633 96.3426 108.972C97.5237 108.262 98.4171 107.118 98.8149 105.802C98.9801 105.251 99.0536 104.688 99.0536 104.113C99.0536 103.207 99.0536 102.295 99.0536 101.39C99.0536 100.967 99.0781 100.551 98.9312 100.147C98.7782 99.7374 98.4967 99.3886 98.1479 99.1316C97.7746 98.8562 97.3278 98.6787 96.8689 98.6114C96.4344 98.5441 95.9815 98.5747 95.5409 98.5747C93.8703 98.5747 92.1935 98.5563 90.5228 98.5747C89.6294 98.5869 88.7053 98.9786 88.2096 99.7497C88.0015 100.074 87.8914 100.447 87.8853 100.833C87.873 101.677 87.8853 102.522 87.8853 103.366C87.8792 103.642 87.8792 103.911 87.8792 104.186Z" stroke="#F0750F" stroke-width="1.5" stroke-miterlimit="10" stroke-linecap="round" stroke-linejoin="round"/>
<path d="M66.1851 104.186C66.1851 105.502 66.6624 106.799 67.513 107.803C68.3881 108.831 69.6304 109.517 70.9645 109.712C72.2312 109.896 73.547 109.633 74.6485 108.972C75.8296 108.262 76.723 107.118 77.1208 105.802C77.286 105.251 77.3595 104.688 77.3595 104.113C77.3595 103.207 77.3595 102.295 77.3595 101.39C77.3595 100.967 77.384 100.551 77.2371 100.147C77.0841 99.7374 76.8026 99.3886 76.4538 99.1316C76.0805 98.8562 75.6337 98.6787 75.1748 98.6114C74.7403 98.5441 74.2874 98.5747 73.8468 98.5747C72.1762 98.5747 70.4994 98.5563 68.8287 98.5747C67.9353 98.5869 67.0112 98.9786 66.5155 99.7497C66.3075 100.074 66.1973 100.447 66.1912 100.833C66.1789 101.677 66.1912 102.522 66.1912 103.366C66.1851 103.642 66.1851 103.911 66.1851 104.186Z" stroke="#F0750F" stroke-width="1.5" stroke-miterlimit="10" stroke-linecap="round" stroke-linejoin="round"/>
<path d="M114.983 55.3886C116.299 55.3886 117.596 55.8659 118.6 56.7166C119.628 57.5917 120.313 58.8339 120.509 60.168C120.692 61.4348 120.429 62.7505 119.768 63.852C119.059 65.0331 117.914 65.9266 116.598 66.3243C116.048 66.4896 115.485 66.563 114.909 66.563C114.004 66.563 113.092 66.563 112.186 66.563C111.764 66.563 111.348 66.5875 110.944 66.4406C110.534 66.2876 110.185 66.0061 109.928 65.6573C109.653 65.284 109.475 64.8373 109.408 64.3783C109.341 63.9438 109.371 63.491 109.371 63.0504C109.371 61.3797 109.353 59.7029 109.371 58.0323C109.383 57.1388 109.775 56.2148 110.546 55.7191C110.871 55.511 111.244 55.4008 111.629 55.3947C112.474 55.3825 113.318 55.3947 114.163 55.3947C114.438 55.3886 114.707 55.3886 114.983 55.3886Z" stroke="#F0750F" stroke-width="1.5" stroke-miterlimit="10" stroke-linecap="round" stroke-linejoin="round"/>
<path d="M114.983 77.0826C116.299 77.0826 117.596 77.56 118.6 78.4106C119.628 79.2857 120.313 80.528 120.509 81.8621C120.692 83.1288 120.429 84.4445 119.768 85.5461C119.059 86.7272 117.914 87.6206 116.598 88.0184C116.048 88.1836 115.485 88.2571 114.909 88.2571C114.004 88.2571 113.092 88.2571 112.186 88.2571C111.764 88.2571 111.348 88.2815 110.944 88.1347C110.534 87.9817 110.185 87.7002 109.928 87.3514C109.653 86.9781 109.475 86.5313 109.408 86.0724C109.341 85.6379 109.371 85.185 109.371 84.7444C109.371 83.0737 109.353 81.397 109.371 79.7263C109.383 78.8329 109.775 77.9088 110.546 77.4131C110.871 77.205 111.244 77.0949 111.629 77.0888C112.474 77.0765 113.318 77.0888 114.163 77.0888C114.438 77.0826 114.707 77.0826 114.983 77.0826Z" stroke="#F0750F" stroke-width="1.5" stroke-miterlimit="10" stroke-linecap="round" stroke-linejoin="round"/>
<path d="M106.483 47.9594H58.7559V95.6862H106.483V47.9594Z" stroke="#F0750F" stroke-width="1.5" stroke-miterlimit="10" stroke-linecap="round" stroke-linejoin="round"/>
<path d="M12.4672 35.0287H11.0229V56.6309H12.4672V35.0287Z" stroke="#F0750F" stroke-width="1.5" stroke-miterlimit="10" stroke-linecap="round" stroke-linejoin="round"/>
<path d="M16.7204 48.7243C17.9321 48.7182 19.0336 47.9472 19.4437 46.8089C19.8537 45.6707 19.4926 44.3672 18.5563 43.5961C17.62 42.8311 16.2737 42.7271 15.2334 43.3513C14.1991 43.9694 13.6484 45.2117 13.8809 46.3928C14.1135 47.5739 15.0926 48.504 16.2798 48.6876C16.4267 48.7121 16.5736 48.7243 16.7204 48.7243Z" stroke="#F0750F" stroke-width="1.5" stroke-miterlimit="10" stroke-linecap="round" stroke-linejoin="round"/>
<path d="M16.7202 50.4807C17.6259 50.4807 18.4582 51.0682 18.7642 51.9188C19.0701 52.7694 18.8009 53.7486 18.0971 54.3238C17.3934 54.899 16.3836 54.9725 15.6064 54.5074C14.8293 54.0423 14.4192 53.1121 14.5906 52.2248C14.7681 51.3375 15.4963 50.6398 16.3898 50.5052C16.4999 50.4868 16.6101 50.4807 16.7202 50.4807Z" stroke="#F0750F" stroke-width="1.5" stroke-miterlimit="10" stroke-linecap="round" stroke-linejoin="round"/>
<path d="M16.7202 41.185C17.6259 41.185 18.4582 40.5975 18.7642 39.7469C19.0701 38.8962 18.8009 37.9171 18.0971 37.3419C17.3995 36.7666 16.3836 36.6932 15.6064 37.1583C14.8293 37.6234 14.4192 38.5535 14.5906 39.4409C14.7681 40.3282 15.4963 41.0259 16.3898 41.1605C16.4999 41.1727 16.6101 41.185 16.7202 41.185Z" stroke="#F0750F" stroke-width="1.5" stroke-miterlimit="10" stroke-linecap="round" stroke-linejoin="round"/>
<path d="M28.3782 35.0287H11.0229V56.6309H28.3782V35.0287Z" stroke="#F0750F" stroke-width="1.5" stroke-miterlimit="10" stroke-linecap="round" stroke-linejoin="round"/>
<path d="M23.862 43.3452C24.529 43.3452 25.1899 43.1372 25.7346 42.7516C26.2792 42.3661 26.7015 41.8153 26.9218 41.185C27.1482 40.5547 27.1727 39.8632 26.9952 39.2206C26.8177 38.578 26.4383 37.9967 25.9243 37.5744C25.4102 37.1522 24.7677 36.8952 24.1067 36.8462C23.4397 36.7972 22.7604 36.9564 22.1852 37.2991C21.6099 37.6418 21.151 38.1619 20.8817 38.7678C20.6124 39.3736 20.5329 40.059 20.6614 40.7138C20.7899 41.3686 21.1204 41.9744 21.6038 42.4395C22.0873 42.8985 22.7053 43.2045 23.3601 43.3024C23.5315 43.333 23.6967 43.3452 23.862 43.3452Z" stroke="#F0750F" stroke-width="1.5" stroke-miterlimit="10" stroke-linecap="round" stroke-linejoin="round"/>
<path d="M23.862 48.3204C24.529 48.3204 25.1899 48.5285 25.7346 48.914C26.2792 49.2996 26.7015 49.8503 26.9218 50.4807C27.1482 51.111 27.1727 51.8025 26.9952 52.4451C26.8177 53.0876 26.4383 53.669 25.9243 54.0912C25.4102 54.5135 24.7677 54.7705 24.1067 54.8195C23.4397 54.8684 22.7604 54.7093 22.1852 54.3666C21.6099 54.0239 21.151 53.5037 20.8817 52.8979C20.6124 52.2921 20.5329 51.6067 20.6614 50.9519C20.7899 50.2971 21.1204 49.6912 21.6038 49.2261C22.0873 48.7672 22.7053 48.4612 23.3601 48.3633C23.5315 48.3327 23.6967 48.3204 23.862 48.3204Z" stroke="#F0750F" stroke-width="1.5" stroke-miterlimit="10" stroke-linecap="round" stroke-linejoin="round"/>
<path d="M38.5061 16.4985C38.5061 17.0982 39.0018 17.5694 39.5893 17.5817C40.3053 17.5939 41.0151 17.5817 41.7311 17.5817C43.4324 17.5817 45.1336 17.5817 46.8349 17.5817C48.9706 17.5817 51.1125 17.5817 53.2482 17.5817C55.2677 17.5817 57.2811 17.5817 59.3005 17.5817C60.6591 17.5817 62.0115 17.5817 63.3701 17.5817C63.8168 17.5817 64.3676 17.6673 64.7654 17.4103C65.359 17.0309 65.2672 16.3516 65.2672 15.7458C65.2672 13.8732 65.2672 12.0067 65.2672 10.1341C65.2672 8.48181 65.2672 6.83563 65.2672 5.18334C65.2672 4.95691 65.2733 4.73049 65.1876 4.5163C65.0652 4.22256 64.8204 3.99613 64.5206 3.89822C64.3492 3.84314 64.1779 3.84314 64.0065 3.84314C63.6332 3.84314 63.266 3.84314 62.8927 3.84314C61.3812 3.84314 59.8635 3.84314 58.352 3.84314C56.2713 3.84314 54.1845 3.84314 52.1039 3.84314C50.0049 3.84314 47.8997 3.84314 45.8007 3.84314C44.2341 3.84314 42.6674 3.84314 41.1008 3.84314C40.6908 3.84314 40.2808 3.84314 39.8708 3.84314C39.6994 3.84314 39.5281 3.83091 39.3628 3.86762C38.7815 3.99614 38.5122 4.51018 38.5122 5.06095C38.5122 6.60309 38.5122 8.15135 38.5122 9.69349C38.5122 11.6273 38.5122 13.555 38.5122 15.4888C38.5061 15.8253 38.5061 16.1619 38.5061 16.4985Z" stroke="#F0750F" stroke-width="1.5" stroke-miterlimit="10" stroke-linecap="round" stroke-linejoin="round"/>
<path d="M62.9111 16.3149C63.2905 16.3149 63.6455 16.1129 63.8413 15.7886C64.0065 15.5132 64.0004 15.2133 64.0004 14.9012C64.0004 13.9282 64.0004 12.9552 64.0004 11.9822C64.0004 10.7093 64.0004 9.44255 64.0004 8.16967C64.0004 7.50875 64.0127 6.84783 64.0004 6.19303C63.9943 5.82586 63.8168 5.48316 63.5047 5.28121C63.2416 5.10986 62.9601 5.10986 62.6541 5.10986C61.7362 5.10986 60.8182 5.10986 59.9003 5.10986C58.6152 5.10986 57.33 5.10986 56.0449 5.10986C55.2127 5.10986 54.3804 5.10986 53.5481 5.10986C53.2483 5.10986 52.9729 5.15882 52.7342 5.36077C52.465 5.58719 52.3426 5.89929 52.3426 6.24199C52.3364 7.01306 52.3426 7.79025 52.3426 8.56132C52.3426 9.84032 52.3426 11.1132 52.3426 12.3922C52.3426 13.2857 52.3426 14.173 52.3426 15.0665C52.3426 15.3663 52.3732 15.6356 52.5567 15.8865C52.7709 16.1741 53.1014 16.3149 53.4502 16.321C54.1601 16.3271 54.8761 16.321 55.586 16.321C56.8527 16.321 58.1195 16.321 59.3862 16.321C60.4021 16.321 61.4241 16.321 62.4399 16.321C62.599 16.3149 62.752 16.3149 62.9111 16.3149Z" stroke="#F0750F" stroke-width="1.5" stroke-miterlimit="10" stroke-linecap="round" stroke-linejoin="round"/>
<path d="M46.8655 10.3544C46.8655 9.82811 46.5228 9.33854 46.0271 9.16107C45.5314 8.9836 44.9562 9.14271 44.6196 9.54661C44.283 9.95662 44.2402 10.5441 44.5095 10.997C44.7787 11.4498 45.3234 11.6885 45.8435 11.5906C46.3576 11.4865 46.7676 11.0643 46.8472 10.5441C46.8533 10.5257 46.8716 10.3544 46.8655 10.3544Z" stroke="#F0750F" stroke-width="1.5" stroke-miterlimit="10" stroke-linecap="round" stroke-linejoin="round"/>
<path d="M59.429 10.3544C59.429 9.82811 59.0863 9.33854 58.5906 9.16107C58.0949 8.9836 57.5197 9.14271 57.1831 9.54661C56.8465 9.95662 56.8037 10.5441 57.0729 10.997C57.3422 11.4498 57.8869 11.6885 58.407 11.5906C58.9211 11.4865 59.3311 11.0643 59.4106 10.5441C59.429 10.4768 59.429 10.4156 59.429 10.3544Z" stroke="#F0750F" stroke-width="1.5" stroke-miterlimit="10" stroke-linecap="round" stroke-linejoin="round"/>
<path d="M40.856 16.3149C40.4765 16.3149 40.1216 16.1129 39.9258 15.7886C39.7605 15.5132 39.7667 15.2133 39.7667 14.9012C39.7667 13.9282 39.7667 12.9552 39.7667 11.9822C39.7667 10.7093 39.7667 9.44255 39.7667 8.16967C39.7667 7.50875 39.7544 6.84783 39.7667 6.19303C39.7728 5.82586 39.9503 5.48316 40.2624 5.28121C40.5255 5.10986 40.807 5.10986 41.113 5.10986C42.0309 5.10986 42.9489 5.10986 43.8668 5.10986C45.1519 5.10986 46.437 5.10986 47.7222 5.10986C48.5544 5.10986 49.3867 5.10986 50.219 5.10986C50.5188 5.10986 50.7942 5.15882 51.0329 5.36077C51.3021 5.58719 51.4245 5.89929 51.4245 6.24199C51.4306 7.01306 51.4245 7.79025 51.4245 8.56132C51.4245 9.84032 51.4245 11.1132 51.4245 12.3922C51.4245 13.2857 51.4245 14.173 51.4245 15.0665C51.4245 15.3663 51.3939 15.6356 51.2103 15.8865C50.9962 16.1741 50.6657 16.3149 50.3169 16.321C49.607 16.3271 48.891 16.321 48.1811 16.321C46.9144 16.321 45.6476 16.321 44.3809 16.321C43.365 16.321 42.343 16.321 41.3272 16.321C41.1681 16.3149 41.0151 16.3149 40.856 16.3149Z" stroke="#F0750F" stroke-width="1.5" stroke-miterlimit="10" stroke-linecap="round" stroke-linejoin="round"/>
<path d="M51.8837 1.65845C52.4039 1.66457 52.6425 2.33772 52.2325 2.66206C51.8409 2.97416 51.2473 2.62535 51.3268 2.12966C51.3697 1.86039 51.6083 1.66457 51.8837 1.65845Z" stroke="#F0750F" stroke-width="1.5" stroke-miterlimit="10" stroke-linecap="round" stroke-linejoin="round"/>
<path d="M28.7393 70.0145H12.4673V95.6862H28.7393V70.0145Z" stroke="#F0750F" stroke-width="1.5" stroke-miterlimit="10" stroke-linecap="round" stroke-linejoin="round"/>
<path d="M29.8224 70.0145H28.7393V82.8534H29.8224V70.0145Z" stroke="#F0750F" stroke-width="1.5" stroke-miterlimit="10" stroke-linecap="round" stroke-linejoin="round"/>
<path d="M29.8224 82.8474H28.7393V95.6863H29.8224V82.8474Z" stroke="#F0750F" stroke-width="1.5" stroke-miterlimit="10" stroke-linecap="round" stroke-linejoin="round"/>
<path d="M12.4672 71.2812H11.0229V94.4256H12.4672V71.2812Z" stroke="#F0750F" stroke-width="1.5" stroke-miterlimit="10" stroke-linecap="round" stroke-linejoin="round"/>
<path d="M106.483 17.5817V0.22644H11.0229V70.0145H28.3782V17.5817H106.483Z" stroke="#F0750F" stroke-width="1.5" stroke-miterlimit="10" stroke-linecap="round" stroke-linejoin="round"/>
<path d="M11.0229 94.4195V0.22644H96.722H106.483V17.5817H64.2758H64.2513H64.2268H64.2024H64.1779H39.5893H39.5648H39.5403H39.5159H39.4914H28.3782V35.0287V70.0145H28.7392H29.8285V82.8473V95.6863H28.7392H12.4672H11.0229V94.4195Z" stroke="#F0750F" stroke-width="1.5" stroke-miterlimit="10" stroke-linecap="round" stroke-linejoin="round"/>
<path d="M106.483 47.9594H58.7559V95.6862H106.483V47.9594Z" stroke="#F0750F" stroke-width="1.5" stroke-miterlimit="10" stroke-linecap="round" stroke-linejoin="round"/>
</g>
<defs>
<clipPath id="clip0">
<rect width="110" height="110" fill="white"/>
</clipPath>
</defs>
</svg>
