<svg width="150" height="102" viewBox="0 0 150 102" fill="none" xmlns="http://www.w3.org/2000/svg">
<g clip-path="url(#clip0)">
<path d="M23.6807 75.9354H0.455566V101.097H23.6807V75.9354Z" stroke="#F0750F" stroke-width="1.5" stroke-miterlimit="10" stroke-linecap="round" stroke-linejoin="round"/>
<path d="M17.6331 64.8055C18.5257 64.8055 19.4122 65.0848 20.1408 65.601C20.8694 66.1171 21.4341 66.8518 21.7316 67.6958C22.0352 68.5337 22.0656 69.4627 21.8288 70.3249C21.592 71.1871 21.088 71.9643 20.3958 72.529C19.7097 73.0937 18.8536 73.4398 17.961 73.5066C17.0684 73.5734 16.1637 73.3609 15.3926 72.8994C14.6275 72.4379 14.0142 71.7457 13.6499 70.9321C13.2917 70.1185 13.1824 69.2016 13.3585 68.3272C13.5285 67.4529 13.9778 66.6393 14.6214 66.0199C15.2651 65.4067 16.0908 64.9998 16.9713 64.8602C17.1898 64.8238 17.4145 64.8116 17.6331 64.8055Z" stroke="#F0750F" stroke-width="1.5" stroke-miterlimit="10" stroke-linecap="round" stroke-linejoin="round"/>
<path d="M17.6331 58.1568C18.5257 58.1568 19.4122 57.8775 20.1408 57.3614C20.8694 56.8453 21.4341 56.1106 21.7316 55.2666C22.0352 54.4287 22.0656 53.4997 21.8288 52.6374C21.592 51.7752 21.088 50.998 20.3958 50.4333C19.7097 49.8686 18.8536 49.5225 17.961 49.4558C17.0684 49.389 16.1637 49.6015 15.3926 50.0629C14.6275 50.5244 14.0142 51.2166 13.6499 52.0303C13.2917 52.8439 13.1824 53.7608 13.3585 54.6351C13.5285 55.5095 13.9778 56.3231 14.6214 56.9424C15.2651 57.5557 16.0908 57.9625 16.9713 58.1022C17.1898 58.1386 17.4145 58.1568 17.6331 58.1568Z" stroke="#F0750F" stroke-width="1.5" stroke-miterlimit="10" stroke-linecap="round" stroke-linejoin="round"/>
<path d="M23.6807 47.027H0.455566V75.9354H23.6807V47.027Z" stroke="#F0750F" stroke-width="1.5" stroke-miterlimit="10" stroke-linecap="round" stroke-linejoin="round"/>
<path d="M8.08177 55.2605C9.29615 55.2605 10.4073 54.4772 10.8141 53.3357C11.2209 52.1942 10.8627 50.8827 9.92156 50.1115C8.98041 49.3404 7.62638 49.2433 6.58808 49.8626C5.54978 50.4819 4.99724 51.7267 5.23404 52.9168C5.47084 54.1008 6.44842 55.0359 7.63852 55.2241C7.78425 55.2484 7.92997 55.2605 8.08177 55.2605Z" stroke="#F0750F" stroke-width="1.5" stroke-miterlimit="10" stroke-linecap="round" stroke-linejoin="round"/>
<path d="M8.08177 67.7019C9.29615 67.7019 10.4073 68.4852 10.8141 69.6267C11.2209 70.7682 10.8627 72.0797 9.92156 72.8509C8.98041 73.622 7.62638 73.7192 6.58808 73.0998C5.54978 72.4805 4.99724 71.2357 5.23404 70.0457C5.47084 68.8616 6.44842 67.9266 7.63852 67.7383C7.78425 67.714 7.92997 67.7019 8.08177 67.7019Z" stroke="#F0750F" stroke-width="1.5" stroke-miterlimit="10" stroke-linecap="round" stroke-linejoin="round"/>
<path d="M8.08173 65.352C9.69686 65.3459 11.1784 64.3137 11.7249 62.7836C12.2714 61.2595 11.7856 59.5108 10.5348 58.4907C9.28397 57.4646 7.47454 57.331 6.09014 58.1629C4.70574 58.9947 3.96497 60.6523 4.28071 62.2371C4.59645 63.8158 5.89584 65.0666 7.49275 65.3095C7.68705 65.3399 7.88136 65.352 8.08173 65.352Z" stroke="#F0750F" stroke-width="1.5" stroke-miterlimit="10" stroke-linecap="round" stroke-linejoin="round"/>
<path d="M2.39251 47.027H0.455566V75.9354H2.39251V47.027Z" stroke="#F0750F" stroke-width="1.5" stroke-miterlimit="10" stroke-linecap="round" stroke-linejoin="round"/>
<path d="M37.2273 22.2293C37.2273 23.0308 37.8891 23.6623 38.6785 23.6805C39.6317 23.6987 40.5911 23.6805 41.5444 23.6805C43.8214 23.6805 46.0983 23.6805 48.3753 23.6805C51.2352 23.6805 54.0951 23.6805 56.9549 23.6805C59.663 23.6805 62.365 23.6805 65.0731 23.6805C66.8886 23.6805 68.7041 23.6805 70.5135 23.6805C71.1086 23.6805 71.8372 23.7898 72.3655 23.4498C73.1548 22.9397 73.0273 22.0411 73.0273 21.2274C73.0273 18.7319 73.0273 16.2363 73.0273 13.7408C73.0273 11.5306 73.0273 9.31433 73.0273 7.10415C73.0273 6.79449 73.0395 6.49696 72.9241 6.20551C72.7662 5.81084 72.4323 5.50117 72.0315 5.36759C71.8008 5.29472 71.5701 5.29472 71.3333 5.29472C70.8354 5.29472 70.3375 5.29472 69.8456 5.29472C67.8176 5.29472 65.7957 5.29472 63.7676 5.29472C60.9806 5.29472 58.1936 5.29472 55.4066 5.29472C52.6014 5.29472 49.8022 5.29472 46.997 5.29472C44.8961 5.29472 42.7952 5.29472 40.6943 5.29472C40.1418 5.29472 39.5953 5.29472 39.0428 5.29472C38.8181 5.29472 38.5813 5.27651 38.3627 5.33115C37.5794 5.50117 37.2212 6.19337 37.2212 6.93414C37.2212 8.99859 37.2212 11.0691 37.2212 13.1336C37.2212 15.7141 37.2212 18.3008 37.2212 20.8874C37.2273 21.3307 37.2273 21.78 37.2273 22.2293Z" stroke="#F0750F" stroke-width="1.5" stroke-miterlimit="10" stroke-linecap="round" stroke-linejoin="round"/>
<path d="M69.8881 21.9864C70.392 21.9864 70.8717 21.7192 71.1328 21.2881C71.3575 20.9177 71.3453 20.523 71.3453 20.1041C71.3453 18.7986 71.3453 17.4992 71.3453 16.1938C71.3453 14.4936 71.3453 12.7935 71.3453 11.0934C71.3453 10.2129 71.3636 9.32643 71.3453 8.446C71.3332 7.95417 71.1025 7.49271 70.6835 7.22554C70.3313 6.99481 69.9549 6.99481 69.548 6.99481C68.3215 6.99481 67.095 6.99481 65.8624 6.99481C64.144 6.99481 62.4196 6.99481 60.7013 6.99481C59.584 6.99481 58.4729 6.99481 57.3617 6.99481C56.9609 6.99481 56.5906 7.0616 56.2687 7.32877C55.9044 7.62629 55.7466 8.05133 55.7405 8.51279C55.7344 9.54502 55.7405 10.5833 55.7405 11.6155C55.7405 13.3217 55.7405 15.034 55.7405 16.7402C55.7405 17.9303 55.7405 19.1265 55.7405 20.3166C55.7405 20.7173 55.783 21.0817 56.0319 21.4095C56.3234 21.7921 56.7606 21.9864 57.2281 21.9924C58.1814 22.0046 59.1347 21.9924 60.088 21.9924C61.7821 21.9924 63.4761 21.9924 65.1763 21.9924C66.5364 21.9924 67.9026 21.9924 69.2627 21.9924C69.4691 21.9864 69.6756 21.9864 69.8881 21.9864Z" stroke="#F0750F" stroke-width="1.5" stroke-miterlimit="10" stroke-linecap="round" stroke-linejoin="round"/>
<path d="M48.4178 14.0018C48.4178 13.2914 47.9624 12.6478 47.2945 12.4049C46.6266 12.1681 45.8615 12.3806 45.4122 12.9271C44.9629 13.4736 44.9021 14.2629 45.2664 14.8701C45.6308 15.4773 46.3533 15.7991 47.0516 15.6595C47.7438 15.5198 48.2903 14.949 48.3935 14.2568C48.3996 14.2386 48.4238 14.0018 48.4178 14.0018Z" stroke="#F0750F" stroke-width="1.5" stroke-miterlimit="10" stroke-linecap="round" stroke-linejoin="round"/>
<path d="M65.2308 14.0018C65.2308 13.2914 64.7754 12.6478 64.1075 12.4049C63.4395 12.1681 62.6745 12.3806 62.2252 12.9271C61.7758 13.4736 61.7151 14.2629 62.0794 14.8701C62.4438 15.4773 63.1663 15.7991 63.8646 15.6595C64.5568 15.5198 65.1033 14.949 65.2065 14.2568C65.2247 14.1779 65.2308 14.0868 65.2308 14.0018Z" stroke="#F0750F" stroke-width="1.5" stroke-miterlimit="10" stroke-linecap="round" stroke-linejoin="round"/>
<path d="M40.3726 21.9864C39.8686 21.9864 39.3889 21.7192 39.1278 21.2881C38.9032 20.9177 38.9153 20.523 38.9153 20.1041C38.9153 18.7986 38.9153 17.4992 38.9153 16.1938C38.9153 14.4936 38.9153 12.7935 38.9153 11.0934C38.9153 10.2129 38.8971 9.32643 38.9153 8.446C38.9275 7.95417 39.1582 7.49271 39.5772 7.22554C39.9293 6.99481 40.3058 6.99481 40.7126 6.99481C41.9391 6.99481 43.1657 6.99481 44.3983 6.99481C46.1166 6.99481 47.841 6.99481 49.5594 6.99481C50.6766 6.99481 51.7878 6.99481 52.899 6.99481C53.2997 6.99481 53.6701 7.0616 53.9919 7.32877C54.3562 7.62629 54.5141 8.05133 54.5202 8.51279C54.5262 9.54502 54.5202 10.5833 54.5202 11.6155C54.5202 13.3217 54.5202 15.034 54.5202 16.7402C54.5202 17.9303 54.5202 19.1265 54.5202 20.3166C54.5202 20.7173 54.4776 21.0817 54.2287 21.4095C53.9372 21.7921 53.5001 21.9864 53.0325 21.9924C52.0792 22.0046 51.1259 21.9924 50.1727 21.9924C48.4786 21.9924 46.7845 21.9924 45.0844 21.9924C43.7243 21.9924 42.3581 21.9924 40.998 21.9924C40.7976 21.9864 40.5851 21.9864 40.3726 21.9864Z" stroke="#F0750F" stroke-width="1.5" stroke-miterlimit="10" stroke-linecap="round" stroke-linejoin="round"/>
<path d="M55.1335 2.37408C55.8318 2.38016 56.1536 3.28487 55.601 3.71598C55.0728 4.13494 54.2834 3.6674 54.3866 3.00556C54.4474 2.64732 54.7692 2.38016 55.1335 2.37408Z" stroke="#F0750F" stroke-width="1.5" stroke-miterlimit="10" stroke-linecap="round" stroke-linejoin="round"/>
<path d="M115.13 0.455383H0.455566V47.027H23.6807V23.6805H115.13V0.455383Z" stroke="#F0750F" stroke-width="1.5" stroke-miterlimit="10" stroke-linecap="round" stroke-linejoin="round"/>
<path d="M149.485 2.39233H115.13V24.1662H149.485V2.39233Z" stroke="#F0750F" stroke-width="1.5" stroke-miterlimit="10" stroke-linecap="round" stroke-linejoin="round"/>
<path d="M149.485 24.1662H132.307V25.6174H149.485V24.1662Z" stroke="#F0750F" stroke-width="1.5" stroke-miterlimit="10" stroke-linecap="round" stroke-linejoin="round"/>
<path d="M132.307 24.1662H115.13V25.6174H132.307V24.1662Z" stroke="#F0750F" stroke-width="1.5" stroke-miterlimit="10" stroke-linecap="round" stroke-linejoin="round"/>
<path d="M147.79 0.455383H116.824V2.39233H147.79V0.455383Z" stroke="#F0750F" stroke-width="1.5" stroke-miterlimit="10" stroke-linecap="round" stroke-linejoin="round"/>
<path d="M132.307 25.6174H149.485V24.1662V0.455383H118.931H0.455566V47.027V101.097H23.6807V75.9354V23.6805L38.5508 23.6744L38.5812 23.6805H38.6176H38.6479H38.6783H71.582H71.6124H71.6488H71.6792L71.7156 23.6744L115.13 23.6805V24.1662V25.6174H132.307Z" stroke="#F0750F" stroke-width="1.5" stroke-miterlimit="10" stroke-linecap="round" stroke-linejoin="round"/>
</g>
<defs>
<clipPath id="clip0">
<rect width="149.94" height="101.553" fill="white"/>
</clipPath>
</defs>
</svg>
