<svg width="118" height="82" viewBox="0 0 118 82" fill="none" xmlns="http://www.w3.org/2000/svg">
<g clip-path="url(#clip0)">
<path d="M116.959 0.172729H0V18.8886H116.959V0.172729Z" stroke="#F0750F" stroke-width="1.5" stroke-miterlimit="10" stroke-linecap="round" stroke-linejoin="round"/>
<path d="M116.965 62.1612H89.2822V79.7056H116.965V62.1612Z" stroke="#F0750F" stroke-width="1.5" stroke-miterlimit="10" stroke-linecap="round" stroke-linejoin="round"/>
<path d="M116.965 60.9952H103.124V62.1666H116.965V60.9952Z" stroke="#F0750F" stroke-width="1.5" stroke-miterlimit="10" stroke-linecap="round" stroke-linejoin="round"/>
<path d="M103.123 60.9952H89.2822V62.1666H103.123V60.9952Z" stroke="#F0750F" stroke-width="1.5" stroke-miterlimit="10" stroke-linecap="round" stroke-linejoin="round"/>
<path d="M115.599 79.7056H90.6479V81.2657H115.599V79.7056Z" stroke="#F0750F" stroke-width="1.5" stroke-miterlimit="10" stroke-linecap="round" stroke-linejoin="round"/>
<path d="M89.2824 62.5499H46.6899V81.2657H89.2824V62.5499Z" stroke="#F0750F" stroke-width="1.5" stroke-miterlimit="10" stroke-linecap="round" stroke-linejoin="round"/>
<path d="M23.3907 62.5499H0V81.2657H23.3907V62.5499Z" stroke="#F0750F" stroke-width="1.5" stroke-miterlimit="10" stroke-linecap="round" stroke-linejoin="round"/>
<path d="M37.7231 67.4245C37.7231 66.7065 37.9499 65.9939 38.3655 65.4055C38.7812 64.8171 39.375 64.3637 40.0498 64.1207C40.7246 63.8778 41.4749 63.8508 42.1659 64.0398C42.8623 64.2341 43.4885 64.639 43.942 65.195C44.3954 65.751 44.6761 66.442 44.7301 67.1546C44.7841 67.8725 44.6113 68.6067 44.2443 69.2221C43.8772 69.8375 43.3158 70.3342 42.6572 70.6257C42.004 70.9172 41.2644 70.9982 40.5572 70.8632C39.8501 70.7228 39.1969 70.3666 38.6948 69.8483C38.1982 69.3301 37.8689 68.6607 37.7609 67.9535C37.7339 67.7808 37.7231 67.6026 37.7231 67.4245Z" stroke="#F0750F" stroke-width="1.5" stroke-miterlimit="10" stroke-linecap="round" stroke-linejoin="round"/>
<path d="M32.357 67.4245C32.357 66.7065 32.1303 65.9939 31.7146 65.4055C31.2989 64.8171 30.7051 64.3637 30.0303 64.1207C29.3555 63.8778 28.6052 63.8508 27.9142 64.0398C27.2178 64.2341 26.5916 64.639 26.1382 65.195C25.6847 65.751 25.404 66.442 25.35 67.1546C25.296 67.8725 25.4688 68.6067 25.8359 69.2221C26.203 69.8375 26.7644 70.3342 27.423 70.6257C28.0762 70.9172 28.8157 70.9982 29.5229 70.8632C30.2301 70.7228 30.8833 70.3666 31.3853 69.8483C31.8819 69.3301 32.2112 68.6607 32.3192 67.9535C32.3246 67.9157 32.3732 67.4245 32.357 67.4245Z" stroke="#F0750F" stroke-width="1.5" stroke-miterlimit="10" stroke-linecap="round" stroke-linejoin="round"/>
<path d="M46.6842 62.5499H23.3906V81.2657H46.6842V62.5499Z" stroke="#F0750F" stroke-width="1.5" stroke-miterlimit="10" stroke-linecap="round" stroke-linejoin="round"/>
<path d="M30.0308 75.1225C30.0308 74.1454 29.3992 73.2493 28.4815 72.92C27.5638 72.5907 26.5057 72.8822 25.8849 73.6379C25.2641 74.3937 25.1831 75.4842 25.6852 76.3263C26.1872 77.163 27.1913 77.6111 28.1468 77.4167C29.1023 77.2278 29.8581 76.4397 30.0038 75.4788C30.02 75.36 30.0308 75.2412 30.0308 75.1225Z" stroke="#F0750F" stroke-width="1.5" stroke-miterlimit="10" stroke-linecap="round" stroke-linejoin="round"/>
<path d="M40.0498 75.1225C40.0498 74.1454 40.6814 73.2493 41.5991 72.92C42.5168 72.5907 43.5749 72.8822 44.1957 73.6379C44.8165 74.3937 44.8975 75.4842 44.3954 76.3263C43.8934 77.163 42.8893 77.6111 41.9338 77.4167C40.9783 77.2278 40.2225 76.4397 40.0768 75.4788C40.0606 75.36 40.0498 75.2412 40.0498 75.1225Z" stroke="#F0750F" stroke-width="1.5" stroke-miterlimit="10" stroke-linecap="round" stroke-linejoin="round"/>
<path d="M38.1602 75.1224C38.1548 73.8215 37.3235 72.6284 36.0926 72.1858C34.8672 71.7485 33.4583 72.1372 32.6324 73.1413C31.8064 74.1454 31.6984 75.6029 32.3678 76.7203C33.0372 77.8378 34.3706 78.4316 35.65 78.1779C36.924 77.9242 37.9281 76.8769 38.1278 75.5921C38.144 75.4409 38.1602 75.279 38.1602 75.1224Z" stroke="#F0750F" stroke-width="1.5" stroke-miterlimit="10" stroke-linecap="round" stroke-linejoin="round"/>
<path d="M46.6842 79.7056H23.3906V81.2657H46.6842V79.7056Z" stroke="#F0750F" stroke-width="1.5" stroke-miterlimit="10" stroke-linecap="round" stroke-linejoin="round"/>
<path d="M58.4798 1.72205C57.9184 1.72744 57.6593 2.45081 58.1019 2.8071C58.5284 3.14179 59.1654 2.76931 59.079 2.23488C59.0358 1.93798 58.7767 1.72205 58.4798 1.72205Z" stroke="#F0750F" stroke-width="1.5" stroke-miterlimit="10" stroke-linecap="round" stroke-linejoin="round"/>
<path d="M70.3718 17.5228C70.7767 17.5228 71.16 17.3069 71.3705 16.956C71.5487 16.6591 71.5379 16.3352 71.5379 16.0005C71.5379 14.9532 71.5379 13.9005 71.5379 12.8533C71.5379 11.4821 71.5379 10.1109 71.5379 8.73978C71.5379 8.02721 71.5541 7.31464 71.5379 6.60746C71.5271 6.20799 71.3435 5.84091 71.0034 5.62498C70.7173 5.44143 70.415 5.43604 70.0911 5.43604C69.1033 5.43604 68.11 5.43604 67.1221 5.43604C65.7347 5.43604 64.3474 5.43604 62.9654 5.43604C62.0693 5.43604 61.1678 5.43604 60.2717 5.43604C59.9478 5.43604 59.6509 5.49002 59.3918 5.70595C59.1002 5.94887 58.9707 6.28896 58.9653 6.66144C58.9599 7.49278 58.9653 8.32951 58.9653 9.16085C58.9653 10.5374 58.9653 11.914 58.9653 13.2905C58.9653 14.2514 58.9653 15.2123 58.9653 16.1732C58.9653 16.4917 58.9977 16.7886 59.1974 17.0531C59.4295 17.3608 59.7804 17.5174 60.1637 17.5228C60.9303 17.5336 61.7022 17.5228 62.4688 17.5228C63.8345 17.5228 65.2003 17.5228 66.5661 17.5228C67.6619 17.5228 68.7632 17.5228 69.859 17.5228C70.0318 17.5228 70.2045 17.5228 70.3718 17.5228Z" stroke="#F0750F" stroke-width="1.5" stroke-miterlimit="10" stroke-linecap="round" stroke-linejoin="round"/>
<path d="M50.3442 11.088C50.3442 10.5158 50.7113 9.99759 51.2511 9.80325C51.7856 9.60891 52.4064 9.78166 52.7681 10.2243C53.1297 10.667 53.1783 11.304 52.8814 11.7898C52.5899 12.2811 52.0015 12.5402 51.4455 12.4268C50.8895 12.3189 50.4468 11.8546 50.3604 11.2932C50.3496 11.2284 50.3442 11.1582 50.3442 11.088Z" stroke="#F0750F" stroke-width="1.5" stroke-miterlimit="10" stroke-linecap="round" stroke-linejoin="round"/>
<path d="M63.8887 11.088C63.8887 10.5158 64.2558 9.99759 64.7956 9.80325C65.33 9.60891 65.9508 9.78166 66.3125 10.2243C66.6742 10.667 66.7228 11.304 66.4259 11.7898C66.1344 12.2811 65.546 12.5402 64.9899 12.4268C64.4339 12.3189 63.9912 11.8546 63.9049 11.2932C63.8941 11.2284 63.8887 11.1582 63.8887 11.088Z" stroke="#F0750F" stroke-width="1.5" stroke-miterlimit="10" stroke-linecap="round" stroke-linejoin="round"/>
<path d="M46.5927 17.5228C46.1878 17.5228 45.8045 17.3069 45.594 16.956C45.4158 16.6591 45.4266 16.3352 45.4266 16.0005C45.4266 14.9532 45.4266 13.9005 45.4266 12.8533C45.4266 11.4821 45.4266 10.1109 45.4266 8.73978C45.4266 8.02721 45.4104 7.31464 45.4266 6.60746C45.4374 6.20799 45.621 5.84091 45.9611 5.62498C46.2472 5.44143 46.5495 5.43604 46.8734 5.43604C47.8612 5.43604 48.8545 5.43604 49.8424 5.43604C51.2298 5.43604 52.6171 5.43604 53.9991 5.43604C54.8952 5.43604 55.7967 5.43604 56.6928 5.43604C57.0167 5.43604 57.3136 5.49002 57.5727 5.70595C57.8642 5.94887 57.9938 6.28896 57.9992 6.66144C58.0046 7.49278 57.9992 8.32951 57.9992 9.16085C57.9992 10.5374 57.9992 11.914 57.9992 13.2905C57.9992 14.2514 57.9992 15.2123 57.9992 16.1732C57.9992 16.4917 57.9668 16.7886 57.7671 17.0531C57.5349 17.3608 57.1841 17.5174 56.8008 17.5228C56.0342 17.5336 55.2623 17.5228 54.4957 17.5228C53.13 17.5228 51.7642 17.5228 50.3984 17.5228C49.3026 17.5228 48.2013 17.5228 47.1055 17.5228C46.9327 17.5228 46.76 17.5228 46.5927 17.5228Z" stroke="#F0750F" stroke-width="1.5" stroke-miterlimit="10" stroke-linecap="round" stroke-linejoin="round"/>
<path d="M72.9037 17.7172C72.9037 18.3649 72.3693 18.8724 71.7323 18.8886C70.9657 18.9048 70.1938 18.8886 69.4218 18.8886C67.5864 18.8886 65.751 18.8886 63.921 18.8886C61.6213 18.8886 59.3271 18.8886 57.0274 18.8886C54.8519 18.8886 52.6764 18.8886 50.5009 18.8886C49.0325 18.8886 47.5642 18.8886 46.0959 18.8886C45.6154 18.8886 45.0216 18.9804 44.5952 18.705C43.9528 18.2948 44.0553 17.566 44.0553 16.9074C44.0553 14.9047 44.0553 12.9019 44.0553 10.8991C44.0553 9.1123 44.0553 7.32007 44.0553 5.53324C44.0553 5.28492 44.0445 5.042 44.1363 4.80987C44.2605 4.49137 44.5304 4.24305 44.8543 4.13509C45.0378 4.07571 45.2267 4.07571 45.4157 4.07571C45.8152 4.07571 46.2146 4.07571 46.6141 4.07571C48.239 4.07571 49.8639 4.07571 51.4942 4.07571C53.7344 4.07571 55.9693 4.07571 58.2096 4.07571C60.4769 4.07571 62.7442 4.07571 65.0114 4.07571C66.7065 4.07571 68.4016 4.07571 70.0966 4.07571C70.5447 4.07571 70.9927 4.07571 71.4408 4.07571C71.6243 4.07571 71.8133 4.06491 71.9914 4.1027C72.6176 4.23766 72.9091 4.79368 72.9091 5.38749C72.9091 7.04476 72.9091 8.70743 72.9091 10.3647C72.9091 12.4538 72.9091 14.543 72.9091 16.6267C72.9037 16.9884 72.9037 17.3555 72.9037 17.7172Z" stroke="#F0750F" stroke-width="1.5" stroke-miterlimit="10" stroke-linecap="round" stroke-linejoin="round"/>
<path d="M116.959 79.7056V81.2657H89.2821H46.6897H23.3907H0V62.5499H23.3907H46.6897H89.2821V62.1612V60.9952H103.123H116.959V62.1612V79.7056Z" stroke="#F0750F" stroke-width="1.5" stroke-miterlimit="10" stroke-linecap="round" stroke-linejoin="round"/>
<path d="M116.959 0.172729H0V18.8886H116.959V0.172729Z" stroke="#F0750F" stroke-width="1.5" stroke-miterlimit="10" stroke-linecap="round" stroke-linejoin="round"/>
</g>
<defs>
<clipPath id="clip0">
<rect width="117.31" height="81.4384" fill="white"/>
</clipPath>
</defs>
</svg>
