<svg width="92" height="122" viewBox="0 0 92 122" fill="none" xmlns="http://www.w3.org/2000/svg">
<g clip-path="url(#clip0)">
<path d="M15.7306 115.259C15.7306 116.524 16.1739 117.772 16.9775 118.758C17.8048 119.775 18.9883 120.478 20.2827 120.721C21.4939 120.949 22.7646 120.772 23.865 120.223C25.0604 119.626 26.0144 118.601 26.521 117.372C27.0792 116.025 26.9406 114.564 26.9406 113.143C26.9406 112.601 27.0158 111.996 26.8813 111.462C26.7823 111.065 26.5567 110.708 26.2598 110.429C25.6067 109.817 24.7794 109.679 23.9204 109.679C22.0758 109.679 20.2312 109.66 18.3866 109.679C17.5316 109.687 16.6529 110.04 16.1383 110.739C15.9087 111.054 15.7622 111.427 15.7385 111.811C15.691 112.632 15.7345 113.465 15.7345 114.285C15.7306 114.615 15.7306 114.937 15.7306 115.259Z" stroke="#F0750F" stroke-width="1.5" stroke-miterlimit="10" stroke-linecap="round" stroke-linejoin="round"/>
<path d="M37.4935 115.259C37.4935 116.524 37.9369 117.772 38.7404 118.758C39.5677 119.775 40.7512 120.478 42.0456 120.721C43.2569 120.949 44.5275 120.772 45.6279 120.223C46.8233 119.626 47.7773 118.601 48.284 117.372C48.8421 116.025 48.7036 114.564 48.7036 113.143C48.7036 112.601 48.7788 111.996 48.6442 111.462C48.5452 111.065 48.3196 110.708 48.0227 110.429C47.3696 109.817 46.5423 109.679 45.6833 109.679C43.8388 109.679 41.9942 109.66 40.1496 109.679C39.2946 109.687 38.4158 110.04 37.9012 110.739C37.6716 111.054 37.5252 111.427 37.5014 111.811C37.4539 112.632 37.4975 113.465 37.4975 114.285C37.4935 114.615 37.4935 114.937 37.4935 115.259Z" stroke="#F0750F" stroke-width="1.5" stroke-miterlimit="10" stroke-linecap="round" stroke-linejoin="round"/>
<path d="M0.296875 95.2874H52.5273" stroke="#F0750F" stroke-width="1.5" stroke-miterlimit="10" stroke-linecap="round" stroke-linejoin="round"/>
<path d="M91.6991 0.294495H74.2903V63.6257H91.6991V0.294495Z" stroke="#F0750F" stroke-width="1.5" stroke-miterlimit="10" stroke-linecap="round" stroke-linejoin="round"/>
<path d="M37.6123 82.5136C37.6163 81.1588 38.4911 79.9219 39.7775 79.4664C41.06 79.0109 42.5365 79.4153 43.3994 80.4599C44.2663 81.5044 44.3771 83.0201 43.6765 84.1785C42.9759 85.3369 41.5786 85.9535 40.2406 85.6904C38.9067 85.4273 37.8538 84.3356 37.6479 83.0044C37.6242 82.8434 37.6123 82.6785 37.6123 82.5136Z" stroke="#F0750F" stroke-width="1.5" stroke-miterlimit="10" stroke-linecap="round" stroke-linejoin="round"/>
<path d="M32.6247 82.5136C32.6208 81.1588 31.746 79.9219 30.4595 79.4664C29.177 79.0109 27.7006 79.4153 26.8376 80.4599C25.9708 81.5044 25.8599 83.0201 26.5606 84.1786C27.2612 85.3409 28.6585 85.9535 29.9964 85.6904C31.3304 85.4273 32.3833 84.3356 32.5891 83.0044C32.6129 82.8434 32.6247 82.6785 32.6247 82.5136Z" stroke="#F0750F" stroke-width="1.5" stroke-miterlimit="10" stroke-linecap="round" stroke-linejoin="round"/>
<path d="M45.9525 78.0175H24.2805V95.2875H45.9525V78.0175Z" stroke="#F0750F" stroke-width="1.5" stroke-miterlimit="10" stroke-linecap="round" stroke-linejoin="round"/>
<path d="M30.4556 89.6211C30.4556 88.7179 29.8697 87.8933 29.0147 87.587C28.1597 87.2846 27.1781 87.5517 26.6001 88.2506C26.0222 88.9457 25.947 89.9548 26.4141 90.7284C26.8812 91.502 27.8114 91.9143 28.706 91.7376C29.5927 91.5609 30.2972 90.8344 30.4318 89.947C30.4477 89.837 30.4556 89.731 30.4556 89.6211Z" stroke="#F0750F" stroke-width="1.5" stroke-miterlimit="10" stroke-linecap="round" stroke-linejoin="round"/>
<path d="M39.7815 89.6211C39.7815 88.7179 40.3673 87.8933 41.2223 87.587C42.0773 87.2846 43.059 87.5517 43.6369 88.2506C44.2148 88.9457 44.29 89.9548 43.823 90.7284C43.3559 91.502 42.4257 91.9143 41.5311 91.7376C40.6444 91.5609 39.9398 90.8344 39.8052 89.947C39.7894 89.837 39.7815 89.731 39.7815 89.6211Z" stroke="#F0750F" stroke-width="1.5" stroke-miterlimit="10" stroke-linecap="round" stroke-linejoin="round"/>
<path d="M38.0199 89.6211C38.016 88.4195 37.2401 87.3161 36.0962 86.9116C34.9562 86.5071 33.6459 86.8645 32.8741 87.7951C32.1061 88.7258 32.0032 90.0687 32.6286 91.1015C33.2501 92.1342 34.493 92.6801 35.6845 92.4445C36.868 92.2128 37.8062 91.2429 37.9883 90.057C38.0081 89.9117 38.0199 89.7664 38.0199 89.6211Z" stroke="#F0750F" stroke-width="1.5" stroke-miterlimit="10" stroke-linecap="round" stroke-linejoin="round"/>
<path d="M18.074 17.5645H1.74976V43.1122H18.074V17.5645Z" stroke="#F0750F" stroke-width="1.5" stroke-miterlimit="10" stroke-linecap="round" stroke-linejoin="round"/>
<path d="M19.1586 17.5645H18.0701V30.3384H19.1586V17.5645Z" stroke="#F0750F" stroke-width="1.5" stroke-miterlimit="10" stroke-linecap="round" stroke-linejoin="round"/>
<path d="M19.1586 30.3384H18.0701V43.1122H19.1586V30.3384Z" stroke="#F0750F" stroke-width="1.5" stroke-miterlimit="10" stroke-linecap="round" stroke-linejoin="round"/>
<path d="M1.74959 18.8251H0.296875V41.8557H1.74959V18.8251Z" stroke="#F0750F" stroke-width="1.5" stroke-miterlimit="10" stroke-linecap="round" stroke-linejoin="round"/>
<path d="M17.7057 43.1122V78.0174H52.5273V106.805H0.296875V43.1122H17.7057Z" stroke="#F0750F" stroke-width="1.5" stroke-miterlimit="10" stroke-linecap="round" stroke-linejoin="round"/>
<path d="M17.7057 0.294495H0.296875V17.5645H17.7057V0.294495Z" stroke="#F0750F" stroke-width="1.5" stroke-miterlimit="10" stroke-linecap="round" stroke-linejoin="round"/>
<path d="M90.2623 30.3383C90.2583 29.82 89.5814 29.5805 89.2529 29.9889C88.9402 30.3815 89.2885 30.9706 89.7873 30.892C90.0604 30.8488 90.2623 30.6093 90.2623 30.3383Z" stroke="#F0750F" stroke-width="1.5" stroke-miterlimit="10" stroke-linecap="round" stroke-linejoin="round"/>
<path d="M75.3789 17.0226C74.8327 17.0226 74.3577 17.4428 74.2983 17.9807C74.2785 18.1535 74.2904 18.3302 74.2904 18.4991C74.2904 18.9703 74.2904 19.4454 74.2904 19.9166C74.2904 21.6012 74.2904 23.2858 74.2904 24.9665C74.2904 27.1419 74.2904 29.3174 74.2904 31.4889C74.2904 33.5622 74.2904 35.6316 74.2904 37.705C74.2904 39.0794 74.2904 40.4577 74.2904 41.832C74.2904 42.2601 74.2152 42.7627 74.4606 43.1436C74.8089 43.6855 75.375 43.6462 75.941 43.6462C77.7975 43.6462 79.6579 43.6462 81.5144 43.6462C83.2442 43.6462 84.974 43.6462 86.6998 43.6462C87.2303 43.6462 87.725 43.5559 87.9744 43.0179C88.1723 42.5938 88.0734 41.997 88.0734 41.5493C88.0734 40.0728 88.0734 38.5964 88.0734 37.1199C88.0734 35.0112 88.0734 32.8986 88.0734 30.7899C88.0734 28.638 88.0734 26.4862 88.0734 24.3382C88.0734 22.7439 88.0734 21.1496 88.0734 19.5554C88.0734 19.147 88.0734 18.7386 88.0734 18.3302C88.0734 18.1653 88.0813 18.0004 88.0417 17.8354C87.9111 17.325 87.448 17.0226 86.9373 17.0187C85.449 17.0069 83.9607 17.0187 82.4723 17.0187C80.4654 17.0187 78.4546 17.0187 76.4477 17.0187C76.0915 17.0226 75.7352 17.0226 75.3789 17.0226Z" stroke="#F0750F" stroke-width="1.5" stroke-miterlimit="10" stroke-linecap="round" stroke-linejoin="round"/>
<path d="M81.546 37.8503C82.0764 37.8503 82.5633 37.5126 82.7414 37.0139C82.9196 36.5191 82.7612 35.9497 82.3535 35.6159C81.9418 35.2822 81.352 35.239 80.8968 35.5099C80.4416 35.7809 80.2001 36.3188 80.3031 36.8372C80.406 37.3516 80.8335 37.756 81.356 37.8385C81.4193 37.8424 81.4827 37.8503 81.546 37.8503Z" stroke="#F0750F" stroke-width="1.5" stroke-miterlimit="10" stroke-linecap="round" stroke-linejoin="round"/>
<path d="M81.546 25.3435C82.0764 25.3435 82.5633 25.0058 82.7414 24.5071C82.9196 24.0123 82.7612 23.4429 82.3535 23.1092C81.9418 22.7754 81.352 22.7322 80.8968 23.0031C80.4416 23.2741 80.2001 23.812 80.3031 24.3304C80.406 24.8448 80.8335 25.2493 81.356 25.3317C81.4193 25.3396 81.4827 25.3435 81.546 25.3435Z" stroke="#F0750F" stroke-width="1.5" stroke-miterlimit="10" stroke-linecap="round" stroke-linejoin="round"/>
<path d="M75.5608 19.363C75.5608 18.6719 76.1506 18.2831 76.7919 18.2831C79.0482 18.2831 81.3044 18.2831 83.5607 18.2831C84.2771 18.2831 84.9976 18.2674 85.714 18.2831C86.0584 18.291 86.3751 18.4362 86.5849 18.7111C86.7551 18.931 86.8065 19.1863 86.8065 19.4572C86.8065 20.3093 86.8065 21.1575 86.8065 22.0096C86.8065 24.2322 86.8065 26.4508 86.8065 28.6734C86.8065 29.3174 86.4107 29.8711 85.718 29.8907C83.7269 29.9417 81.724 29.8907 79.7329 29.8907C78.7711 29.8907 77.8092 29.8907 76.8473 29.8907C76.5623 29.8907 76.3011 29.875 76.0517 29.714C75.7548 29.5216 75.5806 29.1996 75.5648 28.8501C75.5371 28.2454 75.5648 27.6367 75.5648 27.032C75.5648 24.6484 75.5648 22.2688 75.5648 19.8852C75.5608 19.7085 75.5608 19.5357 75.5608 19.363Z" stroke="#F0750F" stroke-width="1.5" stroke-miterlimit="10" stroke-linecap="round" stroke-linejoin="round"/>
<path d="M75.5608 41.3137C75.5608 42.0048 76.1506 42.3936 76.7919 42.3936C79.0482 42.3936 81.3044 42.3936 83.5607 42.3936C84.2771 42.3936 84.9976 42.4093 85.714 42.3936C86.0584 42.3857 86.3751 42.2404 86.5849 41.9656C86.7551 41.7457 86.8065 41.4904 86.8065 41.2195C86.8065 40.3673 86.8065 39.5192 86.8065 38.6671C86.8065 36.4445 86.8065 34.2259 86.8065 32.0033C86.8065 31.3593 86.4107 30.8056 85.718 30.786C83.7269 30.7349 81.724 30.786 79.7329 30.786C78.7711 30.786 77.8092 30.786 76.8473 30.786C76.5623 30.786 76.3011 30.8017 76.0517 30.9627C75.7548 31.1551 75.5806 31.4771 75.5648 31.8266C75.5371 32.4313 75.5648 33.04 75.5648 33.6447C75.5648 36.0283 75.5648 38.4079 75.5648 40.7914C75.5608 40.9681 75.5608 41.1409 75.5608 41.3137Z" stroke="#F0750F" stroke-width="1.5" stroke-miterlimit="10" stroke-linecap="round" stroke-linejoin="round"/>
<path d="M0.296875 43.1122V106.805H52.5273V78.0174H45.9525H17.7057V43.1122H18.0699H19.1584V30.3384V17.5645H18.0699H17.7057V0.294495H0.296875V17.5645V43.1122Z" stroke="#F0750F" stroke-width="1.5" stroke-miterlimit="10" stroke-linecap="round" stroke-linejoin="round"/>
<path d="M91.6991 0.294495H74.2903V63.6257H91.6991V0.294495Z" stroke="#F0750F" stroke-width="1.5" stroke-miterlimit="10" stroke-linecap="round" stroke-linejoin="round"/>
</g>
<defs>
<clipPath id="clip0">
<rect width="92" height="121.114" fill="white"/>
</clipPath>
</defs>
</svg>
