<svg width="157" height="28" viewBox="0 0 157 28" fill="none" xmlns="http://www.w3.org/2000/svg">
<g clip-path="url(#clip0)">
<path d="M47.833 0.232178H122.673V2.30674" stroke="#F0750F" stroke-width="1.2116" stroke-miterlimit="10" stroke-linecap="round" stroke-linejoin="round"/>
<path d="M47.833 25.1346H122.673" stroke="#F0750F" stroke-width="1.2116" stroke-miterlimit="10" stroke-linecap="round" stroke-linejoin="round"/>
<path d="M153.807 0.232178H124.752V2.30674H153.807V0.232178Z" stroke="#F0750F" stroke-width="1.2116" stroke-miterlimit="10" stroke-linecap="round" stroke-linejoin="round"/>
<path d="M155.878 25.6523H122.673V27.2092H155.878V25.6523Z" stroke="#F0750F" stroke-width="1.2116" stroke-miterlimit="10" stroke-linecap="round" stroke-linejoin="round"/>
<path d="M155.878 2.30676H122.673V25.6561H155.878V2.30676Z" stroke="#F0750F" stroke-width="1.2116" stroke-miterlimit="10" stroke-linecap="round" stroke-linejoin="round"/>
<path d="M64.8292 23.5777C64.8331 24.457 65.5487 25.1193 66.409 25.1346C67.3644 25.1498 68.3198 25.1346 69.2753 25.1346C71.2471 25.1346 73.2188 25.1346 75.1868 25.1346C77.3908 25.1346 79.5948 25.1346 81.7988 25.1346C83.428 25.1346 85.0534 25.1346 86.6787 25.1346C87.3297 25.1346 88.1062 25.2488 88.6696 24.8567C89.3471 24.3885 89.3395 23.6614 89.3395 22.9268C89.3395 21.2671 89.3395 19.6037 89.3395 17.944C89.3395 15.7552 89.3395 13.5665 89.3395 11.3777C89.3395 9.97691 89.3395 8.57991 89.3395 7.1791C89.3395 6.42921 89.0236 5.73642 88.2585 5.4928C87.992 5.40906 87.7217 5.41667 87.4477 5.41667C86.9566 5.41667 86.4618 5.41667 85.9707 5.41667C84.1664 5.41667 82.3621 5.41667 80.5616 5.41667C78.3386 5.41667 76.1156 5.41667 73.8926 5.41667C72.0579 5.41667 70.2231 5.41667 68.3922 5.41667C67.8669 5.41667 67.3378 5.41667 66.8125 5.41667C66.5498 5.41667 66.2719 5.39764 66.0131 5.46235C65.2327 5.65268 64.8254 6.34547 64.8254 7.11058C64.8254 8.43526 64.8254 9.75994 64.8254 11.0846C64.8254 13.2734 64.8254 15.4659 64.8254 17.6547C64.8254 19.3676 64.8254 21.0844 64.8254 22.7973C64.8292 23.0562 64.8292 23.3188 64.8292 23.5777Z" stroke="#F0750F" stroke-width="1.2116" stroke-miterlimit="10" stroke-linecap="round" stroke-linejoin="round"/>
<path d="M35.8994 18.6482C35.9032 19.6075 36.2001 20.5515 36.7521 21.3357C37.304 22.1198 38.0958 22.7212 38.9941 23.041C39.8963 23.3645 40.8898 23.4026 41.811 23.1438C42.736 22.8887 43.5696 22.3482 44.1748 21.6059C44.7801 20.8675 45.1493 19.9501 45.2216 18.9984C45.294 18.0392 45.0656 17.0685 44.5707 16.2463C44.0797 15.4241 43.3336 14.7656 42.4581 14.3773C41.5864 13.989 40.6005 13.8786 39.6641 14.0614C38.7239 14.2441 37.8522 14.7237 37.1898 15.4165C36.5313 16.1055 36.0935 16.9962 35.9489 17.9364C35.9184 18.1762 35.8994 18.4122 35.8994 18.6482Z" stroke="#F0750F" stroke-width="1.2116" stroke-miterlimit="10" stroke-linecap="round" stroke-linejoin="round"/>
<path d="M28.766 18.6482C28.7622 19.6075 28.4653 20.5515 27.9133 21.3357C27.3614 22.1198 26.5696 22.7212 25.6713 23.041C24.7691 23.3645 23.7756 23.4026 22.8544 23.1438C21.9294 22.8887 21.0958 22.3482 20.4906 21.6059C19.8853 20.8675 19.5161 19.9501 19.4438 18.9984C19.3714 18.0392 19.5998 17.0685 20.0947 16.2463C20.5857 15.4241 21.3318 14.7656 22.2073 14.3773C23.079 13.989 24.0649 13.8786 25.0013 14.0614C25.9415 14.2441 26.8132 14.7237 27.4756 15.4165C28.1341 16.1055 28.5719 16.9962 28.7165 17.9364C28.7203 18.0011 28.785 18.6482 28.766 18.6482Z" stroke="#F0750F" stroke-width="1.2116" stroke-miterlimit="10" stroke-linecap="round" stroke-linejoin="round"/>
<path d="M47.833 0.232178H16.8325V25.1346H47.833V0.232178Z" stroke="#F0750F" stroke-width="1.2116" stroke-miterlimit="10" stroke-linecap="round" stroke-linejoin="round"/>
<path d="M25.6636 8.40481C25.6636 9.70665 24.8262 10.8981 23.6005 11.3359C22.3748 11.7736 20.9702 11.3853 20.1441 10.3804C19.3181 9.37548 19.2115 7.92138 19.8777 6.80607C20.5476 5.69075 21.8799 5.09693 23.1551 5.35197C24.4265 5.6032 25.4314 6.6538 25.6256 7.9328C25.6522 8.08887 25.6636 8.24875 25.6636 8.40481Z" stroke="#F0750F" stroke-width="1.2116" stroke-miterlimit="10" stroke-linecap="round" stroke-linejoin="round"/>
<path d="M39.0017 8.40481C39.0017 9.70665 39.8391 10.8981 41.0649 11.3359C42.2906 11.7736 43.6952 11.3853 44.5212 10.3804C45.3472 9.37548 45.4538 7.92138 44.7876 6.80607C44.1177 5.69075 42.7854 5.09693 41.5102 5.35197C40.2388 5.6032 39.2339 6.6538 39.0398 7.9328C39.0169 8.08887 39.0017 8.24875 39.0017 8.40481Z" stroke="#F0750F" stroke-width="1.2116" stroke-miterlimit="10" stroke-linecap="round" stroke-linejoin="round"/>
<path d="M36.4857 8.4048C36.4819 10.1406 35.3704 11.7279 33.7335 12.3141C32.1005 12.8965 30.2277 12.3788 29.1276 11.0389C28.0275 9.69902 27.8829 7.76149 28.7736 6.27313C29.6644 4.78477 31.442 3.99682 33.1435 4.3356C34.8374 4.67058 36.1773 6.07139 36.44 7.77672C36.4666 7.98608 36.4819 8.19544 36.4857 8.4048Z" stroke="#F0750F" stroke-width="1.2116" stroke-miterlimit="10" stroke-linecap="round" stroke-linejoin="round"/>
<path d="M47.833 0.232178H16.8325V2.30674H47.833V0.232178Z" stroke="#F0750F" stroke-width="1.2116" stroke-miterlimit="10" stroke-linecap="round" stroke-linejoin="round"/>
<path d="M16.8363 0.232178H0.232178V25.1346H16.8363V0.232178Z" stroke="#F0750F" stroke-width="1.2116" stroke-miterlimit="10" stroke-linecap="round" stroke-linejoin="round"/>
<path d="M68.1979 23.3188C67.4556 23.315 66.8047 22.7783 66.6676 22.0475C66.6182 21.781 66.641 21.4879 66.641 21.2176C66.641 20.6238 66.641 20.03 66.641 19.44C66.641 17.6395 66.641 15.8428 66.641 14.0423C66.641 12.5349 66.641 11.0275 66.641 9.51632C66.641 8.88063 66.5877 8.24494 67.0521 7.73867C67.4822 7.27046 68.0342 7.23621 68.6242 7.23621C69.808 7.23621 70.9881 7.23621 72.1719 7.23621C73.9914 7.23621 75.8148 7.23621 77.6343 7.23621C79.3815 7.23621 81.1249 7.23621 82.8721 7.23621C83.858 7.23621 84.8439 7.23621 85.826 7.23621C86.4465 7.23621 87.0174 7.47602 87.3296 8.04319C87.6531 8.63321 87.5237 9.48207 87.5237 10.1292C87.5237 11.8002 87.5237 13.4713 87.5237 15.1424C87.5237 16.8401 87.5237 18.534 87.5237 20.2317C87.5237 20.6847 87.5237 21.1377 87.5237 21.5945C87.5237 21.8762 87.5047 22.1464 87.3867 22.4053C87.1164 23.0067 86.5264 23.3188 85.8831 23.3226C84.9581 23.3265 84.0331 23.3226 83.1081 23.3226C81.3761 23.3226 79.6442 23.3226 77.9122 23.3226C76.085 23.3226 74.2617 23.3226 72.4346 23.3226C71.2012 23.3226 69.9679 23.3226 68.7346 23.3226C68.5557 23.3188 68.3768 23.3188 68.1979 23.3188Z" stroke="#F0750F" stroke-width="1.2116" stroke-miterlimit="10" stroke-linecap="round" stroke-linejoin="round"/>
<path d="M78.9019 14.7579C78.9019 14.0004 78.4108 13.3038 77.699 13.0488C76.9834 12.7938 76.165 13.0184 75.6854 13.6046C75.2057 14.1908 75.141 15.0396 75.5293 15.6905C75.9176 16.3415 76.6979 16.6879 77.4402 16.5394C78.1824 16.391 78.7686 15.7819 78.8828 15.032C78.8942 14.9407 78.9019 14.8493 78.9019 14.7579Z" stroke="#F0750F" stroke-width="1.2116" stroke-miterlimit="10" stroke-linecap="round" stroke-linejoin="round"/>
<path d="M77.0862 2.28772C77.8323 2.29533 78.1787 3.26219 77.5887 3.7304C77.0215 4.17957 76.1726 3.68091 76.2906 2.96909C76.3515 2.57702 76.6941 2.29153 77.0862 2.28772Z" stroke="#F0750F" stroke-width="1.2116" stroke-miterlimit="10" stroke-linecap="round" stroke-linejoin="round"/>
<path d="M155.882 2.30674V27.2091H122.673V25.1346H47.833H0.232178V0.232178H16.8325H122.673H155.882V2.30674Z" stroke="#F0750F" stroke-width="1.2116" stroke-miterlimit="10" stroke-linecap="round" stroke-linejoin="round"/>
</g>
<defs>
<clipPath id="clip0">
<rect width="156.11" height="27.4414" fill="white"/>
</clipPath>
</defs>
</svg>
