<svg width="101" height="99" viewBox="0 0 101 99" fill="none" xmlns="http://www.w3.org/2000/svg">
<g clip-path="url(#clip0)">
<path d="M0.490066 98.1194L100.59 98.1194L100.59 63.0594L81.5201 63.0594L81.5201 79.0494L19.5501 79.0494L19.5501 48.4594L0.49007 48.4594L0.490066 98.1194Z" stroke="#F0750F" stroke-width="1.5" stroke-miterlimit="10" stroke-linecap="round" stroke-linejoin="round"/>
<path d="M2.07018 48.4595L19.9502 48.4595L19.9502 20.2595L2.07019 20.2595L2.07018 48.4595Z" stroke="#F0750F" stroke-width="1.5" stroke-miterlimit="10" stroke-linecap="round" stroke-linejoin="round"/>
<path d="M19.9502 34.3594L21.1401 34.3594L21.1401 20.2594L19.9502 20.2594L19.9502 34.3594Z" stroke="#F0750F" stroke-width="1.5" stroke-miterlimit="10" stroke-linecap="round" stroke-linejoin="round"/>
<path d="M19.9502 48.4595L21.1401 48.4595L21.1401 34.3595L19.9502 34.3595L19.9502 48.4595Z" stroke="#F0750F" stroke-width="1.5" stroke-miterlimit="10" stroke-linecap="round" stroke-linejoin="round"/>
<path d="M86.4901 48.4595C85.7601 48.4595 85.0301 48.2295 84.4301 47.8095C83.8301 47.3895 83.3701 46.7795 83.1201 46.0895C82.8701 45.3995 82.8401 44.6395 83.0401 43.9295C83.2401 43.2195 83.6501 42.5795 84.2201 42.1195C84.7801 41.6595 85.4901 41.3695 86.2201 41.3195C86.9501 41.2595 87.7001 41.4395 88.3301 41.8195C88.9601 42.1995 89.4601 42.7695 89.7601 43.4395C90.0601 44.1095 90.1401 44.8595 90.0001 45.5795C89.8601 46.2995 89.4901 46.9695 88.9601 47.4695C88.4301 47.9795 87.7501 48.3095 87.0301 48.4195C86.8501 48.4495 86.6701 48.4595 86.4901 48.4595Z" stroke="#F0750F" stroke-width="1.5" stroke-miterlimit="10" stroke-linecap="round" stroke-linejoin="round"/>
<path d="M86.4901 53.9294C85.7601 53.9294 85.0301 54.1594 84.4301 54.5794C83.8301 54.9994 83.3701 55.6094 83.1201 56.2994C82.8701 56.9894 82.8401 57.7494 83.0401 58.4594C83.2401 59.1694 83.6501 59.8094 84.2201 60.2694C84.7801 60.7294 85.4901 61.0194 86.2201 61.0694C86.9501 61.1294 87.7001 60.9494 88.3301 60.5694C88.9601 60.1894 89.4601 59.6194 89.7601 58.9494C90.0601 58.2794 90.1401 57.5294 90.0001 56.8094C89.8601 56.0894 89.4901 55.4194 88.9601 54.9194C88.4301 54.4094 87.7501 54.0794 87.0301 53.9694C86.8501 53.9394 86.6701 53.9294 86.4901 53.9294Z" stroke="#F0750F" stroke-width="1.5" stroke-miterlimit="10" stroke-linecap="round" stroke-linejoin="round"/>
<path d="M81.5201 63.0594L100.59 63.0594L100.59 39.3295L81.5201 39.3295L81.5201 63.0594Z" stroke="#F0750F" stroke-width="1.5" stroke-miterlimit="10" stroke-linecap="round" stroke-linejoin="round"/>
<path d="M0.48008 47.0695L2.07007 47.0695L2.07007 21.6494L0.480082 21.6494L0.48008 47.0695Z" stroke="#F0750F" stroke-width="1.5" stroke-miterlimit="10" stroke-linecap="round" stroke-linejoin="round"/>
<path d="M0.480064 20.2595L19.55 20.2595L19.5501 1.18945L0.480066 1.18944L0.480064 20.2595Z" stroke="#F0750F" stroke-width="1.5" stroke-miterlimit="10" stroke-linecap="round" stroke-linejoin="round"/>
<path d="M94.33 56.2994C93.33 56.2994 92.42 56.9394 92.09 57.8794C91.75 58.8194 92.05 59.8894 92.82 60.5294C93.59 61.1594 94.7 61.2394 95.56 60.7294C96.42 60.2194 96.87 59.1994 96.67 58.2194C96.48 57.2494 95.67 56.4794 94.69 56.3294C94.57 56.3094 94.45 56.2994 94.33 56.2994Z" stroke="#F0750F" stroke-width="1.5" stroke-miterlimit="10" stroke-linecap="round" stroke-linejoin="round"/>
<path d="M94.33 46.0894C93.33 46.0894 92.42 45.4494 92.09 44.5094C91.75 43.5694 92.05 42.4994 92.82 41.8594C93.59 41.2294 94.7 41.1494 95.56 41.6594C96.42 42.1694 96.87 43.1894 96.67 44.1694C96.48 45.1394 95.67 45.9094 94.69 46.0594C94.57 46.0794 94.45 46.0894 94.33 46.0894Z" stroke="#F0750F" stroke-width="1.5" stroke-miterlimit="10" stroke-linecap="round" stroke-linejoin="round"/>
<path d="M94.3301 48.0195C93.0001 48.0195 91.7901 48.8695 91.3401 50.1295C90.8901 51.3795 91.2901 52.8095 92.3201 53.6595C93.3501 54.4995 94.8301 54.6095 95.9701 53.9295C97.1101 53.2495 97.7101 51.8895 97.4501 50.5895C97.1901 49.2895 96.1201 48.2695 94.8101 48.0695C94.6501 48.0295 94.4901 48.0195 94.3301 48.0195Z" stroke="#F0750F" stroke-width="1.5" stroke-miterlimit="10" stroke-linecap="round" stroke-linejoin="round"/>
<path d="M99.0001 63.0594L100.59 63.0594L100.59 39.3295L99.0001 39.3295L99.0001 63.0594Z" stroke="#F0750F" stroke-width="1.5" stroke-miterlimit="10" stroke-linecap="round" stroke-linejoin="round"/>
<path d="M56.1001 96.5394C55.5301 96.5394 55.2601 95.7894 55.7201 95.4394C56.1501 95.0994 56.8001 95.4794 56.7201 96.0194C56.6601 96.3194 56.4001 96.5394 56.1001 96.5394Z" stroke="#F0750F" stroke-width="0.5" stroke-miterlimit="10" stroke-linecap="round" stroke-linejoin="round"/>
<path d="M68.21 80.4395C68.62 80.4395 69.02 80.6595 69.23 81.0195C69.41 81.3195 69.4 81.6495 69.4 81.9895C69.4 83.0595 69.4 84.1295 69.4 85.1995C69.4 86.5995 69.4 87.9895 69.4 89.3895C69.4 90.1095 69.42 90.8395 69.4 91.5595C69.39 91.9595 69.2 92.3395 68.86 92.5595C68.57 92.7495 68.26 92.7495 67.93 92.7495C66.92 92.7495 65.91 92.7495 64.91 92.7495C63.5 92.7495 62.08 92.7495 60.67 92.7494C59.76 92.7494 58.84 92.7494 57.93 92.7494C57.6 92.7494 57.3 92.6894 57.03 92.4794C56.73 92.2294 56.6 91.8894 56.6 91.5094C56.6 90.6594 56.6 89.8095 56.6 88.9595C56.6 87.5595 56.6 86.1495 56.6 84.7495C56.6 83.7695 56.6 82.7895 56.6 81.8095C56.6 81.4795 56.63 81.1795 56.84 80.9095C57.08 80.5895 57.44 80.4395 57.82 80.4295C58.6 80.4195 59.39 80.4295 60.17 80.4295C61.56 80.4295 62.95 80.4295 64.35 80.4295C65.47 80.4295 66.59 80.4295 67.7 80.4295C67.87 80.4395 68.04 80.4395 68.21 80.4395Z" stroke="#F0750F" stroke-miterlimit="10" stroke-linecap="round" stroke-linejoin="round"/>
<path d="M47.8102 86.9994C47.8102 87.5794 48.1802 88.1094 48.7302 88.3094C49.2802 88.5094 49.9002 88.3294 50.2702 87.8794C50.6402 87.4294 50.6902 86.7794 50.3902 86.2794C50.0902 85.7794 49.5002 85.5194 48.9302 85.6294C48.3602 85.7394 47.9102 86.2094 47.8302 86.7794C47.8102 86.8494 47.8102 86.9194 47.8102 86.9994Z" stroke="#F0750F" stroke-miterlimit="10" stroke-linecap="round" stroke-linejoin="round"/>
<path d="M61.6102 86.9994C61.6102 87.5794 61.9802 88.1094 62.5302 88.3094C63.0802 88.5094 63.7002 88.3294 64.0702 87.8794C64.4402 87.4294 64.4902 86.7794 64.1902 86.2794C63.8902 85.7794 63.3002 85.5194 62.7302 85.6294C62.1602 85.7394 61.7102 86.2094 61.6302 86.7794C61.6202 86.8494 61.6102 86.9194 61.6102 86.9994Z" stroke="#F0750F" stroke-miterlimit="10" stroke-linecap="round" stroke-linejoin="round"/>
<path d="M43.9801 80.4395C43.5701 80.4395 43.1701 80.6595 42.9601 81.0195C42.7801 81.3195 42.7901 81.6494 42.7901 81.9894C42.7901 83.0594 42.7901 84.1295 42.7901 85.1995C42.7901 86.5995 42.7901 87.9894 42.7901 89.3894C42.7901 90.1094 42.7701 90.8395 42.7901 91.5595C42.8001 91.9595 42.9901 92.3395 43.3301 92.5595C43.6201 92.7495 43.9301 92.7494 44.2601 92.7494C45.2701 92.7494 46.2801 92.7494 47.2801 92.7494C48.6901 92.7495 50.1101 92.7495 51.5201 92.7495C52.4301 92.7495 53.3501 92.7495 54.2601 92.7495C54.5901 92.7495 54.8901 92.6895 55.1601 92.4795C55.4601 92.2295 55.5901 91.8895 55.5901 91.5095C55.5901 90.6595 55.5901 89.8095 55.5901 88.9595C55.5901 87.5595 55.5901 86.1495 55.5901 84.7495C55.5901 83.7695 55.5901 82.7895 55.5901 81.8095C55.5901 81.4795 55.5601 81.1795 55.3501 80.9095C55.1101 80.5895 54.7501 80.4395 54.3701 80.4295C53.5901 80.4195 52.8001 80.4295 52.0201 80.4295C50.6301 80.4295 49.2401 80.4295 47.8401 80.4295C46.7201 80.4295 45.6001 80.4295 44.4901 80.4295C44.3301 80.4395 44.1601 80.4395 43.9801 80.4395Z" stroke="#F0750F" stroke-miterlimit="10" stroke-linecap="round" stroke-linejoin="round"/>
<path d="M70.8001 80.2395C70.8001 79.5795 70.2601 79.0595 69.6101 79.0495C68.8301 79.0295 68.04 79.0495 67.26 79.0495C65.3901 79.0495 63.5201 79.0495 61.6501 79.0495C59.3001 79.0495 56.9501 79.0495 54.6101 79.0495C52.3901 79.0495 50.1801 79.0495 47.9601 79.0495C46.4701 79.0495 44.9801 79.0495 43.4901 79.0495C43.0001 79.0495 42.4001 78.9595 41.9601 79.2395C41.3101 79.6595 41.4101 80.3995 41.4101 81.0695C41.4101 83.1195 41.4101 85.1695 41.4101 87.2095C41.4101 89.0295 41.4101 90.8395 41.4101 92.6595C41.4101 92.9095 41.4001 93.1595 41.4901 93.3995C41.6201 93.7195 41.8901 93.9795 42.2201 94.0895C42.4101 94.1495 42.5901 94.1495 42.7901 94.1495C43.1901 94.1495 43.6001 94.1495 44.0001 94.1495C45.6601 94.1495 47.3101 94.1495 48.9701 94.1495C51.2601 94.1495 53.5401 94.1495 55.8301 94.1495C58.1401 94.1495 60.45 94.1495 62.76 94.1495C64.49 94.1495 66.21 94.1495 67.94 94.1495C68.39 94.1495 68.85 94.1495 69.3 94.1495C69.49 94.1495 69.6801 94.1595 69.8601 94.1195C70.5001 93.9795 70.8 93.4195 70.8 92.8095C70.8 91.1195 70.8 89.4295 70.8 87.7295C70.8 85.5995 70.8 83.4795 70.8 81.3495C70.8 80.9795 70.8001 80.6095 70.8001 80.2395Z" stroke="#F0750F" stroke-width="1.5" stroke-miterlimit="10" stroke-linecap="round" stroke-linejoin="round"/>
<path d="M81.5201 39.3295L100.59 39.3295L100.59 1.19947L81.5201 1.19947L81.5201 39.3295Z" stroke="#F0750F" stroke-width="1.5" stroke-miterlimit="10" stroke-linecap="round" stroke-linejoin="round"/>
<path d="M0.49007 48.4594L0.490066 98.1194L100.59 98.1194L100.59 63.0594L100.59 1.18944L81.5201 1.18944L81.5201 39.3294L81.5201 79.0494L19.5501 79.0494L19.5501 48.4594L19.9501 48.4594L21.1401 48.4594L21.1401 34.3594L21.1401 20.2594L19.9501 20.2594L19.5501 20.2594L19.5501 1.18943L0.490074 1.18943L0.490072 20.2594L0.49007 48.4594Z" stroke="#F0750F" stroke-width="1.5" stroke-miterlimit="10" stroke-linecap="round" stroke-linejoin="round"/>
</g>
<defs>
<clipPath id="clip0">
<rect width="100.93" height="97.75" fill="white" transform="translate(101 98.5294) rotate(-180)"/>
</clipPath>
</defs>
</svg>
