<svg width="500" height="420" viewBox="0 0 500 420" fill="none" xmlns="http://www.w3.org/2000/svg">
<g clip-path="url(#clip0)">
<path fill-rule="evenodd" clip-rule="evenodd" d="M89.9196 225.393C89.9196 225.393 103.64 222.797 107.825 220.822C112.011 218.839 115.157 217.566 120.788 215.665C126.419 213.759 131.624 213.683 128.126 218.295C124.629 222.908 108.5 225.358 101.065 227.437C93.6302 229.516 91.7715 229.668 91.7715 229.668L88.4258 230.336V225.95L89.9196 225.393Z" fill="#8E6A29"/>
<path d="M89.9196 225.393C89.9196 225.393 103.64 222.797 107.825 220.822C112.011 218.839 115.157 217.566 120.788 215.665C126.419 213.759 131.624 213.683 128.126 218.295C124.629 222.908 108.5 225.358 101.065 227.437C93.6302 229.516 91.7715 229.668 91.7715 229.668L88.4258 230.336V225.95L89.9196 225.393Z" stroke="black" stroke-width="0.5" stroke-miterlimit="2.6131"/>
<path d="M35.9961 18.126V241.46" stroke="black" stroke-width="1.9998" stroke-miterlimit="2.6131"/>
<path d="M153.963 120.541C153.963 120.541 154.693 128.616 154.92 133.235C155.14 137.854 157.577 142.625 159.629 144.883C161.68 147.141 163.126 149.309 163.126 149.309" stroke="black" stroke-width="1.4998" stroke-miterlimit="2.6131"/>
<path d="M153.963 120.541C153.963 120.541 154.397 128.636 154.94 133.627C155.484 138.618 157.556 141.51 158.417 143.534" stroke="black" stroke-width="1.4998" stroke-miterlimit="2.6131"/>
<path fill-rule="evenodd" clip-rule="evenodd" d="M162.981 148.793C162.981 148.793 164.372 153.805 164.42 155.801C164.468 157.798 164.378 158.328 164.378 158.328C164.378 158.328 158.947 158.975 154.734 159.808C152.324 160.283 150.321 160.82 149.949 161.322C148.931 162.713 132.409 182.47 132.409 182.47L130.178 181.582L130.109 182.952L128.891 183.716L129.201 184.522C129.201 184.522 114.221 190.58 104.081 192.728C93.9402 194.876 87.8478 195.034 87.8478 195.034C87.8478 195.034 81.5557 191.516 78.031 193.389C74.5064 195.268 65.082 204.858 65.082 204.858C65.082 204.858 77.7419 198.545 81.1909 197.829C84.6398 197.113 88.4605 202.792 83.9583 203.329C79.4561 203.866 76.4064 203.839 76.4064 203.839C76.4064 203.839 81.6177 206.227 84.867 205.828C88.1163 205.429 90.6152 200.321 92.6116 200.376C94.608 200.431 120.699 197.347 126.268 197.099C131.83 196.851 135.355 194.924 136.987 194.882C138.611 194.841 138.887 195.199 139.114 195.777C139.341 196.349 147.829 189.196 147.829 189.196C147.829 189.196 148.758 192.535 151.987 195.709C155.223 198.882 160.764 210.2 161.115 211.659C161.467 213.118 161.508 214.592 161.508 214.592L133.772 223.286C133.772 223.286 125.469 219.08 123.156 219.142C120.843 219.204 120.003 219.225 120.003 219.225C120.003 219.225 124.01 223.748 125.69 223.809C127.376 223.871 120.279 225.84 119.129 226.081C117.98 226.322 117.498 228.016 112.672 228.346C107.846 228.677 101.134 225.069 101.134 225.069C101.134 225.069 99.4957 226.687 100.666 227.396C101.843 228.105 116.713 234.342 119.866 234.473C123.019 234.604 130.626 227.892 130.626 227.892C130.626 227.892 149.13 228.264 153.743 227.727C158.355 227.19 159.821 226.942 159.821 226.942C159.821 226.942 143.196 259.104 139.651 268.446C136.105 277.788 130.089 301.483 130.089 301.483C130.089 301.483 132.319 302.474 133.958 304.856C135.596 307.231 144.201 311.004 144.201 311.004C144.201 311.004 156.007 382.592 156.062 384.691C156.118 386.791 154.465 388.092 154.465 388.092L158.148 388.209C158.148 388.209 158.341 388.581 158.169 389.297C157.914 390.378 156.82 392.243 152.951 394.756C146.542 398.914 137.4 403.244 134.143 403.327C130.887 403.409 126.385 404.049 125.359 405.123C124.334 406.197 125.077 410.596 125.077 410.596C125.077 410.596 134.295 409.309 137.992 410.059C141.688 410.803 171.063 404.696 172.502 403.402C173.941 402.101 174.773 397.771 172.275 394.577C169.776 391.383 170.932 387.149 170.932 387.149L174.822 387.259C174.822 387.259 169.17 355.034 168.757 347.269C168.351 339.504 168.722 313.007 168.722 313.007L177.968 312.773C177.968 312.773 188.583 358.325 193.271 368.927C197.952 379.528 199.136 384.54 199.136 384.54L203.329 384.223C203.329 384.223 204.678 395.961 203.749 400.821C202.819 405.681 199.432 412.909 201.842 416.847C204.251 420.778 219.355 419.552 220.05 413.859C220.746 408.166 215.286 400.105 214.454 392.14C213.621 384.175 212.898 380.616 212.898 380.616L216.257 380.533C216.257 380.533 210.013 366.4 208.76 358.442C207.507 350.484 200.816 310.508 200.816 310.508C200.816 310.508 213.035 307.465 216.45 305.276C219.864 303.087 225.083 301.696 225.709 301.572C226.335 301.449 227.458 299.955 227.458 299.955C227.458 299.955 219.169 271.475 211.431 248.338C203.694 225.2 201.298 221.903 201.298 221.903C201.298 221.903 207.79 187.895 208.939 183.455C210.089 179.015 211.493 168.255 207.831 164.565C200.94 157.626 193.664 158.555 185.12 156.001L183.337 156.049C183.337 156.049 181.492 149.475 183.138 144.181C184.79 138.887 186.277 139.582 190.573 134.956C194.868 130.33 195.625 122.847 193.429 115.123C191.233 107.399 181.575 99.5581 170.079 102.057C158.582 104.556 151.478 114.614 149.695 118.868C147.912 123.116 149.433 125.078 150.493 125.573C151.553 126.069 148.965 132.388 152.648 135.92C156.331 139.452 156.489 139.507 157.515 141.923C158.568 144.312 162.485 149.365 162.981 148.793Z" fill="white"/>
<path d="M162.981 148.793C162.981 148.793 164.372 153.805 164.42 155.801C164.468 157.798 164.378 158.328 164.378 158.328C164.378 158.328 158.947 158.975 154.734 159.808C152.324 160.283 150.321 160.82 149.949 161.322C148.931 162.713 132.409 182.47 132.409 182.47L130.178 181.582L130.109 182.952L128.891 183.716L129.201 184.522C129.201 184.522 114.221 190.58 104.081 192.728C93.9402 194.876 87.8478 195.034 87.8478 195.034C87.8478 195.034 81.5557 191.516 78.031 193.389C74.5064 195.268 65.082 204.858 65.082 204.858C65.082 204.858 77.7419 198.545 81.1909 197.829C84.6398 197.113 88.4605 202.792 83.9583 203.329C79.4561 203.866 76.4064 203.839 76.4064 203.839C76.4064 203.839 81.6177 206.227 84.867 205.828C88.1163 205.429 90.6152 200.321 92.6116 200.376C94.608 200.431 120.699 197.347 126.268 197.099C131.83 196.851 135.355 194.924 136.987 194.882C138.611 194.841 138.887 195.199 139.114 195.777C139.341 196.349 147.829 189.196 147.829 189.196C147.829 189.196 148.758 192.535 151.987 195.709C155.223 198.882 160.764 210.2 161.115 211.659C161.467 213.118 161.508 214.592 161.508 214.592L133.772 223.286C133.772 223.286 125.469 219.08 123.156 219.142C120.843 219.204 120.003 219.225 120.003 219.225C120.003 219.225 124.01 223.748 125.69 223.809C127.376 223.871 120.279 225.84 119.129 226.081C117.98 226.322 117.498 228.016 112.672 228.346C107.846 228.677 101.134 225.069 101.134 225.069C101.134 225.069 99.4957 226.687 100.666 227.396C101.843 228.105 116.713 234.342 119.866 234.473C123.019 234.604 130.626 227.892 130.626 227.892C130.626 227.892 149.13 228.264 153.743 227.727C158.355 227.19 159.821 226.942 159.821 226.942C159.821 226.942 143.196 259.104 139.651 268.446C136.105 277.788 130.089 301.483 130.089 301.483C130.089 301.483 132.319 302.474 133.958 304.856C135.596 307.231 144.201 311.004 144.201 311.004C144.201 311.004 156.007 382.592 156.062 384.691C156.118 386.791 154.465 388.092 154.465 388.092L158.148 388.209C158.148 388.209 158.341 388.581 158.169 389.297C157.914 390.378 156.82 392.243 152.951 394.756C146.542 398.914 137.4 403.244 134.143 403.327C130.887 403.409 126.385 404.049 125.359 405.123C124.334 406.197 125.077 410.596 125.077 410.596C125.077 410.596 134.295 409.309 137.992 410.059C141.688 410.803 171.063 404.696 172.502 403.402C173.941 402.101 174.773 397.771 172.275 394.577C169.776 391.383 170.932 387.149 170.932 387.149L174.822 387.259C174.822 387.259 169.17 355.034 168.757 347.269C168.351 339.504 168.722 313.007 168.722 313.007L177.968 312.773C177.968 312.773 188.583 358.325 193.271 368.927C197.952 379.528 199.136 384.54 199.136 384.54L203.329 384.223C203.329 384.223 204.678 395.961 203.749 400.821C202.819 405.681 199.432 412.909 201.842 416.847C204.251 420.778 219.355 419.552 220.05 413.859C220.746 408.166 215.286 400.105 214.454 392.14C213.621 384.175 212.898 380.616 212.898 380.616L216.257 380.533C216.257 380.533 210.013 366.4 208.76 358.442C207.507 350.484 200.816 310.508 200.816 310.508C200.816 310.508 213.035 307.465 216.45 305.276C219.864 303.087 225.083 301.696 225.709 301.572C226.335 301.449 227.458 299.955 227.458 299.955C227.458 299.955 219.169 271.475 211.431 248.338C203.694 225.2 201.298 221.903 201.298 221.903C201.298 221.903 207.79 187.895 208.939 183.455C210.089 179.015 211.493 168.255 207.831 164.565C200.94 157.626 193.664 158.555 185.12 156.001L183.337 156.049C183.337 156.049 181.492 149.475 183.138 144.181C184.79 138.887 186.277 139.582 190.573 134.956C194.868 130.33 195.625 122.847 193.429 115.123C191.233 107.399 181.575 99.5581 170.079 102.057C158.582 104.556 151.478 114.614 149.695 118.868C147.912 123.116 149.433 125.078 150.493 125.573C151.553 126.069 148.965 132.388 152.648 135.92C156.331 139.452 156.489 139.507 157.515 141.923C158.568 144.312 162.485 149.365 162.981 148.793Z" stroke="black" stroke-width="1.4998" stroke-miterlimit="2.6131"/>
<path d="M160.276 109.1C160.276 109.1 155.952 116.782 153.963 120.541C151.973 124.3 156.173 138.749 156.173 138.749" stroke="black" stroke-width="1.4998" stroke-miterlimit="2.6131"/>
<path d="M162.051 111.351C168.508 118.641 181.257 119.336 181.505 129.091C181.588 132.43 181.14 133.586 181.14 133.586" stroke="black" stroke-width="1.4998" stroke-miterlimit="2.6131"/>
<path d="M184.487 137.51C184.487 137.51 182.67 133.641 186.098 129.642C189.526 125.642 191.495 128.575 191.488 131.225C191.481 133.875 189.279 136.278 189.279 136.278" stroke="black" stroke-width="1.4998" stroke-miterlimit="2.6131"/>
<path d="M194.283 118.785C194.283 118.785 195.075 116.328 196.272 116.679C197.477 117.03 197.367 124.148 196.031 127.907C194.696 131.666 191.818 133.4 191.818 133.4" stroke="black" stroke-width="1.4998" stroke-miterlimit="2.6131"/>
<path d="M197.104 120.754C197.104 120.754 201.014 121.229 202.446 125.016C203.878 128.795 200.202 145.599 202.219 149.847C204.236 154.094 210.666 151.54 212.669 151.492C214.672 151.444 213.977 154.225 216.861 154.92C219.746 155.609 225.48 152.222 225.48 152.222C225.48 152.222 214.197 159.003 209.647 160.359C205.096 161.715 191.934 158.328 193.207 148.463C193.978 142.481 195.534 138.839 196.457 136.457C198.281 131.735 194.777 130.158 194.894 130.227C195.094 130.33 197.145 126.124 197.104 120.754Z" stroke="black" stroke-width="1.4998" stroke-miterlimit="2.6131"/>
<path d="M166.773 127.976C166.773 127.976 168.412 126.744 170.346 125.787C172.281 124.83 173.905 124.885 173.905 124.885" stroke="black" stroke-width="1.4998" stroke-miterlimit="2.6131"/>
<path d="M161.418 127.824C161.418 127.824 157.914 127.15 157.15 127.17C156.386 127.191 155.959 127.294 155.959 127.294" stroke="black" stroke-width="1.4998" stroke-miterlimit="2.6131"/>
<path d="M155.945 171.105C155.684 172.069 147.561 182.863 147.643 186.208C147.726 189.561 148.738 191.365 148.738 191.365" stroke="black" stroke-width="1.4998" stroke-miterlimit="2.6131"/>
<path d="M199.101 171.236L197.965 173.728L185.291 197.251C185.291 197.251 191.638 198.903 194.578 201.884C197.517 204.864 197.166 205.925 197.166 205.925L207.816 188.707" stroke="black" stroke-width="1.4998" stroke-miterlimit="2.6131"/>
<path d="M186.861 197.726L180.596 207.776C180.596 207.776 169.327 212.148 159.703 215.163" stroke="black" stroke-width="1.4998" stroke-miterlimit="2.6131"/>
<path d="M196.581 204.3C196.581 204.3 190.578 217.173 189.628 217.387C188.678 217.6 165.438 226.955 155.807 227.479" stroke="black" stroke-width="1.4998" stroke-miterlimit="2.6131"/>
<path d="M130.15 182.264C130.15 182.264 135.128 186.401 137.096 190.408C139.058 194.414 139.114 195.777 139.114 195.777" stroke="black" stroke-width="1.4998" stroke-miterlimit="2.6131"/>
<path d="M129.055 184.116C129.055 184.116 132.393 187.806 135.003 190.89C137.612 193.974 138.231 194.972 138.231 194.972" stroke="black" stroke-width="1.4998" stroke-miterlimit="2.6131"/>
<path d="M154.74 159.801L156.021 172.406" stroke="black" stroke-width="1.4998" stroke-miterlimit="2.6131"/>
<path d="M159.098 159.243L159.876 174.54" stroke="black" stroke-width="1.4998" stroke-miterlimit="2.6131"/>
<path d="M195.054 158.665C195.054 158.665 193.684 162.947 193.498 166.96C193.312 170.974 193.25 173.287 193.25 173.287" stroke="black" stroke-width="1.4998" stroke-miterlimit="2.6131"/>
<path d="M189.134 157.047C189.134 157.047 187.764 161.329 187.578 165.343C187.392 169.356 187.275 174.905 187.275 174.905" stroke="black" stroke-width="1.4998" stroke-miterlimit="2.6131"/>
<path d="M155.518 171.869C155.518 171.869 160.075 176.123 166.319 177.493C172.563 178.863 190.296 174.209 191.15 173.9C193.16 173.17 192.561 173.776 193.298 172.013" stroke="black" stroke-width="1.4998" stroke-miterlimit="2.6131"/>
<path d="M170.911 387.3L158.154 388.202" stroke="black" stroke-width="1.4998" stroke-miterlimit="2.6131"/>
<path d="M212.925 380.602C212.925 380.602 207.542 383.893 203.35 384.209" stroke="black" stroke-width="1.4998" stroke-miterlimit="2.6131"/>
<path d="M168.873 130.406C168.873 130.406 171.868 128.134 172.529 127.783C173.189 127.432 175.034 128.623 175.034 128.623" stroke="black" stroke-width="1.4998" stroke-miterlimit="2.6131"/>
<path d="M162.072 131.535C162.072 131.535 160.358 131.432 159.133 131.473C158.988 131.48 158.851 131.487 158.727 131.494C158.424 131.514 158.176 131.555 158.038 131.611C157.35 131.893 159.05 133.779 159.209 133.49C159.367 133.201 159.188 131.817 159.188 131.817" stroke="black" stroke-width="1.4998" stroke-miterlimit="2.6131"/>
<path d="M169.631 130.22C169.631 130.22 170.932 133.552 171.531 132.533C172.123 131.514 170.829 129.449 170.829 129.449" stroke="black" stroke-width="1.4998" stroke-miterlimit="2.6131"/>
<path d="M164.75 138.151C164.75 138.151 165.824 137.262 166.45 137.393C167.077 137.517 168.302 137.848 168.302 137.848" stroke="black" stroke-width="1.4998" stroke-miterlimit="2.6131"/>
<path d="M163.291 142.212C163.291 142.212 165.804 143.121 167.917 142.845C170.031 142.57 171.965 140.808 171.965 140.808" stroke="black" stroke-width="1.4998" stroke-miterlimit="2.6131"/>
<path d="M164.701 142.942C164.701 142.942 166.959 144.979 167.696 144.973C168.432 144.966 169.616 144.422 169.616 144.422C169.616 144.422 171.021 141.909 171.041 141.709" stroke="black" stroke-width="1.4998" stroke-miterlimit="2.6131"/>
<path d="M162.98 148.793C162.98 148.793 167.868 151.747 170.828 151.953C173.795 152.166 182.71 147.361 183.254 143.837" stroke="black" stroke-width="1.4998" stroke-miterlimit="2.6131"/>
<path d="M203.858 162.864C203.858 162.864 201.889 164.868 197.965 173.727" stroke="black" stroke-width="1.4998" stroke-miterlimit="2.6131"/>
<path d="M201.097 310.432C201.462 310.673 165.204 315.712 144.207 310.99" stroke="black" stroke-width="1.4998" stroke-miterlimit="2.6131"/>
<path fill-rule="evenodd" clip-rule="evenodd" d="M20.2046 235.003H140.608L168.743 251.249H4.92188L20.2046 235.003Z" fill="#2E100F"/>
<path d="M20.2046 235.003H140.608L168.743 251.249H4.92188L20.2046 235.003Z" stroke="black" stroke-width="1.9998" stroke-miterlimit="2.6131"/>
<path d="M4.83203 252.826H168.612V251.25H4.92152L4.83203 252.826Z" stroke="black" stroke-width="1.9998" stroke-miterlimit="2.6131"/>
<path fill-rule="evenodd" clip-rule="evenodd" d="M27.5356 236.318H120.726L133.606 249.198H19.2402L27.5356 236.318Z" fill="#965050"/>
<path d="M27.5356 236.318H120.726L133.606 249.198H19.2402L27.5356 236.318Z" stroke="black" stroke-width="1.9998" stroke-miterlimit="2.6131"/>
<path fill-rule="evenodd" clip-rule="evenodd" d="M64.0979 220.911C77.2121 220.911 87.8618 222.853 87.9858 225.255C87.9858 225.255 89.2249 226.825 88.2749 230.735C87.318 234.645 84.4817 242.349 79.119 244.565C73.7563 246.782 56.5116 247.808 48.3126 243.801C40.1067 239.795 40.4028 225.861 40.4028 225.861C40.272 225.675 40.2031 225.489 40.2031 225.297C40.2031 222.873 50.901 220.911 64.0979 220.911Z" fill="white"/>
<path d="M64.0979 220.911C77.2121 220.911 87.8618 222.853 87.9858 225.255C87.9858 225.255 89.2249 226.825 88.2749 230.735C87.318 234.645 84.4817 242.349 79.119 244.565C73.7563 246.782 56.5116 247.808 48.3126 243.801C40.1067 239.795 40.4028 225.861 40.4028 225.861C40.272 225.675 40.2031 225.489 40.2031 225.297C40.2031 222.873 50.901 220.911 64.0979 220.911Z" stroke="black" stroke-width="1.9998" stroke-miterlimit="2.6131"/>
<path d="M64.0218 221.104C77.2255 221.104 87.9303 222.873 87.9303 225.049C87.9303 227.231 77.2255 228.993 64.0218 228.993C50.8181 228.993 40.1133 227.224 40.1133 225.049C40.1133 222.866 50.8181 221.104 64.0218 221.104Z" stroke="black" stroke-width="1.9998" stroke-miterlimit="2.6131"/>
<path d="M44.4359 222.784C44.4359 222.784 35.3901 224.532 35.9615 226.343C36.5329 228.153 40.5395 228.766 40.5395 228.766C40.5395 228.766 39.555 225.29 40.6496 224.45C41.7373 223.617 44.4359 222.784 44.4359 222.784Z" stroke="black" stroke-width="1.9998" stroke-miterlimit="2.6131"/>
<path d="M61.4054 205.649C61.4054 205.649 58.4521 210.179 60.5931 213.945C62.7409 217.71 64.5032 217.662 64.5032 220.574C64.5032 223.486 64.3587 224.154 64.3587 224.154C64.3587 224.154 67.0297 221.675 65.7906 216.333C64.5514 210.991 61.2126 211.273 61.4054 205.649Z" stroke="black" stroke-width="1.9998" stroke-miterlimit="2.6131"/>
<path d="M69.0612 209.862C69.0612 209.862 67.7326 211.893 68.6963 213.587C69.6601 215.273 70.4518 215.253 70.4518 216.561C70.4518 217.869 70.3898 218.165 70.3898 218.165C70.3898 218.165 71.5877 217.049 71.0301 214.654C70.4724 212.258 68.9717 212.382 69.0612 209.862Z" stroke="black" stroke-width="1.9998" stroke-miterlimit="2.6131"/>
<path fill-rule="evenodd" clip-rule="evenodd" d="M78.8359 201.65C78.8359 201.65 70.7058 210.041 62.4724 214.757C54.239 219.473 60.7995 223.452 60.7995 223.452C57.5984 221.965 51.5335 224.904 52.2151 227.32L64.3449 227.692C64.3449 227.692 63.6496 223.92 62.4655 224.023C61.2814 224.126 58.7205 219.094 61.0267 217.6C78.4573 206.269 75.9584 204.541 82.5533 199.88C85.2726 197.96 82.1609 198.813 82.1609 198.813L78.8359 201.65Z" fill="#2E100F"/>
<path fill-rule="evenodd" clip-rule="evenodd" d="M12.1969 261.782H168.611V252.826H12.1074L12.1969 261.782Z" fill="#F1B417"/>
<path d="M12.1969 261.782H168.611V252.826H12.1074L12.1969 261.782Z" stroke="black" stroke-width="1.9998" stroke-miterlimit="2.6131"/>
<path d="M168.665 261.837H12.3066V415.973H168.665V261.837Z" fill="white"/>
<path d="M168.665 261.837H12.3066V415.973H168.665V261.837Z" stroke="black" stroke-width="1.9998" stroke-miterlimit="2.6131"/>
<path d="M12.1082 0.688477H0.6875V416.516H12.1082V0.688477Z" fill="#C44D26"/>
<path d="M12.1082 0.688477H0.6875V416.516H12.1082V0.688477Z" stroke="black" stroke-width="1.9998" stroke-miterlimit="2.6131"/>
<path d="M170.209 250.74H286.44V187.475" stroke="black" stroke-width="1.4998" stroke-miterlimit="2.6131"/>
<path d="M191.006 223.871H286.44V189.644V172.302" stroke="black" stroke-width="1.4998" stroke-miterlimit="2.6131"/>
<path d="M306.433 184.425C306.433 185.038 306.942 185.527 307.555 185.527C308.168 185.527 308.677 185.038 308.677 184.425V174.843H311.768C312.326 174.843 312.78 174.374 312.78 173.81C312.78 173.252 312.326 172.777 311.768 172.777H303.363C302.784 172.777 302.33 173.245 302.33 173.81C302.33 174.368 302.784 174.843 303.363 174.843H306.433V184.425Z" fill="black"/>
<path d="M314.604 184.439C314.604 185.052 315.092 185.527 315.691 185.527C316.304 185.527 316.793 185.059 316.793 184.439V180.047C316.793 178.567 317.681 177.679 318.947 177.679C320.248 177.679 320.992 178.526 320.992 180.013V184.439C320.992 185.052 321.481 185.527 322.093 185.527C322.706 185.527 323.181 185.059 323.181 184.439V179.338C323.181 177.135 321.935 175.683 319.78 175.683C318.3 175.683 317.412 176.46 316.8 177.348V173.225C316.8 172.626 316.311 172.137 315.698 172.137C315.085 172.137 314.61 172.626 314.61 173.225V184.439H314.604Z" fill="black"/>
<path d="M333.625 184.384C333.79 184.219 333.914 183.985 333.914 183.716C333.914 183.207 333.535 182.828 333.046 182.828C332.792 182.828 332.647 182.904 332.489 183.028C331.876 183.537 331.153 183.861 330.231 183.861C328.82 183.861 327.718 182.993 327.484 181.438H333.466C334.024 181.438 334.499 181.004 334.499 180.391C334.499 178.188 332.998 175.689 329.962 175.689C327.229 175.689 325.295 177.934 325.295 180.66V180.694C325.295 183.641 327.429 185.651 330.196 185.651C331.677 185.651 332.757 185.162 333.625 184.384ZM327.463 179.992C327.663 178.512 328.599 177.479 329.942 177.479C331.387 177.479 332.22 178.581 332.365 179.992H327.463Z" fill="black"/>
<path d="M346.628 177.589C348.095 177.589 349.396 178.801 349.396 180.646V180.68C349.396 182.505 348.095 183.737 346.628 183.737C345.148 183.737 343.882 182.525 343.882 180.68V180.646C343.875 178.746 345.128 177.589 346.628 177.589ZM351.544 173.232C351.544 172.619 351.055 172.144 350.442 172.144C349.843 172.144 349.355 172.612 349.355 173.232V177.369C348.666 176.467 347.675 175.689 346.098 175.689C343.82 175.689 341.672 177.479 341.672 180.646V180.68C341.672 183.847 343.861 185.637 346.098 185.637C347.654 185.637 348.645 184.838 349.355 183.847V184.446C349.355 185.059 349.843 185.534 350.456 185.534C351.055 185.534 351.544 185.066 351.544 184.446V173.232Z" fill="black"/>
<path d="M354.421 184.439C354.421 185.052 354.91 185.527 355.509 185.527C356.121 185.527 356.61 185.059 356.61 184.439V176.881C356.61 176.268 356.121 175.779 355.509 175.779C354.896 175.779 354.421 176.268 354.421 176.881V184.439ZM354.256 173.432C354.256 174.086 354.8 174.519 355.502 174.519C356.204 174.519 356.748 174.086 356.748 173.432V173.321C356.748 172.667 356.204 172.254 355.502 172.254C354.8 172.254 354.256 172.667 354.256 173.321V173.432Z" fill="black"/>
<path d="M362.738 185.616C364.728 185.616 366.284 184.625 366.284 182.615V182.58C366.284 180.859 364.714 180.233 363.317 179.799C362.194 179.434 361.162 179.145 361.162 178.443V178.409C361.162 177.865 361.651 177.466 362.497 177.466C363.165 177.466 363.964 177.72 364.742 178.119C364.886 178.188 364.996 178.23 365.175 178.23C365.685 178.23 366.077 177.851 366.077 177.342C366.077 176.963 365.864 176.674 365.554 176.509C364.631 176.02 363.564 175.731 362.552 175.731C360.652 175.731 359.152 176.832 359.152 178.643V178.677C359.152 180.501 360.728 181.08 362.132 181.479C363.255 181.823 364.267 182.078 364.267 182.814V182.849C364.267 183.482 363.723 183.881 362.786 183.881C361.919 183.881 360.962 183.572 360.04 182.959C359.916 182.883 359.751 182.835 359.572 182.835C359.062 182.835 358.684 183.234 358.684 183.723C358.684 184.088 358.863 184.357 359.097 184.48C360.205 185.238 361.527 185.616 362.738 185.616Z" fill="black"/>
<path d="M371.542 185.596C372.12 185.596 372.575 185.506 373.043 185.341C373.353 185.217 373.621 184.887 373.621 184.494C373.621 183.985 373.187 183.592 372.699 183.592C372.623 183.592 372.409 183.647 372.155 183.647C371.411 183.647 370.978 183.303 370.978 182.457V177.775H372.699C373.222 177.775 373.656 177.362 373.656 176.832C373.656 176.309 373.222 175.889 372.699 175.889H370.978V174.264C370.978 173.666 370.489 173.177 369.89 173.177C369.277 173.177 368.788 173.666 368.788 174.264V175.889H368.424C367.9 175.889 367.48 176.302 367.48 176.832C367.48 177.355 367.894 177.775 368.424 177.775H368.788V182.801C368.795 184.894 369.931 185.596 371.542 185.596Z" fill="black"/>
<path d="M379.135 184.047C378.089 184.047 377.27 183.524 377.27 182.601V182.567C377.27 181.575 378.103 180.976 379.514 180.976C380.381 180.976 381.125 181.142 381.683 181.355V182.009C381.683 183.214 380.581 184.047 379.135 184.047ZM378.516 185.637C379.982 185.637 380.974 185.024 381.627 184.246V184.611C381.627 185.1 382.061 185.534 382.695 185.534C383.293 185.534 383.762 185.079 383.762 184.487V179.785C383.762 178.539 383.438 177.527 382.729 176.839C382.061 176.151 380.994 175.772 379.562 175.772C378.316 175.772 377.394 175.985 376.492 176.33C376.168 176.454 375.893 176.798 375.893 177.197C375.893 177.706 376.306 178.099 376.816 178.099C376.926 178.099 377.036 178.078 377.16 178.044C377.759 177.81 378.44 177.665 379.273 177.665C380.808 177.665 381.641 178.388 381.641 179.744V179.978C380.898 179.744 380.141 179.579 379.074 179.579C376.74 179.579 375.129 180.591 375.129 182.649V182.684C375.136 184.604 376.726 185.637 378.516 185.637Z" fill="black"/>
<path d="M386.385 184.439C386.385 185.052 386.874 185.527 387.472 185.527C388.085 185.527 388.574 185.059 388.574 184.439V180.047C388.574 178.567 389.462 177.679 390.729 177.679C392.03 177.679 392.773 178.526 392.773 180.013V184.439C392.773 185.052 393.262 185.527 393.875 185.527C394.487 185.527 394.962 185.059 394.962 184.439V179.338C394.962 177.135 393.716 175.683 391.562 175.683C390.082 175.683 389.193 176.461 388.581 177.349V176.88C388.581 176.268 388.092 175.779 387.479 175.779C386.867 175.779 386.392 176.268 386.392 176.88V184.439H386.385Z" fill="black"/>
<path d="M402.004 185.651C403.595 185.651 404.627 185.107 405.474 184.295C405.674 184.129 405.784 183.895 405.784 183.606C405.784 183.083 405.371 182.649 404.841 182.649C404.586 182.649 404.372 182.773 404.242 182.883C403.643 183.393 402.975 183.73 402.108 183.73C400.428 183.73 399.251 182.374 399.251 180.674V180.639C399.251 178.973 400.428 177.603 402.018 177.603C402.885 177.603 403.498 177.947 404.063 178.416C404.207 178.526 404.441 178.636 404.717 178.636C405.274 178.636 405.729 178.202 405.729 177.644C405.729 177.28 405.529 177.011 405.384 176.887C404.572 176.185 403.539 175.696 402.039 175.696C399.161 175.696 397.068 177.975 397.068 180.687V180.722C397.068 183.427 399.168 185.651 402.004 185.651Z" fill="black"/>
<path d="M415.457 184.384C415.622 184.219 415.746 183.985 415.746 183.716C415.746 183.207 415.367 182.828 414.878 182.828C414.624 182.828 414.479 182.904 414.321 183.028C413.708 183.537 412.985 183.861 412.063 183.861C410.652 183.861 409.55 182.993 409.316 181.438H415.298C415.856 181.438 416.331 181.004 416.331 180.391C416.331 178.188 414.83 175.689 411.794 175.689C409.061 175.689 407.127 177.934 407.127 180.66V180.694C407.127 183.641 409.261 185.651 412.028 185.651C413.502 185.651 414.589 185.162 415.457 184.384ZM409.295 179.992C409.495 178.512 410.431 177.479 411.774 177.479C413.219 177.479 414.052 178.581 414.197 179.992H409.295Z" fill="black"/>
<path d="M428.907 183.737C427.427 183.737 426.126 182.505 426.126 180.68V180.646C426.126 178.822 427.427 177.589 428.907 177.589C430.387 177.589 431.64 178.801 431.64 180.646V180.68C431.64 182.56 430.408 183.737 428.907 183.737ZM423.992 184.439C423.992 185.038 424.481 185.527 425.08 185.527C425.693 185.527 426.181 185.038 426.181 184.439V183.95C426.849 184.838 427.847 185.63 429.437 185.63C431.695 185.63 433.864 183.84 433.864 180.674V180.639C433.864 177.459 431.675 175.683 429.437 175.683C427.882 175.683 426.89 176.481 426.181 177.472V173.225C426.181 172.612 425.693 172.137 425.08 172.137C424.467 172.137 423.992 172.605 423.992 173.225V184.439Z" fill="black"/>
<path d="M443.935 184.384C444.1 184.219 444.224 183.985 444.224 183.716C444.224 183.207 443.846 182.828 443.357 182.828C443.102 182.828 442.958 182.904 442.799 183.028C442.187 183.537 441.464 183.861 440.541 183.861C439.13 183.861 438.029 182.993 437.795 181.438H443.777C444.335 181.438 444.81 181.004 444.81 180.391C444.81 178.188 443.309 175.689 440.273 175.689C437.54 175.689 435.605 177.934 435.605 180.66V180.694C435.605 183.641 437.74 185.651 440.507 185.651C441.98 185.651 443.068 185.162 443.935 184.384ZM437.767 179.992C437.967 178.512 438.903 177.479 440.245 177.479C441.691 177.479 442.524 178.581 442.669 179.992H437.767Z" fill="black"/>
<path d="M450.241 185.596C450.82 185.596 451.274 185.506 451.742 185.341C452.052 185.217 452.32 184.887 452.32 184.494C452.32 183.985 451.887 183.592 451.398 183.592C451.322 183.592 451.109 183.647 450.854 183.647C450.111 183.647 449.677 183.303 449.677 182.457V177.775H451.398C451.921 177.775 452.355 177.362 452.355 176.832C452.355 176.309 451.921 175.889 451.398 175.889H449.677V174.264C449.677 173.666 449.188 173.177 448.589 173.177C447.976 173.177 447.488 173.666 447.488 174.264V175.889H447.123C446.6 175.889 446.18 176.302 446.18 176.832C446.18 177.355 446.593 177.775 447.123 177.775H447.488V182.801C447.495 184.894 448.63 185.596 450.241 185.596Z" fill="black"/>
<path d="M457.676 185.596H457.745C458.268 185.596 458.722 185.286 458.922 184.652L460.801 178.973L462.667 184.652C462.866 185.286 463.321 185.596 463.858 185.596H463.926C464.45 185.596 464.904 185.286 465.138 184.618L467.74 177.28C467.775 177.169 467.83 176.956 467.83 176.791C467.83 176.247 467.396 175.779 466.797 175.779C466.219 175.779 465.875 176.157 465.73 176.626L463.871 182.429L461.992 176.646C461.827 176.137 461.434 175.779 460.87 175.779H460.746C460.188 175.779 459.789 176.144 459.624 176.646L457.758 182.429L455.913 176.646C455.748 176.137 455.39 175.779 454.846 175.779C454.192 175.779 453.779 176.268 453.779 176.791C453.779 176.97 453.834 177.204 453.889 177.348L456.457 184.618C456.678 185.293 457.132 185.596 457.676 185.596Z" fill="black"/>
<path d="M477.4 184.384C477.565 184.219 477.689 183.985 477.689 183.716C477.689 183.207 477.311 182.828 476.822 182.828C476.567 182.828 476.423 182.904 476.264 183.028C475.652 183.537 474.929 183.861 474.006 183.861C472.595 183.861 471.494 182.993 471.259 181.438H477.242C477.799 181.438 478.274 181.004 478.274 180.391C478.274 178.188 476.774 175.689 473.738 175.689C471.005 175.689 469.07 177.934 469.07 180.66V180.694C469.07 183.641 471.204 185.651 473.972 185.651C475.445 185.651 476.533 185.162 477.4 184.384ZM471.232 179.992C471.432 178.512 472.368 177.479 473.71 177.479C475.156 177.479 475.989 178.581 476.133 179.992H471.232Z" fill="black"/>
<path d="M488.318 184.384C488.483 184.219 488.607 183.985 488.607 183.716C488.607 183.207 488.229 182.828 487.74 182.828C487.485 182.828 487.341 182.904 487.182 183.028C486.57 183.537 485.847 183.861 484.924 183.861C483.513 183.861 482.411 182.993 482.177 181.438H488.16C488.717 181.438 489.192 181.004 489.192 180.391C489.192 178.188 487.692 175.689 484.656 175.689C481.923 175.689 479.988 177.934 479.988 180.66V180.694C479.988 183.641 482.122 185.651 484.89 185.651C486.37 185.651 487.451 185.162 488.318 184.384ZM482.157 179.992C482.356 178.512 483.293 177.479 484.635 177.479C486.081 177.479 486.914 178.581 487.058 179.992H482.157Z" fill="black"/>
<path d="M491.43 184.439C491.43 185.052 491.918 185.527 492.517 185.527C493.13 185.527 493.619 185.059 493.619 184.439V180.047C493.619 178.567 494.507 177.679 495.774 177.679C497.075 177.679 497.818 178.526 497.818 180.013V184.439C497.818 185.052 498.307 185.527 498.92 185.527C499.532 185.527 500.007 185.059 500.007 184.439V179.338C500.007 177.135 498.761 175.683 496.607 175.683C495.126 175.683 494.238 176.461 493.626 177.349V176.88C493.626 176.268 493.137 175.779 492.524 175.779C491.912 175.779 491.437 176.268 491.437 176.88V184.439H491.43Z" fill="black"/>
<path d="M304.809 210.076C306.344 210.076 307.211 209.353 308.031 207.398L311.521 199.026C311.555 198.916 311.61 198.682 311.61 198.503C311.61 197.925 311.142 197.471 310.564 197.471C310.006 197.471 309.697 197.849 309.518 198.304L307.129 204.651L304.561 198.304C304.361 197.794 304.052 197.471 303.494 197.471C302.881 197.471 302.406 197.925 302.406 198.538C302.406 198.682 302.461 198.903 302.53 199.061L306.075 206.978L306 207.177C305.635 207.921 305.298 208.189 304.644 208.189C304.334 208.189 304.134 208.134 303.886 208.065C303.776 208.031 303.673 207.997 303.487 207.997C303.019 207.997 302.599 208.361 302.599 208.898C302.599 209.422 302.964 209.697 303.287 209.8C303.742 209.986 304.196 210.076 304.809 210.076Z" fill="black"/>
<path d="M317.861 205.436C316.161 205.436 314.949 204.045 314.949 202.379V202.345C314.949 200.679 316.071 199.309 317.826 199.309C319.547 199.309 320.752 200.699 320.752 202.379V202.414C320.752 204.059 319.63 205.436 317.861 205.436ZM317.826 207.349C320.773 207.349 322.941 205.091 322.941 202.379V202.345C322.941 199.612 320.787 197.388 317.861 197.388C314.935 197.388 312.76 199.646 312.76 202.379V202.414C312.76 205.126 314.914 207.349 317.826 207.349Z" fill="black"/>
<path d="M333.646 198.579C333.646 197.966 333.137 197.478 332.545 197.478C331.932 197.478 331.443 197.966 331.443 198.579V202.971C331.443 204.451 330.555 205.319 329.288 205.319C327.987 205.319 327.244 204.486 327.244 203.006V198.579C327.244 197.966 326.755 197.478 326.142 197.478C325.543 197.478 325.055 197.966 325.055 198.579V203.659C325.055 205.883 326.301 207.329 328.455 207.329C329.936 207.329 330.824 206.551 331.436 205.649V206.138C331.436 206.75 331.946 207.225 332.538 207.225C333.15 207.225 333.639 206.737 333.639 206.138V198.579H333.646Z" fill="black"/>
<path d="M336.371 206.138C336.371 206.751 336.86 207.226 337.459 207.226C338.071 207.226 338.56 206.737 338.56 206.138V203.315C338.56 201.057 339.627 199.86 341.183 199.591C341.672 199.502 342.051 199.123 342.051 198.545C342.051 197.911 341.651 197.457 340.963 197.457C340.006 197.457 339.063 198.359 338.56 199.557V198.579C338.56 197.966 338.071 197.478 337.459 197.478C336.846 197.478 336.371 197.966 336.371 198.579V206.138Z" fill="black"/>
<path d="M357.08 206.083C357.245 205.918 357.369 205.684 357.369 205.415C357.369 204.906 356.99 204.527 356.502 204.527C356.247 204.527 356.102 204.603 355.944 204.727C355.331 205.236 354.608 205.56 353.686 205.56C352.275 205.56 351.173 204.692 350.939 203.136H356.921C357.479 203.136 357.954 202.703 357.954 202.09C357.954 199.887 356.453 197.388 353.417 197.388C350.684 197.388 348.75 199.632 348.75 202.359V202.393C348.75 205.339 350.884 207.349 353.651 207.349C355.125 207.349 356.212 206.861 357.08 206.083ZM350.912 201.691C351.111 200.211 352.048 199.178 353.39 199.178C354.836 199.178 355.669 200.28 355.813 201.691H350.912Z" fill="black"/>
<path d="M360.314 206.138C360.314 206.75 360.803 207.225 361.402 207.225C362.015 207.225 362.504 206.757 362.504 206.138V194.93C362.504 194.332 362.015 193.843 361.402 193.843C360.789 193.843 360.314 194.332 360.314 194.93V206.138Z" fill="black"/>
<path d="M370.276 205.436C368.796 205.436 367.495 204.203 367.495 202.379V202.345C367.495 200.52 368.796 199.288 370.276 199.288C371.756 199.288 373.009 200.5 373.009 202.345V202.379C373.002 204.258 371.776 205.436 370.276 205.436ZM365.354 206.138C365.354 206.737 365.842 207.226 366.441 207.226C367.054 207.226 367.543 206.737 367.543 206.138V205.649C368.21 206.537 369.209 207.329 370.799 207.329C373.057 207.329 375.225 205.539 375.225 202.372V202.338C375.225 199.157 373.036 197.381 370.799 197.381C369.243 197.381 368.252 198.18 367.543 199.171V194.924C367.543 194.311 367.054 193.836 366.441 193.836C365.829 193.836 365.354 194.304 365.354 194.924V206.138Z" fill="black"/>
<path d="M382.062 205.436C380.362 205.436 379.15 204.045 379.15 202.379V202.345C379.15 200.679 380.272 199.309 382.028 199.309C383.749 199.309 384.953 200.699 384.953 202.379V202.414C384.953 204.059 383.838 205.436 382.062 205.436ZM382.028 207.349C384.974 207.349 387.143 205.091 387.143 202.379V202.345C387.143 199.612 384.988 197.388 382.062 197.388C379.136 197.388 376.961 199.646 376.961 202.379V202.414C376.968 205.126 379.116 207.349 382.028 207.349Z" fill="black"/>
<path d="M392.258 207.294H392.327C392.85 207.294 393.304 206.985 393.504 206.351L395.383 200.672L397.249 206.351C397.448 206.985 397.903 207.294 398.44 207.294H398.508C399.032 207.294 399.486 206.985 399.72 206.317L402.322 198.978C402.357 198.868 402.412 198.655 402.412 198.49C402.412 197.946 401.978 197.478 401.379 197.478C400.801 197.478 400.457 197.856 400.312 198.324L398.453 204.128L396.574 198.345C396.409 197.836 396.016 197.478 395.452 197.478H395.328C394.77 197.478 394.371 197.842 394.206 198.345L392.34 204.128L390.495 198.345C390.33 197.836 389.972 197.478 389.428 197.478C388.774 197.478 388.361 197.966 388.361 198.49C388.361 198.668 388.416 198.903 388.471 199.047L391.039 206.317C391.266 206.985 391.721 207.294 392.258 207.294Z" fill="black"/>
<path d="M413.267 205.739C412.221 205.739 411.402 205.215 411.402 204.293V204.258C411.402 203.267 412.235 202.668 413.646 202.668C414.513 202.668 415.257 202.833 415.814 203.047V203.701C415.821 204.906 414.713 205.739 413.267 205.739ZM412.655 207.329C414.121 207.329 415.112 206.716 415.766 205.938V206.303C415.766 206.792 416.2 207.226 416.833 207.226C417.432 207.226 417.9 206.771 417.9 206.179V201.477C417.9 200.231 417.577 199.219 416.868 198.531C416.2 197.843 415.133 197.464 413.701 197.464C412.455 197.464 411.532 197.677 410.631 198.021C410.307 198.145 410.032 198.49 410.032 198.889C410.032 199.398 410.445 199.791 410.954 199.791C411.064 199.791 411.174 199.77 411.298 199.736C411.897 199.502 412.579 199.357 413.412 199.357C414.947 199.357 415.78 200.08 415.78 201.436V201.67C415.036 201.436 414.279 201.271 413.212 201.271C410.878 201.271 409.268 202.283 409.268 204.341V204.376C409.274 206.303 410.865 207.329 412.655 207.329Z" fill="black"/>
<path d="M420.516 206.138C420.516 206.751 421.004 207.226 421.603 207.226C422.216 207.226 422.705 206.758 422.705 206.138V201.746C422.705 200.266 423.593 199.378 424.859 199.378C426.161 199.378 426.904 200.224 426.904 201.711V206.138C426.904 206.751 427.393 207.226 428.006 207.226C428.618 207.226 429.093 206.758 429.093 206.138V201.037C429.093 198.834 427.847 197.381 425.692 197.381C424.212 197.381 423.324 198.159 422.712 199.047V198.579C422.712 197.966 422.223 197.478 421.61 197.478C420.998 197.478 420.523 197.966 420.523 198.579V206.138H420.516Z" fill="black"/>
<path d="M436.192 199.288C437.658 199.288 438.959 200.5 438.959 202.345V202.379C438.959 204.203 437.658 205.436 436.192 205.436C434.712 205.436 433.445 204.224 433.445 202.379V202.345C433.445 200.445 434.691 199.288 436.192 199.288ZM441.114 194.93C441.114 194.318 440.625 193.843 440.013 193.843C439.414 193.843 438.925 194.311 438.925 194.93V199.068C438.236 198.166 437.245 197.388 435.669 197.388C433.39 197.388 431.242 199.178 431.242 202.345V202.379C431.242 205.546 433.431 207.336 435.669 207.336C437.224 207.336 438.216 206.537 438.925 205.546V206.145C438.925 206.757 439.414 207.232 440.026 207.232C440.625 207.232 441.114 206.764 441.114 206.145V194.93Z" fill="black"/>
<path d="M452.485 207.294C453.064 207.294 453.518 207.205 453.986 207.04C454.296 206.916 454.564 206.585 454.564 206.193C454.564 205.684 454.131 205.291 453.642 205.291C453.566 205.291 453.353 205.346 453.098 205.346C452.355 205.346 451.921 205.002 451.921 204.155V199.474H453.642C454.165 199.474 454.599 199.061 454.599 198.531C454.599 198.008 454.165 197.588 453.642 197.588H451.921V195.963C451.921 195.364 451.432 194.875 450.833 194.875C450.221 194.875 449.732 195.364 449.732 195.963V197.588H449.367C448.844 197.588 448.424 198.001 448.424 198.531C448.424 199.054 448.837 199.474 449.367 199.474H449.732V204.499C449.739 206.592 450.875 207.294 452.485 207.294Z" fill="black"/>
<path d="M456.713 206.138C456.713 206.751 457.202 207.226 457.801 207.226C458.413 207.226 458.902 206.757 458.902 206.138V201.746C458.902 200.266 459.79 199.378 461.057 199.378C462.358 199.378 463.101 200.224 463.101 201.711V206.138C463.101 206.751 463.59 207.226 464.203 207.226C464.815 207.226 465.29 206.757 465.29 206.138V201.037C465.29 198.834 464.044 197.381 461.89 197.381C460.41 197.381 459.522 198.159 458.909 199.047V194.924C458.909 194.325 458.42 193.836 457.807 193.836C457.195 193.836 456.72 194.325 456.72 194.924V206.138H456.713Z" fill="black"/>
<path d="M475.734 206.083C475.899 205.918 476.023 205.684 476.023 205.415C476.023 204.906 475.645 204.527 475.156 204.527C474.901 204.527 474.757 204.603 474.598 204.727C473.985 205.236 473.263 205.56 472.34 205.56C470.929 205.56 469.828 204.692 469.593 203.136H475.576C476.133 203.136 476.608 202.703 476.608 202.09C476.608 199.887 475.108 197.388 472.072 197.388C469.339 197.388 467.404 199.632 467.404 202.359V202.393C467.404 205.339 469.538 207.349 472.306 207.349C473.786 207.349 474.867 206.861 475.734 206.083ZM469.573 201.691C469.772 200.211 470.709 199.178 472.051 199.178C473.497 199.178 474.33 200.28 474.474 201.691H469.573Z" fill="black"/>
<path d="M307.487 229.048C309.077 229.048 310.11 228.504 310.956 227.692C311.156 227.527 311.266 227.293 311.266 227.004C311.266 226.48 310.853 226.047 310.323 226.047C310.068 226.047 309.855 226.171 309.724 226.281C309.125 226.79 308.457 227.127 307.59 227.127C305.91 227.127 304.733 225.771 304.733 224.071V224.037C304.733 222.371 305.91 221.001 307.5 221.001C308.368 221.001 308.981 221.345 309.545 221.813C309.69 221.923 309.924 222.033 310.199 222.033C310.757 222.033 311.211 221.6 311.211 221.042C311.211 220.677 311.011 220.409 310.867 220.285C310.054 219.583 309.022 219.094 307.521 219.094C304.644 219.094 302.551 221.372 302.551 224.085V224.119C302.551 226.818 304.644 229.048 307.487 229.048Z" fill="black"/>
<path d="M317.695 227.128C315.995 227.128 314.783 225.737 314.783 224.071V224.037C314.783 222.371 315.905 221.001 317.66 221.001C319.381 221.001 320.586 222.391 320.586 224.071V224.105C320.593 225.751 319.471 227.128 317.695 227.128ZM317.66 229.048C320.607 229.048 322.775 226.79 322.775 224.078V224.043C322.775 221.31 320.621 219.087 317.695 219.087C314.769 219.087 312.594 221.345 312.594 224.078V224.112C312.601 226.818 314.748 229.048 317.66 229.048Z" fill="black"/>
<path d="M333.48 220.278C333.48 219.665 332.971 219.176 332.379 219.176C331.766 219.176 331.277 219.665 331.277 220.278V224.67C331.277 226.15 330.389 227.017 329.122 227.017C327.821 227.017 327.078 226.184 327.078 224.704V220.278C327.078 219.665 326.589 219.176 325.976 219.176C325.377 219.176 324.889 219.665 324.889 220.278V225.358C324.889 227.582 326.135 229.027 328.289 229.027C329.77 229.027 330.658 228.25 331.27 227.348V227.836C331.27 228.449 331.78 228.924 332.372 228.924C332.984 228.924 333.473 228.435 333.473 227.836V220.278H333.48Z" fill="black"/>
<path d="M336.213 227.837C336.213 228.449 336.702 228.924 337.301 228.924C337.913 228.924 338.402 228.456 338.402 227.837V223.445C338.402 221.965 339.29 221.076 340.557 221.076C341.858 221.076 342.601 221.923 342.601 223.41V227.837C342.601 228.449 343.09 228.924 343.703 228.924C344.315 228.924 344.79 228.456 344.79 227.837V222.736C344.79 220.533 343.544 219.08 341.39 219.08C339.91 219.08 339.022 219.858 338.409 220.746V220.278C338.409 219.665 337.92 219.176 337.307 219.176C336.695 219.176 336.22 219.665 336.22 220.278V227.837H336.213Z" fill="black"/>
<path d="M350.622 228.993C351.2 228.993 351.655 228.904 352.123 228.738C352.433 228.615 352.701 228.284 352.701 227.892C352.701 227.382 352.267 226.99 351.779 226.99C351.703 226.99 351.49 227.045 351.235 227.045C350.491 227.045 350.058 226.701 350.058 225.854V221.173H351.779C352.302 221.173 352.736 220.76 352.736 220.23C352.736 219.706 352.302 219.287 351.779 219.287H350.058V217.662C350.058 217.063 349.569 216.574 348.97 216.574C348.357 216.574 347.869 217.063 347.869 217.662V219.287H347.504C346.98 219.287 346.561 219.7 346.561 220.23C346.561 220.753 346.974 221.173 347.504 221.173H347.869V226.198C347.875 228.284 349.011 228.993 350.622 228.993Z" fill="black"/>
<path d="M362.394 227.782C362.559 227.616 362.683 227.382 362.683 227.114C362.683 226.604 362.305 226.226 361.816 226.226C361.561 226.226 361.417 226.301 361.258 226.425C360.646 226.935 359.923 227.258 359 227.258C357.589 227.258 356.488 226.391 356.254 224.835H362.236C362.794 224.835 363.269 224.401 363.269 223.789C363.269 221.586 361.768 219.087 358.732 219.087C355.999 219.087 354.064 221.331 354.064 224.057V224.092C354.064 227.038 356.199 229.048 358.966 229.048C360.439 229.048 361.527 228.559 362.394 227.782ZM356.226 223.383C356.426 221.903 357.362 220.87 358.704 220.87C360.15 220.87 360.983 221.971 361.128 223.383H356.226Z" fill="black"/>
<path d="M365.498 227.837C365.498 228.449 365.987 228.924 366.586 228.924C367.198 228.924 367.687 228.436 367.687 227.837V225.014C367.687 222.756 368.754 221.558 370.31 221.29C370.799 221.2 371.177 220.822 371.177 220.243C371.177 219.61 370.778 219.156 370.09 219.156C369.133 219.156 368.19 220.058 367.687 221.255V220.278C367.687 219.665 367.198 219.176 366.586 219.176C365.973 219.176 365.498 219.665 365.498 220.278V227.837V227.837Z" fill="black"/>
<path d="M376.169 228.993C376.747 228.993 377.202 228.904 377.67 228.738C377.98 228.615 378.248 228.284 378.248 227.892C378.248 227.382 377.814 226.99 377.326 226.99C377.25 226.99 377.036 227.045 376.782 227.045C376.038 227.045 375.605 226.701 375.605 225.854V221.173H377.326C377.849 221.173 378.282 220.76 378.282 220.23C378.282 219.706 377.849 219.287 377.326 219.287H375.605V217.662C375.605 217.063 375.116 216.574 374.517 216.574C373.904 216.574 373.415 217.063 373.415 217.662V219.287H373.051C372.527 219.287 372.107 219.7 372.107 220.23C372.107 220.753 372.52 221.173 373.051 221.173H373.415V226.198C373.422 228.284 374.558 228.993 376.169 228.993Z" fill="black"/>
<path d="M384.706 227.128C383.005 227.128 381.794 225.737 381.794 224.071V224.037C381.794 222.371 382.916 221.001 384.671 221.001C386.392 221.001 387.597 222.391 387.597 224.071V224.105C387.597 225.751 386.475 227.128 384.706 227.128ZM384.664 229.048C387.611 229.048 389.779 226.79 389.779 224.078V224.043C389.779 221.31 387.625 219.087 384.699 219.087C381.773 219.087 379.598 221.345 379.598 224.078V224.112C379.605 226.818 381.759 229.048 384.664 229.048Z" fill="black"/>
<path d="M396.925 227.128C395.445 227.128 394.144 225.895 394.144 224.071V224.037C394.144 222.212 395.445 220.98 396.925 220.98C398.405 220.98 399.658 222.192 399.658 224.037V224.071C399.658 225.95 398.426 227.128 396.925 227.128ZM392.01 230.728C392.01 231.341 392.499 231.816 393.097 231.816C393.71 231.816 394.199 231.348 394.199 230.728V227.348C394.867 228.236 395.865 229.028 397.455 229.028C399.713 229.028 401.882 227.238 401.882 224.071V224.037C401.882 220.856 399.692 219.08 397.455 219.08C395.899 219.08 394.908 219.879 394.199 220.87V220.271C394.199 219.658 393.71 219.17 393.097 219.17C392.485 219.17 392.01 219.658 392.01 220.271V230.728Z" fill="black"/>
<path d="M412.834 229.007C414.824 229.007 416.379 228.016 416.379 226.005V225.971C416.379 224.25 414.81 223.624 413.412 223.19C412.29 222.832 411.258 222.536 411.258 221.834V221.799C411.258 221.255 411.746 220.856 412.593 220.856C413.261 220.856 414.059 221.111 414.837 221.51C414.982 221.579 415.092 221.62 415.271 221.62C415.78 221.62 416.173 221.242 416.173 220.732C416.173 220.354 415.959 220.064 415.65 219.899C414.727 219.41 413.66 219.121 412.648 219.121C410.748 219.121 409.247 220.223 409.247 222.033V222.068C409.247 223.892 410.824 224.47 412.228 224.87C413.35 225.214 414.362 225.468 414.362 226.205V226.24C414.362 226.873 413.818 227.272 412.882 227.272C412.015 227.272 411.058 226.962 410.135 226.35C410.012 226.274 409.846 226.226 409.667 226.226C409.158 226.226 408.779 226.625 408.779 227.114C408.779 227.479 408.958 227.747 409.192 227.871C410.308 228.628 411.622 229.007 412.834 229.007Z" fill="black"/>
<path d="M418.623 227.837C418.623 228.449 419.112 228.924 419.711 228.924C420.323 228.924 420.812 228.456 420.812 227.837V223.445C420.812 221.964 421.7 221.076 422.967 221.076C424.268 221.076 425.012 221.923 425.012 223.41V227.837C425.012 228.449 425.5 228.924 426.113 228.924C426.726 228.924 427.201 228.456 427.201 227.837V222.735C427.201 220.533 425.955 219.08 423.8 219.08C422.32 219.08 421.432 219.858 420.819 220.746V216.622C420.819 216.023 420.33 215.535 419.718 215.535C419.105 215.535 418.63 216.023 418.63 216.622V227.837H418.623Z" fill="black"/>
<path d="M434.402 227.128C432.702 227.128 431.49 225.737 431.49 224.071V224.037C431.49 222.371 432.612 221.001 434.367 221.001C436.088 221.001 437.293 222.391 437.293 224.071V224.105C437.3 225.751 436.178 227.128 434.402 227.128ZM434.367 229.048C437.314 229.048 439.482 226.79 439.482 224.078V224.043C439.482 221.31 437.328 219.087 434.402 219.087C431.476 219.087 429.301 221.345 429.301 224.078V224.112C429.308 226.818 431.455 229.048 434.367 229.048Z" fill="black"/>
<path d="M450.187 220.278C450.187 219.665 449.678 219.176 449.086 219.176C448.473 219.176 447.984 219.665 447.984 220.278V224.67C447.984 226.15 447.096 227.017 445.829 227.017C444.528 227.017 443.785 226.184 443.785 224.704V220.278C443.785 219.665 443.296 219.176 442.683 219.176C442.084 219.176 441.596 219.665 441.596 220.278V225.358C441.596 227.582 442.842 229.027 444.996 229.027C446.477 229.027 447.365 228.25 447.977 227.348V227.836C447.977 228.449 448.487 228.924 449.079 228.924C449.691 228.924 450.18 228.435 450.18 227.836V220.278H450.187Z" fill="black"/>
<path d="M453.043 227.837C453.043 228.449 453.532 228.924 454.131 228.924C454.743 228.924 455.232 228.456 455.232 227.837V216.629C455.232 216.03 454.743 215.542 454.131 215.542C453.518 215.542 453.043 216.03 453.043 216.629V227.837Z" fill="black"/>
<path d="M462.558 220.98C464.024 220.98 465.326 222.192 465.326 224.037V224.071C465.326 225.895 464.024 227.128 462.558 227.128C461.078 227.128 459.811 225.916 459.811 224.071V224.037C459.804 222.137 461.057 220.98 462.558 220.98ZM467.473 216.622C467.473 216.01 466.985 215.535 466.372 215.535C465.773 215.535 465.284 216.003 465.284 216.622V220.76C464.596 219.858 463.605 219.08 462.028 219.08C459.749 219.08 457.602 220.87 457.602 224.037V224.071C457.602 227.238 459.791 229.028 462.028 229.028C463.584 229.028 464.575 228.229 465.284 227.238V227.837C465.284 228.449 465.773 228.924 466.386 228.924C466.985 228.924 467.473 228.456 467.473 227.837V216.622Z" fill="black"/>
<path d="M480.56 227.128C479.08 227.128 477.779 225.895 477.779 224.071V224.037C477.779 222.212 479.08 220.98 480.56 220.98C482.04 220.98 483.293 222.192 483.293 224.037V224.071C483.293 225.95 482.061 227.128 480.56 227.128ZM475.645 227.837C475.645 228.436 476.133 228.924 476.732 228.924C477.345 228.924 477.834 228.436 477.834 227.837V227.348C478.501 228.236 479.5 229.028 481.09 229.028C483.348 229.028 485.516 227.238 485.516 224.071V224.037C485.516 220.856 483.327 219.08 481.09 219.08C479.534 219.08 478.543 219.879 477.834 220.87V216.622C477.834 216.01 477.345 215.535 476.732 215.535C476.12 215.535 475.645 216.003 475.645 216.622V227.837Z" fill="black"/>
<path d="M495.588 227.782C495.753 227.616 495.877 227.382 495.877 227.114C495.877 226.604 495.498 226.226 495.009 226.226C494.755 226.226 494.61 226.301 494.452 226.425C493.839 226.935 493.116 227.258 492.194 227.258C490.782 227.258 489.681 226.391 489.447 224.835H495.429C495.987 224.835 496.462 224.401 496.462 223.789C496.462 221.586 494.961 219.087 491.925 219.087C489.192 219.087 487.258 221.331 487.258 224.057V224.092C487.258 227.038 489.392 229.048 492.159 229.048C493.632 229.048 494.72 228.559 495.588 227.782ZM489.419 223.383C489.619 221.903 490.555 220.87 491.898 220.87C493.343 220.87 494.176 221.971 494.321 223.383H489.419Z" fill="black"/>
<path d="M304.918 249.515C304.918 250.127 305.428 250.616 306.02 250.616C306.632 250.616 307.121 250.127 307.121 249.515V238.81C307.121 238.197 306.653 237.708 306.02 237.708H305.985C305.662 237.708 305.331 237.777 304.897 237.908L302.984 238.521C302.529 238.645 302.24 239.01 302.24 239.478C302.24 239.987 302.695 240.421 303.218 240.421C303.328 240.421 303.486 240.4 303.617 240.366L304.918 239.966V249.515V249.515Z" fill="black"/>
<path d="M315.423 248.737C313.455 248.737 312.188 246.692 312.188 244.2V244.166C312.188 241.653 313.434 239.663 315.389 239.663C317.344 239.663 318.625 241.708 318.625 244.2V244.235C318.618 246.706 317.392 248.737 315.423 248.737ZM315.382 250.74C318.707 250.74 320.917 247.814 320.917 244.193V244.159C320.917 240.545 318.728 237.653 315.423 237.653C312.098 237.653 309.889 240.579 309.889 244.2V244.235C309.889 247.849 312.057 250.74 315.382 250.74Z" fill="black"/>
<path d="M323.938 246.059H327.339C327.917 246.059 328.406 245.57 328.406 244.992C328.406 244.393 327.917 243.904 327.339 243.904H323.938C323.36 243.904 322.871 244.393 322.871 244.992C322.871 245.57 323.353 246.059 323.938 246.059Z" fill="black"/>
<path d="M332 249.515C332 250.127 332.51 250.616 333.102 250.616C333.714 250.616 334.203 250.127 334.203 249.515V238.81C334.203 238.197 333.735 237.708 333.102 237.708H333.067C332.744 237.708 332.413 237.777 331.98 237.908L330.066 238.521C329.611 238.645 329.322 239.01 329.322 239.478C329.322 239.987 329.777 240.421 330.3 240.421C330.41 240.421 330.568 240.4 330.699 240.366L332 239.966V249.515V249.515Z" fill="black"/>
<path d="M341.507 250.74C344.219 250.74 346.133 249.026 346.133 246.458V246.424C346.133 243.746 344.199 242.445 341.721 242.445C340.874 242.445 340.309 242.589 339.71 242.809L339.91 239.842H344.667C345.211 239.842 345.658 239.409 345.658 238.865C345.658 238.321 345.204 237.874 344.667 237.874H338.932C338.389 237.874 337.955 238.287 337.921 238.865L337.652 243.422C337.631 243.835 337.762 244.166 338.086 244.4C338.519 244.709 338.788 244.833 339.132 244.833C339.476 244.833 340.075 244.4 341.301 244.4C342.836 244.4 343.923 245.198 343.923 246.499V246.534C343.923 247.869 342.891 248.723 341.466 248.723C340.475 248.723 339.586 248.358 338.719 247.656C338.54 247.511 338.34 247.436 338.065 247.436C337.487 247.436 336.998 247.924 336.998 248.503C336.998 248.867 337.177 249.157 337.452 249.37C338.492 250.162 339.793 250.74 341.507 250.74Z" fill="black"/>
<path d="M358.414 250.74C360.005 250.74 361.037 250.196 361.884 249.384C362.084 249.219 362.194 248.985 362.194 248.696C362.194 248.172 361.781 247.739 361.251 247.739C360.996 247.739 360.783 247.863 360.652 247.973C360.053 248.482 359.385 248.819 358.518 248.819C356.838 248.819 355.661 247.463 355.661 245.763V245.728C355.661 244.063 356.838 242.693 358.428 242.693C359.296 242.693 359.908 243.037 360.473 243.505C360.617 243.615 360.851 243.718 361.127 243.718C361.684 243.718 362.139 243.285 362.139 242.727C362.139 242.362 361.939 242.094 361.795 241.97C360.982 241.268 359.95 240.779 358.449 240.779C355.571 240.779 353.479 243.057 353.479 245.77V245.804C353.479 248.517 355.578 250.74 358.414 250.74Z" fill="black"/>
<path d="M364.328 249.528C364.328 250.141 364.817 250.616 365.416 250.616C366.029 250.616 366.517 250.148 366.517 249.528V245.136C366.517 243.67 367.35 242.768 368.562 242.768C369.773 242.768 370.496 243.601 370.496 245.081V249.528C370.496 250.141 370.985 250.616 371.598 250.616C372.197 250.616 372.685 250.148 372.685 249.528V245.136C372.685 243.601 373.532 242.768 374.73 242.768C375.962 242.768 376.664 243.58 376.664 245.102V249.528C376.664 250.141 377.153 250.616 377.766 250.616C378.379 250.616 378.854 250.148 378.854 249.528V244.427C378.854 242.093 377.587 240.772 375.508 240.772C374.062 240.772 373.05 241.439 372.286 242.451C371.777 241.439 370.806 240.772 369.429 240.772C367.963 240.772 367.13 241.57 366.517 242.417V241.963C366.517 241.35 366.029 240.861 365.416 240.861C364.803 240.861 364.328 241.35 364.328 241.963V249.528V249.528Z" fill="black"/>
<path d="M384.774 250.706C386.763 250.706 388.319 249.714 388.319 247.704V247.67C388.319 245.949 386.749 245.322 385.352 244.889C384.23 244.524 383.197 244.235 383.197 243.532V243.498C383.197 242.954 383.686 242.555 384.533 242.555C385.2 242.555 385.999 242.81 386.777 243.209C386.921 243.278 387.031 243.319 387.21 243.319C387.72 243.319 388.112 242.94 388.112 242.431C388.112 242.052 387.892 241.763 387.589 241.598C386.667 241.109 385.6 240.82 384.588 240.82C382.688 240.82 381.187 241.922 381.187 243.732V243.766C381.187 245.591 382.763 246.169 384.168 246.568C385.29 246.913 386.302 247.167 386.302 247.904V247.938C386.302 248.572 385.758 248.971 384.822 248.971C383.954 248.971 382.997 248.661 382.075 248.048C381.951 247.973 381.786 247.924 381.607 247.924C381.097 247.924 380.719 248.324 380.719 248.813C380.719 249.177 380.898 249.446 381.132 249.57C382.24 250.327 383.562 250.706 384.774 250.706Z" fill="black"/>
</g>
<defs>
<clipPath id="clip0">
<rect width="500" height="419.635" fill="white"/>
</clipPath>
</defs>
</svg>
